<svg width="414" height="185" viewBox="0 0 414 185" fill="none" xmlns="http://www.w3.org/2000/svg">
<path opacity="0.42" d="M59.0265 184.658C79.7399 184.658 96.5315 181.199 96.5315 176.932C96.5315 172.665 79.7399 169.206 59.0265 169.206C38.313 169.206 21.5215 172.665 21.5215 176.932C21.5215 181.199 38.313 184.658 59.0265 184.658Z" fill="#E3F1FF"/>
<path opacity="0.42" d="M406.169 172.962C406.169 177.229 389.377 180.688 368.664 180.688C347.95 180.688 331.158 177.229 331.158 172.962C331.158 168.695 347.95 165.236 368.664 165.236C389.377 165.236 406.169 168.695 406.169 172.962Z" fill="#E3F1FF"/>
<path d="M121.859 139.349V130.957L158.882 72.3789H164.97V85.378H160.857L132.884 129.641V130.299H182.741V139.349H121.859ZM161.515 156.627V72.3789H171.223V156.627H161.515Z" fill="#445E87"/>
<path d="M225.637 157.778C219.439 157.778 214.159 156.092 209.799 152.719C205.439 149.318 202.106 144.395 199.803 137.951C197.499 131.478 196.347 123.662 196.347 114.503C196.347 105.398 197.499 97.623 199.803 91.1783C202.134 84.7061 205.48 79.7697 209.84 76.3691C214.228 72.9411 219.494 71.2271 225.637 71.2271C231.78 71.2271 237.031 72.9411 241.392 76.3691C245.78 79.7697 249.126 84.7061 251.429 91.1783C253.76 97.623 254.926 105.398 254.926 114.503C254.926 123.662 253.774 131.478 251.47 137.951C249.167 144.395 245.835 149.318 241.474 152.719C237.114 156.092 231.834 157.778 225.637 157.778ZM225.637 148.728C231.78 148.728 236.551 145.766 239.952 139.843C243.353 133.919 245.053 125.472 245.053 114.503C245.053 107.208 244.271 100.996 242.708 95.8678C241.172 90.7395 238.951 86.8315 236.044 84.1439C233.165 81.4563 229.695 80.1125 225.637 80.1125C219.548 80.1125 214.79 83.1155 211.362 89.1214C207.934 95.1 206.22 103.56 206.22 114.503C206.22 121.798 206.988 127.995 208.524 133.096C210.06 138.197 212.267 142.078 215.147 144.738C218.054 147.398 221.55 148.728 225.637 148.728Z" fill="#445E87"/>
<path d="M268.583 139.349V130.957L305.606 72.3789H311.694V85.378H307.581L279.608 129.641V130.299H329.465V139.349H268.583ZM308.239 156.627V72.3789H317.947V156.627H308.239Z" fill="#445E87"/>
<path d="M181.182 51.504C179.605 51.504 178.174 51.1382 176.89 50.4065C175.606 49.6587 174.589 48.6263 173.842 47.3093C173.11 45.9762 172.744 44.4723 172.744 42.7976C172.744 41.123 173.11 39.6273 173.842 38.3103C174.589 36.9772 175.606 35.9448 176.89 35.2131C178.174 34.4653 179.605 34.0913 181.182 34.0913C182.776 34.0913 184.214 34.4653 185.499 35.2131C186.783 35.9448 187.791 36.9772 188.523 38.3103C189.254 39.6273 189.62 41.123 189.62 42.7976C189.62 44.4723 189.254 45.9762 188.523 47.3093C187.791 48.6263 186.783 49.6587 185.499 50.4065C184.214 51.1382 182.776 51.504 181.182 51.504ZM181.182 50.0163C182.45 50.0163 183.588 49.7237 184.596 49.1384C185.604 48.5531 186.401 47.7158 186.986 46.6265C187.572 45.5209 187.864 44.2446 187.864 42.7976C187.864 41.3507 187.572 40.0825 186.986 38.9932C186.401 37.9039 185.604 37.0666 184.596 36.4813C183.588 35.896 182.45 35.6033 181.182 35.6033C179.914 35.6033 178.776 35.896 177.768 36.4813C176.76 37.0666 175.963 37.9039 175.378 38.9932C174.793 40.0825 174.5 41.3507 174.5 42.7976C174.5 44.2446 174.793 45.5209 175.378 46.6265C175.963 47.7158 176.76 48.5531 177.768 49.1384C178.776 49.7237 179.914 50.0163 181.182 50.0163Z" fill="#3F3F46"/>
<path d="M200.402 51.504C198.825 51.504 197.394 51.1382 196.109 50.4065C194.825 49.6587 193.809 48.6263 193.061 47.3093C192.329 45.9762 191.964 44.4723 191.964 42.7976C191.964 41.123 192.329 39.6273 193.061 38.3103C193.809 36.9772 194.825 35.9448 196.109 35.2131C197.394 34.4653 198.825 34.0913 200.402 34.0913C201.995 34.0913 203.434 34.4653 204.718 35.2131C206.003 35.9448 207.011 36.9772 207.742 38.3103C208.474 39.6273 208.84 41.123 208.84 42.7976C208.84 44.4723 208.474 45.9762 207.742 47.3093C207.011 48.6263 206.003 49.6587 204.718 50.4065C203.434 51.1382 201.995 51.504 200.402 51.504ZM200.402 50.0163C201.67 50.0163 202.808 49.7237 203.816 49.1384C204.824 48.5531 205.621 47.7158 206.206 46.6265C206.791 45.5209 207.084 44.2446 207.084 42.7976C207.084 41.3507 206.791 40.0825 206.206 38.9932C205.621 37.9039 204.824 37.0666 203.816 36.4813C202.808 35.896 201.67 35.6033 200.402 35.6033C199.134 35.6033 197.995 35.896 196.987 36.4813C195.979 37.0666 195.183 37.9039 194.597 38.9932C194.012 40.0825 193.719 41.3507 193.719 42.7976C193.719 44.2446 194.012 45.5209 194.597 46.6265C195.183 47.7158 195.979 48.5531 196.987 49.1384C197.995 49.7237 199.134 50.0163 200.402 50.0163Z" fill="#3F3F46"/>
<path d="M222.865 39.1883C222.865 40.6515 222.385 41.8303 221.426 42.7245C220.467 43.6187 219.028 44.0658 217.109 44.0658H213.671V51.3333H211.963V34.2864H217.109C219.011 34.2864 220.442 34.7335 221.401 35.6277C222.377 36.5219 222.865 37.7088 222.865 39.1883ZM217.109 42.6025C219.776 42.6025 221.109 41.4645 221.109 39.1883C221.109 38.0502 220.792 37.1885 220.158 36.6032C219.524 36.0179 218.507 35.7253 217.109 35.7253H213.671V42.6025H217.109Z" fill="#3F3F46"/>
<path d="M230.899 51.504C229.777 51.504 228.786 51.3089 227.924 50.9187C227.078 50.5285 226.412 49.9838 225.924 49.2847C225.436 48.5856 225.176 47.8052 225.144 46.9435H226.948C227.03 47.7727 227.396 48.5043 228.046 49.1384C228.696 49.7562 229.647 50.0651 230.899 50.0651C232.054 50.0651 232.964 49.7725 233.631 49.1872C234.313 48.5856 234.655 47.8296 234.655 46.9191C234.655 46.1875 234.468 45.6022 234.094 45.1632C233.72 44.708 233.257 44.3747 232.704 44.1633C232.151 43.9357 231.387 43.6919 230.411 43.4317C229.273 43.1228 228.371 42.822 227.704 42.5294C227.038 42.2367 226.469 41.7815 225.997 41.1637C225.526 40.5459 225.29 39.7086 225.29 38.6518C225.29 37.7738 225.518 36.9934 225.973 36.3106C226.428 35.6115 227.07 35.0668 227.9 34.6766C228.729 34.2864 229.68 34.0913 230.753 34.0913C232.33 34.0913 233.598 34.4815 234.557 35.2619C235.533 36.026 236.094 37.0178 236.24 38.2372H234.387C234.273 37.5381 233.891 36.9203 233.24 36.3837C232.59 35.831 231.712 35.5546 230.607 35.5546C229.582 35.5546 228.729 35.831 228.046 36.3837C227.363 36.9203 227.022 37.66 227.022 38.603C227.022 39.3184 227.209 39.8955 227.582 40.3345C227.956 40.7735 228.42 41.1068 228.973 41.3344C229.542 41.562 230.306 41.8059 231.265 42.066C232.371 42.3749 233.265 42.6838 233.948 42.9927C234.63 43.2854 235.208 43.7406 235.679 44.3584C236.151 44.9763 236.386 45.8054 236.386 46.846C236.386 47.6426 236.175 48.3986 235.752 49.114C235.33 49.8294 234.704 50.4065 233.874 50.8455C233.045 51.2845 232.054 51.504 230.899 51.504Z" fill="#3F3F46"/>
<path d="M246.67 51.4552C246.312 51.4552 246.012 51.3333 245.768 51.0894C245.54 50.8455 245.426 50.5447 245.426 50.1871C245.426 49.8294 245.54 49.5367 245.768 49.3091C246.012 49.0652 246.312 48.9433 246.67 48.9433C247.012 48.9433 247.296 49.0652 247.524 49.3091C247.768 49.5367 247.889 49.8294 247.889 50.1871C247.889 50.5447 247.768 50.8455 247.524 51.0894C247.296 51.3333 247.012 51.4552 246.67 51.4552Z" fill="#3F3F46"/>
<path d="M251.1 51.4552C250.742 51.4552 250.441 51.3333 250.198 51.0894C249.97 50.8455 249.856 50.5447 249.856 50.1871C249.856 49.8294 249.97 49.5367 250.198 49.3091C250.441 49.0652 250.742 48.9433 251.1 48.9433C251.441 48.9433 251.726 49.0652 251.953 49.3091C252.197 49.5367 252.319 49.8294 252.319 50.1871C252.319 50.5447 252.197 50.8455 251.953 51.0894C251.726 51.3333 251.441 51.4552 251.1 51.4552Z" fill="#3F3F46"/>
<path d="M255.53 51.4552C255.172 51.4552 254.871 51.3333 254.627 51.0894C254.4 50.8455 254.286 50.5447 254.286 50.1871C254.286 49.8294 254.4 49.5367 254.627 49.3091C254.871 49.0652 255.172 48.9433 255.53 48.9433C255.871 48.9433 256.156 49.0652 256.383 49.3091C256.627 49.5367 256.749 49.8294 256.749 50.1871C256.749 50.5447 256.627 50.8455 256.383 51.0894C256.156 51.3333 255.871 51.4552 255.53 51.4552Z" fill="#3F3F46"/>
<path d="M4.26575 122.953C4.26575 122.953 1.31075 121.126 0.56175 123.559C-0.18725 125.993 -0.18725 129.549 0.56175 129.83C1.31075 130.111 5.61575 129.83 5.61575 129.83C5.61575 129.83 7.12675 124.405 4.26575 122.953Z" fill="#DC2626"/>
<path d="M77.4326 124.394C77.4326 124.394 70.7886 119.715 69.1816 127.216C69.1816 127.216 70.7376 131.385 71.5296 139.006C74.2996 139.571 77.0266 140.227 79.6926 140.956C79.6916 133.901 79.1396 127.453 77.4326 124.394Z" fill="#A39583"/>
<path d="M81.9332 170.514L77.8612 168.718C77.8612 168.718 79.6942 153.828 79.6922 140.956C77.0262 140.227 74.2992 139.571 71.5292 139.006C72.2212 145.665 72.3302 154.958 70.3062 166.418C70.3062 166.418 67.6942 173.431 70.5812 176.349C73.4672 179.266 76.0392 178.256 79.6822 179.715C83.3262 181.174 89.4342 181.51 91.8982 177.359C94.3642 173.206 89.3272 166.137 81.9332 170.514Z" fill="#C9BFB1"/>
<path d="M37.1416 119.663C37.1416 119.663 30.4966 114.75 28.8906 122.626C28.8906 122.626 30.9146 128.33 31.5196 138.611C34.1056 138.022 36.7376 137.573 39.4016 137.26C39.4106 129.773 38.8646 122.905 37.1416 119.663Z" fill="#A39583"/>
<path d="M41.6427 168.086L37.5707 166.201C37.5707 166.201 39.3847 150.727 39.4027 137.261C36.7387 137.573 34.1067 138.023 31.5207 138.612C31.9087 145.214 31.7137 153.697 30.0167 163.787C30.0167 163.787 27.4057 171.15 30.2917 174.214C33.1777 177.278 35.7497 176.217 39.3937 177.748C43.0377 179.28 49.1457 179.633 51.6097 175.274C54.0727 170.914 49.0367 163.491 41.6427 168.086Z" fill="#C9BFB1"/>
<path d="M66.537 45.2291C69.345 40.1751 70.468 33.9991 68.222 28.3841C68.056 28.0191 67.871 27.6841 67.672 27.3721C56.35 31.2921 39.571 41.7451 31.248 69.5801C45.406 65.9311 58.288 58.6351 66.537 45.2291Z" fill="#A39583"/>
<path d="M83.6582 20.6221C83.6672 21.3011 83.8082 21.9001 83.8082 21.9001C83.8082 21.9001 83.7662 21.4111 83.6582 20.6221Z" fill="#E28E33"/>
<path d="M88.3644 29.2781C88.3644 29.2781 94.9014 29.8111 94.0974 27.0341C93.2934 24.2571 90.7214 25.0141 90.7214 25.0141C90.7214 25.0141 97.4724 19.6281 93.4534 17.2711C89.4354 14.9151 86.8634 22.2361 86.8634 22.2361C86.8634 22.2361 87.1844 18.8701 85.0954 18.7011C83.8864 18.6031 83.6474 19.6881 83.6594 20.6211C83.7674 21.4101 83.8094 21.8991 83.8094 21.8991C83.8094 21.8991 83.6684 21.3001 83.6594 20.6211C83.1924 17.1971 81.4904 8.13307 76.6564 9.02307C70.7094 10.1171 79.4694 22.9931 79.4694 22.9931C79.4694 22.9931 77.7014 21.5621 77.0584 23.0771C76.4154 24.5921 79.1484 25.0131 79.1484 25.0131C79.1484 25.0131 74.3634 25.0541 67.6724 27.3701C67.8724 27.6821 68.0564 28.0181 68.2224 28.3821C70.4684 33.9971 69.3454 40.1731 66.5374 45.2271C58.2884 58.6331 45.4064 65.9291 31.2474 69.5781C29.7824 74.4771 28.5754 79.9071 27.7104 85.9431C27.7104 85.9431 23.5024 120.298 24.4954 121.963C26.5344 125.378 49.5114 129.606 75.1724 128.659C77.5634 128.571 79.6654 126.973 80.4804 124.618L92.7324 92.8951C96.8104 82.3351 99.1044 71.0951 99.3094 59.7061C99.5304 47.5091 97.4724 34.1031 88.3644 29.2781Z" fill="#C9BFB1"/>
<path d="M45.0865 71.2878C44.0805 69.2938 41.8025 67.6048 36.7825 68.3408C29.6915 69.3808 23.9245 79.1058 20.8535 85.5088C30.2845 82.6048 38.9735 78.0908 45.0865 71.2878Z" fill="#C9BFB1"/>
<path d="M23.3008 91.8336C27.2388 84.9426 35.0598 79.7786 43.7378 79.7436C44.4418 79.1126 45.2038 78.0316 45.7408 76.1566C45.7408 76.1566 46.2178 73.5306 45.0868 71.2876C38.9738 78.0916 30.2838 82.6056 20.8538 85.5086C19.3068 88.7336 18.4418 91.1196 18.4418 91.1196C18.4418 91.1196 14.6028 90.6726 13.7498 95.5856C13.7498 95.5856 13.3228 98.0426 14.8158 98.9356C14.8158 98.9356 0.0998012 120.375 3.2988 128.861C3.2988 128.861 2.7298 131.466 5.2178 132.36C5.2178 132.36 6.8528 135.933 9.2698 134.667C9.2698 134.667 7.2798 139.58 9.8388 140.548C12.3988 141.516 15.2418 141.144 16.2368 136.975C16.4898 135.916 17.0058 132.302 17.9538 127.365C15.7038 115.439 16.5598 102.937 23.3008 91.8336Z" fill="#C9BFB1"/>
<path d="M23.3014 91.8336C16.5604 102.937 15.7044 115.439 17.9554 127.364C20.7404 112.87 27.2664 86.9527 41.9024 80.6227C41.9024 80.6227 42.7644 80.6167 43.7384 79.7437C35.0604 79.7787 27.2394 84.9426 23.3014 91.8336Z" fill="#A39583"/>
<path d="M30.7285 71.3548C30.7285 71.3548 39.6415 64.4278 45.0885 71.2868C45.0885 71.2868 41.4525 66.5288 30.7285 71.3548Z" fill="#A39583"/>
<path d="M76.6562 9.024C76.6562 9.024 82.2603 6.67001 83.7343 21.492C83.7343 21.492 82.8062 18.355 85.0952 18.702C87.3842 19.049 86.8633 22.237 86.8633 22.237C86.8633 22.237 88.4473 15.435 92.9693 17.031C97.4913 18.628 92.1633 23.96 90.7213 25.014C90.7213 25.014 93.8392 24.465 94.1562 27.371C94.1562 27.371 92.4033 24.523 89.9113 25.786C89.9113 25.786 95.5532 18.974 92.4382 18.346C89.3232 17.718 86.7173 23.681 86.7173 23.681C86.7173 23.681 86.2693 19.591 84.9283 20.172C83.5863 20.753 83.8092 23.576 83.8092 23.576C83.8092 23.576 81.1943 9.563 76.6562 9.024Z" fill="#EBE6DB"/>
<path d="M21.8854 128.8C19.1824 125.615 15.2154 125.901 15.2154 125.901C13.6704 130.208 13.9514 133.807 13.9514 133.807C13.9514 133.807 -1.34963 162.444 6.51137 158.233C12.5054 155.022 19.2834 157.279 22.1664 158.532C22.6164 158.728 23.1004 158.596 23.4034 158.276C18.2214 149.032 16.7364 137.996 21.8854 128.8Z" fill="#B91C1C"/>
<path d="M24.3393 136.755C24.2923 132.894 23.2493 130.407 21.8853 128.8C16.7363 137.996 18.2213 149.032 23.4033 158.276C23.5693 158.1 23.6843 157.868 23.7023 157.598C23.9413 154.139 24.4473 145.613 24.3393 136.755Z" fill="#EF4444"/>
<path d="M71.9245 59.2443C71.1505 61.0913 71.0705 62.8272 71.7445 63.1222C72.4195 63.4172 73.5945 62.1603 74.3685 60.3133C75.1425 58.4663 75.2225 56.7293 74.5475 56.4343C73.8735 56.1403 72.6985 57.3973 71.9245 59.2443Z" fill="#160E0B"/>
<path d="M87.3503 62.9632C86.7183 64.8632 86.7703 66.6012 87.4653 66.8442C88.1613 67.0882 89.2363 65.7452 89.8693 63.8452C90.5013 61.9452 90.4503 60.2072 89.7543 59.9642C89.0583 59.7202 87.9823 61.0632 87.3503 62.9632Z" fill="#160E0B"/>
<path d="M83.9112 51.7318C83.2792 53.6318 83.3302 55.3698 84.0262 55.6128C84.7222 55.8568 85.7972 54.5138 86.4302 52.6138C87.0622 50.7138 87.0112 48.9758 86.3152 48.7318C85.6192 48.4898 84.5432 49.8328 83.9112 51.7318Z" fill="#160E0B"/>
<path d="M78.8131 79.0291C77.0471 77.4431 74.7211 76.5911 72.3551 76.7721C72.3181 76.7751 72.2801 76.7781 72.2431 76.7811C68.4981 77.0881 67.3481 71.3931 72.3171 70.2201C77.2871 69.0471 83.0821 71.7371 84.5481 75.7551C85.8321 79.2701 82.2481 82.1161 78.8131 79.0291Z" fill="#181818"/>
<mask id="mask0_127_18661" style="mask-type:luminance" maskUnits="userSpaceOnUse" x="69" y="69" width="16" height="12">
<path d="M78.8131 79.0291C77.0471 77.4431 74.7211 76.5911 72.3551 76.7721C72.3181 76.7751 72.2801 76.7781 72.2431 76.7811C68.4981 77.0881 67.3481 71.3931 72.3171 70.2201C77.2871 69.0471 83.0821 71.7371 84.5481 75.7551C85.8321 79.2701 82.2481 82.1161 78.8131 79.0291Z" fill="white"/>
</mask>
<g mask="url(#mask0_127_18661)">
<path d="M82.4254 80.483C81.7584 82.193 78.4854 82.511 75.1154 81.195C71.7454 79.879 69.5534 77.427 70.2214 75.718C70.8884 74.009 74.1614 73.69 77.5324 75.006C80.9014 76.322 83.0924 78.774 82.4254 80.483Z" fill="#EF4444"/>
</g>
<path d="M103.067 91.3051C106.982 74.9241 95.9859 68.1641 95.9859 68.1641L94.7989 71.5871L89.5309 86.7861C87.6879 97.6261 81.1639 91.9471 81.1639 91.9471C80.6309 90.2721 79.9909 91.9471 79.9909 91.9471C79.9909 91.9471 79.9909 85.3591 79.9909 81.0601C79.9909 76.7611 78.9249 74.9741 76.8989 76.0911C74.8729 77.2081 75.5129 86.0291 75.5129 86.0291C74.0729 83.8521 72.8999 86.0851 72.8999 86.0851C72.8999 86.0851 72.4739 85.1361 71.4609 85.2481C70.4479 85.3601 70.3949 86.4771 70.3949 86.4771C70.0749 85.9181 68.6889 84.1321 67.4089 86.4771C66.1289 88.8221 69.6479 101.551 75.4169 105.348C76.5599 106.1 78.1759 106.656 80.0599 106.94C89.5619 104.802 98.0889 99.7081 103.067 91.3051Z" fill="#C9BFB1"/>
<path d="M80.0586 106.939C86.0356 107.84 94.7356 105.983 99.7916 98.7702C101.192 96.7732 102.319 94.3752 103.023 91.5012C103.04 91.4342 103.051 91.3712 103.066 91.3042C98.0886 99.7082 89.5616 104.802 80.0586 106.939Z" fill="#C9BFB1"/>
<path d="M90.8937 94.0801C90.8937 94.0801 85.2077 95.9821 79.9907 91.9481C79.9907 91.9481 81.8757 75.7061 77.8567 75.7741C77.8567 75.7741 74.3977 75.0041 75.4747 85.3901C75.4747 85.3901 73.8557 84.3521 72.8987 86.0861C72.8987 86.0861 71.1697 84.0951 70.4157 86.3091C70.4157 86.3091 67.9627 84.0661 67.1447 86.8731C67.1447 86.8731 64.0117 103.329 81.6637 107.156C81.6637 107.156 67.0297 103.614 67.5907 87.2601C67.5907 87.2601 67.7307 86.2781 68.7837 86.2251C69.8367 86.1721 70.4327 87.4011 70.4327 87.4011C70.4327 87.4011 70.7837 85.7861 71.5907 85.9801C72.3977 86.1731 72.9597 87.2961 72.9597 87.2961C72.9597 87.2961 73.2407 85.4711 74.4517 85.7701C75.6617 86.0681 75.6977 87.4721 75.6977 87.4721C75.6977 87.4721 75.0667 75.7861 77.7337 76.2071C80.4007 76.6281 79.5937 92.8421 79.5937 92.8421C79.5937 92.8421 85.6997 97.9401 90.8937 94.0801Z" fill="#A39583"/>
<path d="M98.3818 71.2881C98.3818 71.2881 96.2968 83.4121 91.3828 94.0801C91.3828 94.0801 98.2208 83.1691 98.3818 71.2881Z" fill="#A39583"/>
<path d="M23.7236 158.027C23.7236 161.549 19.3686 164.406 13.9946 164.406C8.62063 164.406 4.26562 161.549 4.26562 158.027C4.26562 154.504 8.62063 151.648 13.9946 151.648C19.3686 151.649 23.7236 154.504 23.7236 158.027Z" fill="#991B1B"/>
<path d="M12.2578 158.271V171.474L15.2778 158.711C15.3868 158.248 15.1738 157.767 14.7528 157.546C14.3488 157.335 13.7938 157.151 13.1588 157.233C12.6428 157.301 12.2578 157.751 12.2578 158.271Z" fill="#EAC71B"/>
<path d="M14.9257 169.533C14.9257 170.89 13.8257 171.989 12.4687 171.989C11.1127 171.989 10.0117 170.889 10.0117 169.533C10.0117 168.176 11.1117 167.076 12.4687 167.076C13.8267 167.076 14.9257 168.176 14.9257 169.533Z" fill="#EAC71B"/>
<path d="M321.096 54.2488C318.459 52.2768 315.259 50.6978 311.409 50.0438C303.572 48.7128 298.22 51.3578 294.922 54.1328C303.64 54.9508 312.394 55.1048 321.096 54.2488Z" fill="#C9BFB1"/>
<path d="M321.095 54.2493C312.393 55.1063 303.639 54.9523 294.921 54.1343C292.003 56.5903 290.693 59.1493 290.693 59.1493C290.693 59.1493 283.632 64.0263 283.912 66.1633C284.19 68.3003 285.491 67.5573 285.491 67.5573C285.491 69.6473 286.605 69.2293 286.605 69.2293C286.605 69.2293 284.98 77.4503 287.209 77.5433C289.439 77.6363 291.088 70.9123 291.088 70.9123C291.088 70.9123 291.001 72.5843 293.684 72.0793C296.366 71.5743 296.082 65.4663 296.082 65.4663C298.869 57.5703 307.044 58.5453 307.044 58.5453C314.681 59.2123 320.437 66.1103 324.503 73.6913C326.009 69.3453 326.968 64.8233 327.013 60.3193C325.488 58.2323 323.532 56.0723 321.095 54.2493Z" fill="#C9BFB1"/>
<path d="M331.475 68.6228C331.475 68.6228 330.159 64.6328 327.012 60.3188C326.967 64.8218 326.008 69.3438 324.502 73.6908C329.785 83.5398 332.218 94.5418 332.218 94.5418C333.518 78.5628 331.475 68.6228 331.475 68.6228Z" fill="#A39583"/>
<path d="M390.008 67.2319C390.008 67.2319 386.85 75.3519 390.751 85.1989C390.751 85.1989 392.019 85.3599 393.749 86.2159C394.619 80.8649 395.976 75.6069 397.755 70.4459C395.524 69.0789 392.961 67.9789 390.008 67.2319Z" fill="#A39583"/>
<path d="M400.885 72.7261C402.926 84.0271 406.226 95.6591 411.712 106.079C412.137 95.5131 410.626 81.0461 400.885 72.7261Z" fill="#C9BFB1"/>
<path d="M400.884 72.7258C399.922 71.9038 398.884 71.1378 397.754 70.4458C395.975 75.6068 394.618 80.8648 393.748 86.2158C398.475 88.5548 406.658 96.0898 401.897 119.756C401.897 119.756 397.042 123.472 397.043 126.398C397.044 129.324 398.646 130.09 398.646 130.09C398.646 130.09 397.391 133.016 399.9 133.016C402.408 133.016 404.499 133.574 405.195 133.922C405.891 134.27 407.703 133.434 408.678 133.922C409.654 134.409 411.952 134.409 412.789 133.643C413.625 132.877 413.067 122.286 410.141 119.081C410.141 119.081 411.41 113.558 411.71 106.078C406.225 95.6588 402.925 84.0268 400.884 72.7258Z" fill="#C9BFB1"/>
<path d="M348.31 165.77C348.31 165.77 347.121 163.802 345.977 165.038C345.977 165.038 337.605 159.595 333.625 168.652C329.645 177.709 347.486 178.121 351.878 173.867C356.27 169.612 357.642 169.475 357.642 169.475C357.642 169.475 359.426 166.593 357.642 165.358C356.322 164.444 352.745 150.968 351.978 136.57C349.505 136.834 347.05 137.189 344.622 137.665L348.31 165.77Z" fill="#C9BFB1"/>
<path d="M352.426 121.581C352.426 121.581 344.329 114.445 342.133 118.699L344.621 137.665C347.05 137.189 349.504 136.834 351.976 136.57C351.708 131.52 351.784 126.356 352.426 121.581Z" fill="#A39583"/>
<path d="M379.406 161.619C379.406 161.619 380.596 159.652 381.739 160.888C381.739 160.888 390.11 155.445 394.091 164.502C398.07 173.559 380.23 173.971 375.839 169.717C371.447 165.462 370.074 165.325 370.074 165.325C370.074 165.325 368.29 162.443 370.074 161.208C371.395 160.294 374.971 146.818 375.738 132.419C378.212 132.683 380.665 133.039 383.093 133.514L379.406 161.619Z" fill="#C9BFB1"/>
<path d="M375.289 117.43C375.289 117.43 383.387 110.294 385.582 114.548L383.094 133.514C380.665 133.038 378.212 132.682 375.739 132.419C376.007 127.369 375.931 122.206 375.289 117.43Z" fill="#A39583"/>
<path d="M352.949 17.9438C353.059 18.2148 353.165 18.3738 353.165 18.3738C353.165 18.3738 353.091 18.2188 352.949 17.9438Z" fill="#E28E33"/>
<path d="M385.354 56.7563C387.533 58.0973 389.759 59.2963 392.03 60.3743C390.173 46.4163 385.928 33.1583 377.254 25.3563C375.622 23.8893 373.829 22.6223 371.871 21.5723C367.622 33.4683 374.599 50.3033 385.354 56.7563Z" fill="#A39583"/>
<path d="M385.355 56.7561C374.599 50.3021 367.623 33.4681 371.872 21.5721C370.332 20.7451 368.691 20.0491 366.933 19.5161C366.933 19.5161 380.611 6.4331 372.651 0.944102C364.691 -4.5449 359.751 17.0001 359.751 17.0001C359.751 17.0001 357.281 11.5111 354.399 13.7061C352.245 15.3471 352.621 17.1401 352.948 17.9421C353.09 18.2171 353.164 18.3721 353.164 18.3721C353.164 18.3721 353.059 18.2131 352.948 17.9421C351.57 15.2511 343.843 0.939099 337.245 4.9231C329.972 9.3141 347.262 22.3521 347.262 22.3521C347.262 22.3521 342.919 25.4941 338.475 33.5541C331.331 46.5081 323.926 72.1691 333.867 117.921C345.352 120.416 357.498 120.318 369.645 117.619C379.436 115.443 387.079 109.277 392.315 101.286C393.297 90.5751 393.99 75.0851 392.031 60.3741C389.761 59.2961 387.534 58.0971 385.355 56.7561Z" fill="#C9BFB1"/>
<path d="M369.647 117.62C357.5 120.319 345.354 120.417 333.869 117.922C334.198 119.437 334.546 120.974 334.914 122.534C334.914 122.534 342.874 124.181 363.87 122.534C384.867 120.888 390.631 114.986 390.631 114.986C390.631 114.986 391.559 109.562 392.317 101.286C387.08 109.278 379.438 115.444 369.647 117.62Z" fill="#7C6D56"/>
<path d="M358.87 44.4731C358.938 46.1911 359.506 47.5721 360.137 47.5571C360.77 47.5421 361.228 46.1371 361.16 44.4191C361.093 42.7011 360.524 41.3201 359.891 41.3351C359.261 41.3511 358.803 42.7551 358.87 44.4731Z" fill="#181818"/>
<path d="M349.79 56.415C349.857 58.133 350.426 59.514 351.058 59.499C351.691 59.484 352.149 58.079 352.081 56.361C352.013 54.643 351.445 53.262 350.813 53.277C350.181 53.292 349.723 54.697 349.79 56.415Z" fill="#181818"/>
<path d="M369.563 53.277C368.931 53.292 368.473 54.697 368.54 56.415C368.607 58.133 369.176 59.514 369.808 59.499C370.441 59.484 370.899 58.079 370.83 56.361C370.763 54.643 370.195 53.262 369.563 53.277Z" fill="#181818"/>
<path d="M352.428 68.4929C352.428 68.4929 359.761 63.4319 369.686 67.4079C369.686 67.4079 360.28 61.6239 352.428 68.4929Z" fill="#625136"/>
<path d="M350.936 67.1968C350.936 67.1968 353.213 67.3978 353.053 70.3708C353.053 70.3708 352.675 68.3218 350.936 67.1968Z" fill="#625136"/>
<path d="M369.284 69.5778C369.284 69.5778 369.661 67.5288 371.401 66.4038C371.401 66.4038 369.123 66.6038 369.284 69.5778Z" fill="#625136"/>
<path d="M357.752 69.5779C357.752 69.5779 360.967 68.3029 364.583 69.5779C364.583 69.5779 361.127 67.2569 357.752 69.5779Z" fill="#625136"/>
<path d="M337.246 4.92488C337.246 4.92488 344.278 -0.718128 353.165 18.3739C353.165 18.3739 346.068 5.04888 337.246 4.92488Z" fill="#EBE6DB"/>
<path d="M374.172 9.63304C376.026 6.25304 375.491 -0.984962 369.406 0.112038C363.322 1.21004 359.751 17.001 359.751 17.001C357.271 12.478 355.543 12.304 353.678 14.358C351.813 16.413 353.164 18.373 353.164 18.373C353.136 15.794 355.061 15.045 355.061 15.045C358.809 14.716 360.184 21.373 360.184 21.373C360.184 21.373 364.162 3.05204 369.525 1.78604C374.889 0.521042 374.172 9.63304 374.172 9.63304Z" fill="#EBE6DB"/>
</svg>
