<svg width="419" height="419" viewBox="0 0 419 419" fill="none" xmlns="http://www.w3.org/2000/svg">
<path d="M32.5895 224.249C32.5895 224.249 35.6398 286.747 88.4255 326.87C141.211 366.985 213.447 367.781 271.956 369.96C330.465 372.147 374.804 337.613 380.737 287.275C386.67 236.936 341.77 223.578 316.596 167.239C291.423 110.909 293.266 92.0793 241.419 58.5425C189.572 24.9974 109.736 48.9893 68.6822 110.398C27.6369 171.815 32.5895 224.249 32.5895 224.249Z" fill="#EBE6DB"/>
<path opacity="0.7" d="M32.5895 224.249C32.5895 224.249 35.6398 286.747 88.4255 326.87C141.211 366.985 213.447 367.781 271.956 369.96C330.465 372.147 374.804 337.613 380.737 287.275C386.67 236.936 341.77 223.578 316.596 167.239C291.423 110.909 293.266 92.0793 241.419 58.5425C189.572 24.9974 109.736 48.9893 68.6822 110.398C27.6369 171.815 32.5895 224.249 32.5895 224.249Z" fill="#EBE6DB"/>
<path d="M352.573 312.457C352.573 312.457 349.724 300.339 351.861 289.646C353.998 278.953 358.984 286.085 364.691 278.953C370.398 271.822 367.54 258.288 373.959 252.582C380.37 246.883 389.638 247.596 391.775 236.903C393.912 226.21 395.337 217.662 399.619 219.087C403.893 220.511 396.057 233.341 396.057 241.176C396.057 249.012 400.331 254.006 397.482 261.842C394.633 269.685 382.515 266.828 382.515 276.096C382.515 285.364 387.501 294.624 383.227 301.043C378.954 307.454 367.548 308.887 366.124 312.448C364.699 316.01 361.138 322.429 357.568 322.429C353.998 322.437 352.573 312.457 352.573 312.457Z" fill="#E3F1FF"/>
<path d="M350.251 312.583C350.964 310.446 349.539 291.917 343.128 288.348C336.718 284.786 329.586 286.211 326.025 279.792C322.463 273.381 322.463 270.523 318.902 269.811C315.34 269.099 298.237 266.25 300.374 269.811C302.51 273.373 315.34 267.674 315.34 274.797C315.34 281.92 313.916 293.325 318.189 296.174C322.463 299.024 333.868 298.311 333.156 304.73C332.444 311.141 330.307 313.286 333.868 315.423C337.43 317.56 347.41 326.829 348.835 319.697C350.251 312.583 350.251 312.583 350.251 312.583Z" fill="#E3F1FF"/>
<path d="M358.188 328.303C358.188 328.303 354.869 317.929 363.995 298.839C373.129 279.749 379.766 265.227 383.915 257.752" stroke="#354969" stroke-width="1.2565" stroke-miterlimit="10"/>
<path d="M350.712 329.963C350.712 329.963 349.463 324.985 345.315 311.284C341.167 297.591 336.181 293.853 329.133 289.286C322.077 284.719 321.667 277.253 320.418 275.174" stroke="#354969" stroke-width="1.2565" stroke-miterlimit="10"/>
<path d="M368.143 322.488C368.143 322.488 368.972 315.021 375.609 312.943C382.246 310.865 388.472 311.694 389.721 307.136C390.97 302.569 390.97 298.001 393.869 295.513C396.777 293.024 400.506 291.775 400.925 293.024C401.344 294.272 396.777 295.102 396.777 299.25C396.777 303.398 403.003 313.773 393.869 317.929C384.735 322.077 377.268 318.348 373.95 321.248C370.631 324.155 368.553 326.225 368.553 326.225L368.143 322.488Z" fill="#E3F1FF"/>
<path d="M367.312 329.963C367.312 329.963 370.22 319.169 377.276 316.68C384.332 314.191 392.218 319.588 395.536 314.602C398.855 309.624 396.366 304.638 395.955 301.32" stroke="#354969" stroke-width="1.2565" stroke-miterlimit="10"/>
<path d="M371.981 328.303H346.246C345.098 328.303 344.168 329.233 344.168 330.381C344.168 331.53 345.098 332.46 346.246 332.46H346.456L348.459 337.714C348.777 338.552 349.573 339.097 350.47 339.097H367.758C368.654 339.097 369.45 338.544 369.769 337.714L371.772 332.46H371.981C373.129 332.46 374.059 331.53 374.059 330.381C374.059 329.225 373.129 328.303 371.981 328.303Z" fill="#354969"/>
<path d="M380.627 233.618H257.542C255.355 233.618 253.578 231.841 253.578 229.654V214.093C253.578 211.905 255.355 210.129 257.542 210.129H380.627C382.814 210.129 384.591 211.905 384.591 214.093V229.654C384.591 231.841 382.823 233.618 380.627 233.618Z" fill="#C9BFB1"/>
<path d="M263.692 225.096C263.575 224.987 263.508 224.845 263.508 224.66V217.034C263.508 216.85 263.566 216.699 263.692 216.599C263.818 216.49 263.969 216.439 264.136 216.439C264.304 216.439 264.446 216.49 264.572 216.599C264.689 216.708 264.756 216.85 264.756 217.043V224.669C264.756 224.861 264.698 225.004 264.572 225.104C264.446 225.205 264.304 225.255 264.128 225.255C263.96 225.255 263.818 225.205 263.692 225.096Z" fill="#27272A"/>
<path d="M267.103 225.121C266.994 225.029 266.943 224.894 266.943 224.727V219.657C266.943 219.489 267.002 219.364 267.111 219.271C267.22 219.179 267.354 219.129 267.505 219.129C267.656 219.129 267.79 219.171 267.899 219.263C268.008 219.355 268.066 219.473 268.066 219.64V220.177C268.226 219.799 268.477 219.515 268.837 219.313C269.189 219.112 269.608 219.012 270.077 219.012C270.756 219.012 271.301 219.213 271.703 219.607C272.105 220.001 272.307 220.604 272.307 221.4V224.735C272.307 224.903 272.256 225.037 272.139 225.129C272.03 225.221 271.896 225.272 271.745 225.272C271.594 225.272 271.46 225.221 271.351 225.129C271.242 225.037 271.184 224.903 271.184 224.735V221.392C271.184 220.864 271.058 220.461 270.815 220.185C270.572 219.908 270.228 219.774 269.784 219.774C269.315 219.774 268.913 219.942 268.586 220.277C268.259 220.612 268.083 221.073 268.058 221.651V224.727C268.058 224.894 267.999 225.02 267.89 225.112C267.781 225.205 267.647 225.255 267.496 225.255C267.337 225.263 267.203 225.213 267.103 225.121Z" fill="#27272A"/>
<path d="M274.963 224.886C274.687 224.576 274.544 224.107 274.544 223.47V219.917H273.79C273.656 219.917 273.547 219.884 273.48 219.817C273.405 219.75 273.371 219.666 273.371 219.548C273.371 219.439 273.405 219.356 273.48 219.289C273.547 219.222 273.656 219.188 273.79 219.188H274.553L274.704 217.437C274.712 217.303 274.771 217.194 274.879 217.101C274.988 217.009 275.106 216.959 275.24 216.959C275.366 216.959 275.466 217.001 275.55 217.076C275.634 217.152 275.676 217.261 275.676 217.403V219.196H276.807C276.941 219.196 277.042 219.23 277.109 219.305C277.176 219.372 277.209 219.465 277.209 219.574C277.209 219.808 277.075 219.926 276.799 219.926H275.667V223.286C275.667 223.713 275.726 224.015 275.843 224.199C275.961 224.384 276.153 224.476 276.413 224.476H276.48L276.899 224.459H276.933C277.067 224.459 277.176 224.501 277.251 224.585C277.326 224.669 277.368 224.769 277.368 224.886C277.368 224.987 277.343 225.071 277.301 225.138C277.259 225.205 277.184 225.247 277.092 225.28C277 225.305 276.907 225.331 276.815 225.339C276.723 225.347 276.606 225.347 276.455 225.347H276.095C275.625 225.347 275.248 225.197 274.963 224.886Z" fill="#27272A"/>
<path d="M279.783 224.995C279.33 224.744 278.961 224.375 278.693 223.889C278.425 223.403 278.291 222.833 278.291 222.179C278.291 221.61 278.408 221.082 278.626 220.612C278.852 220.143 279.196 219.758 279.649 219.456C280.101 219.163 280.637 219.012 281.249 219.012C281.727 219.012 282.154 219.096 282.515 219.255C282.875 219.414 283.168 219.64 283.378 219.917C283.596 220.202 283.755 220.512 283.855 220.864C283.964 221.207 284.023 221.593 284.031 222.012C284.031 222.129 283.998 222.23 283.931 222.305C283.864 222.38 283.763 222.422 283.637 222.422H279.406C279.414 223.126 279.607 223.663 279.975 224.031C280.344 224.392 280.822 224.584 281.4 224.593C281.769 224.593 282.096 224.526 282.389 224.392C282.682 224.258 282.975 224.082 283.269 223.855C283.344 223.797 283.42 223.772 283.503 223.772C283.604 223.772 283.688 223.813 283.755 223.889C283.822 223.964 283.855 224.056 283.855 224.157C283.855 224.291 283.797 224.408 283.679 224.509C283.026 225.096 282.246 225.389 281.325 225.389C280.755 225.372 280.235 225.238 279.783 224.995ZM283.059 221.735C283.026 221.157 282.858 220.688 282.573 220.319C282.288 219.95 281.861 219.766 281.308 219.766C281.023 219.766 280.755 219.825 280.52 219.934C280.285 220.042 280.093 220.193 279.942 220.378C279.791 220.562 279.674 220.772 279.582 220.998C279.489 221.224 279.439 221.467 279.414 221.727H283.059V221.735Z" fill="#27272A"/>
<path d="M285.739 225.129C285.63 225.037 285.58 224.911 285.58 224.744V219.657C285.58 219.49 285.639 219.364 285.748 219.28C285.857 219.188 285.991 219.146 286.142 219.146C286.292 219.146 286.426 219.188 286.535 219.28C286.644 219.372 286.703 219.49 286.703 219.649L286.695 220.386C286.795 220.001 287.005 219.682 287.315 219.431C287.625 219.171 288.002 219.045 288.438 219.045C288.572 219.045 288.672 219.096 288.748 219.196C288.823 219.297 288.865 219.414 288.865 219.54C288.865 219.666 288.831 219.766 288.756 219.858C288.689 219.95 288.588 219.992 288.454 219.992C287.901 219.992 287.466 220.135 287.164 220.428C286.854 220.713 286.703 221.099 286.703 221.585V224.761C286.703 224.928 286.644 225.054 286.535 225.146C286.418 225.238 286.292 225.28 286.133 225.28C285.982 225.263 285.848 225.221 285.739 225.129Z" fill="#27272A"/>
<path d="M290.224 225.121C290.115 225.029 290.064 224.894 290.064 224.727V219.657C290.064 219.489 290.123 219.364 290.232 219.271C290.341 219.179 290.475 219.129 290.626 219.129C290.777 219.129 290.911 219.171 291.02 219.263C291.129 219.355 291.187 219.473 291.187 219.64V220.177C291.347 219.799 291.598 219.515 291.958 219.313C292.31 219.112 292.729 219.012 293.199 219.012C293.877 219.012 294.422 219.213 294.824 219.607C295.227 220.001 295.428 220.604 295.428 221.4V224.735C295.428 224.903 295.369 225.037 295.26 225.129C295.151 225.221 295.017 225.272 294.866 225.272C294.715 225.272 294.581 225.221 294.472 225.129C294.363 225.037 294.305 224.903 294.305 224.735V221.392C294.305 220.864 294.179 220.461 293.936 220.185C293.693 219.908 293.349 219.774 292.905 219.774C292.436 219.774 292.034 219.942 291.707 220.277C291.38 220.612 291.204 221.073 291.179 221.651V224.727C291.179 224.894 291.12 225.02 291.011 225.112C290.894 225.205 290.768 225.255 290.618 225.255C290.458 225.263 290.333 225.213 290.224 225.121Z" fill="#27272A"/>
<path d="M297.312 224.912C296.91 224.602 296.709 224.166 296.709 223.596C296.709 223.361 296.734 223.152 296.784 222.976C296.835 222.8 296.902 222.641 296.994 222.507C297.086 222.373 297.212 222.264 297.379 222.171C297.547 222.079 297.723 222.004 297.924 221.945C298.125 221.886 298.377 221.836 298.678 221.811C298.98 221.778 299.298 221.761 299.617 221.744C299.944 221.736 300.329 221.727 300.79 221.727V221.057C300.79 220.613 300.673 220.294 300.438 220.085C300.203 219.875 299.877 219.766 299.458 219.766C299.206 219.766 298.955 219.791 298.703 219.85C298.452 219.9 298.251 219.959 298.108 220.009C297.966 220.06 297.79 220.135 297.58 220.236C297.539 220.252 297.488 220.269 297.43 220.269C297.321 220.269 297.229 220.227 297.153 220.135C297.078 220.043 297.036 219.951 297.036 219.842C297.036 219.716 297.094 219.624 297.212 219.557C297.849 219.197 298.611 219.021 299.491 219.021C300.245 219.021 300.832 219.196 301.259 219.548C301.687 219.9 301.896 220.437 301.896 221.166V224.761C301.896 224.92 301.838 225.046 301.729 225.138C301.62 225.23 301.486 225.28 301.335 225.28C301.184 225.28 301.058 225.238 300.958 225.146C300.849 225.054 300.798 224.937 300.798 224.769V224.174C300.413 224.979 299.784 225.381 298.896 225.381C298.243 225.373 297.715 225.222 297.312 224.912ZM300.245 224.049C300.597 223.655 300.782 223.16 300.782 222.557V222.373C300.27 222.373 299.86 222.381 299.533 222.398C299.215 222.414 298.93 222.448 298.678 222.498C298.435 222.549 298.243 222.616 298.125 222.708C298 222.8 297.907 222.909 297.849 223.043C297.79 223.177 297.756 223.345 297.756 223.546C297.756 223.923 297.865 224.191 298.092 224.367C298.318 224.543 298.62 224.627 298.997 224.627C299.474 224.635 299.893 224.434 300.245 224.049Z" fill="#27272A"/>
<path d="M303.933 225.121C303.824 225.02 303.773 224.886 303.773 224.702V217.009C303.773 216.833 303.832 216.699 303.941 216.599C304.05 216.498 304.184 216.448 304.335 216.448C304.486 216.448 304.611 216.498 304.72 216.599C304.829 216.699 304.888 216.833 304.888 217.009V224.702C304.888 224.878 304.829 225.012 304.72 225.113C304.603 225.213 304.477 225.264 304.327 225.264C304.167 225.264 304.042 225.213 303.933 225.121Z" fill="#27272A"/>
<path d="M310.31 224.333C310.26 224.291 310.234 224.224 310.234 224.149C310.234 224.015 310.293 223.881 310.419 223.738C310.544 223.596 310.67 223.529 310.796 223.529C310.855 223.529 310.905 223.545 310.947 223.579C311.642 224.124 312.455 224.392 313.377 224.392C313.98 224.392 314.466 224.275 314.852 224.032C315.229 223.797 315.422 223.445 315.422 222.992C315.422 222.775 315.396 222.59 315.338 222.431C315.279 222.28 315.187 222.146 315.061 222.029C314.936 221.911 314.785 221.819 314.617 221.735C314.45 221.66 314.24 221.576 313.972 221.484L312.204 220.889C311.55 220.663 311.064 220.386 310.746 220.051C310.427 219.716 310.268 219.247 310.268 218.66C310.268 218.182 310.41 217.763 310.687 217.403C310.963 217.043 311.341 216.766 311.81 216.582C312.279 216.397 312.815 216.305 313.402 216.305C313.98 216.305 314.533 216.397 315.061 216.582C315.589 216.766 315.991 216.984 316.276 217.235C316.369 217.319 316.419 217.42 316.419 217.545C316.419 217.671 316.369 217.788 316.276 217.889C316.184 217.99 316.067 218.04 315.941 218.04C315.849 218.04 315.757 218.015 315.673 217.956C315.422 217.788 315.103 217.638 314.726 217.504C314.349 217.369 313.938 217.294 313.511 217.294C312.891 217.294 312.396 217.403 312.028 217.629C311.659 217.855 311.475 218.182 311.475 218.61C311.475 218.928 311.567 219.188 311.76 219.381C311.952 219.573 312.254 219.741 312.673 219.875L314.45 220.445C314.81 220.562 315.112 220.68 315.363 220.805C315.614 220.931 315.841 221.09 316.042 221.275C316.243 221.459 316.394 221.677 316.494 221.928C316.595 222.18 316.645 222.481 316.645 222.808C316.645 223.613 316.352 224.241 315.757 224.694C315.162 225.146 314.357 225.364 313.335 225.364C312.078 225.397 311.072 225.046 310.31 224.333Z" fill="#27272A"/>
<path d="M319.394 224.995C318.941 224.744 318.573 224.375 318.305 223.889C318.036 223.403 317.902 222.833 317.902 222.179C317.902 221.61 318.02 221.082 318.238 220.612C318.464 220.143 318.807 219.758 319.26 219.456C319.712 219.163 320.249 219.012 320.861 219.012C321.338 219.012 321.766 219.096 322.126 219.255C322.486 219.414 322.78 219.64 322.989 219.917C323.207 220.202 323.366 220.512 323.467 220.864C323.576 221.207 323.634 221.593 323.643 222.012C323.643 222.129 323.609 222.23 323.542 222.305C323.475 222.38 323.374 222.422 323.249 222.422H319.017C319.025 223.126 319.218 223.663 319.587 224.031C319.955 224.392 320.433 224.584 321.011 224.593C321.38 224.593 321.707 224.526 322 224.392C322.293 224.258 322.587 224.082 322.88 223.855C322.955 223.797 323.031 223.772 323.115 223.772C323.215 223.772 323.299 223.813 323.366 223.889C323.433 223.964 323.467 224.056 323.467 224.157C323.467 224.291 323.408 224.408 323.291 224.509C322.637 225.096 321.858 225.389 320.936 225.389C320.366 225.372 319.847 225.238 319.394 224.995ZM322.679 221.735C322.645 221.157 322.478 220.688 322.193 220.319C321.908 219.95 321.481 219.766 320.928 219.766C320.643 219.766 320.374 219.825 320.148 219.934C319.914 220.042 319.721 220.193 319.57 220.378C319.419 220.562 319.302 220.772 319.21 220.998C319.117 221.224 319.067 221.467 319.042 221.727H322.679V221.735Z" fill="#27272A"/>
<path d="M325.36 225.129C325.251 225.037 325.201 224.911 325.201 224.744V219.657C325.201 219.49 325.26 219.364 325.369 219.28C325.478 219.188 325.612 219.146 325.763 219.146C325.913 219.146 326.048 219.188 326.156 219.28C326.265 219.372 326.316 219.49 326.316 219.649L326.307 220.386C326.408 220.001 326.617 219.682 326.927 219.431C327.238 219.171 327.615 219.045 328.05 219.045C328.184 219.045 328.285 219.096 328.36 219.196C328.436 219.297 328.478 219.414 328.478 219.54C328.478 219.666 328.444 219.766 328.369 219.858C328.293 219.95 328.201 219.992 328.067 219.992C327.514 219.992 327.078 220.135 326.777 220.428C326.467 220.713 326.316 221.099 326.316 221.585V224.761C326.316 224.928 326.257 225.054 326.148 225.146C326.031 225.238 325.905 225.28 325.754 225.28C325.595 225.263 325.469 225.221 325.36 225.129Z" fill="#27272A"/>
<path d="M331.419 225.079C331.285 224.954 331.151 224.736 331.025 224.434L329.098 219.825C329.073 219.775 329.064 219.716 329.064 219.649C329.064 219.507 329.123 219.389 329.24 219.28C329.358 219.171 329.492 219.121 329.634 219.121C329.852 219.121 330.003 219.238 330.087 219.473L331.972 224.116L333.858 219.473C333.95 219.238 334.101 219.121 334.31 219.121C334.453 219.121 334.587 219.171 334.704 219.28C334.822 219.389 334.88 219.507 334.88 219.649C334.88 219.708 334.872 219.766 334.847 219.825L332.919 224.434C332.794 224.736 332.659 224.954 332.525 225.079C332.391 225.205 332.207 225.264 331.972 225.264C331.738 225.272 331.553 225.205 331.419 225.079Z" fill="#27272A"/>
<path d="M337.201 224.995C336.748 224.744 336.379 224.375 336.111 223.889C335.843 223.403 335.709 222.833 335.709 222.179C335.709 221.61 335.818 221.082 336.044 220.612C336.27 220.143 336.614 219.758 337.067 219.456C337.519 219.163 338.055 219.012 338.667 219.012C339.145 219.012 339.572 219.096 339.933 219.255C340.293 219.414 340.586 219.64 340.796 219.917C341.014 220.202 341.173 220.512 341.273 220.864C341.382 221.207 341.441 221.593 341.449 222.012C341.449 222.129 341.416 222.23 341.349 222.305C341.282 222.38 341.181 222.422 341.055 222.422H336.824C336.832 223.126 337.025 223.663 337.393 224.031C337.762 224.392 338.24 224.584 338.818 224.593C339.187 224.593 339.514 224.526 339.807 224.392C340.1 224.258 340.393 224.082 340.687 223.855C340.762 223.797 340.838 223.772 340.921 223.772C341.022 223.772 341.106 223.813 341.173 223.889C341.24 223.964 341.273 224.056 341.273 224.157C341.273 224.291 341.215 224.408 341.097 224.509C340.444 225.096 339.664 225.389 338.743 225.389C338.173 225.372 337.653 225.238 337.201 224.995ZM340.486 221.735C340.452 221.157 340.284 220.688 340 220.319C339.715 219.95 339.287 219.766 338.734 219.766C338.449 219.766 338.181 219.825 337.955 219.934C337.72 220.042 337.527 220.193 337.377 220.378C337.226 220.562 337.108 220.772 337.016 220.998C336.924 221.224 336.874 221.467 336.849 221.727H340.486V221.735Z" fill="#27272A"/>
<path d="M343.169 225.129C343.06 225.037 343.01 224.911 343.01 224.744V219.657C343.01 219.49 343.068 219.364 343.177 219.28C343.286 219.188 343.42 219.146 343.571 219.146C343.722 219.146 343.856 219.188 343.965 219.28C344.074 219.372 344.133 219.49 344.133 219.649L344.124 220.386C344.225 220.001 344.434 219.682 344.744 219.431C345.054 219.171 345.432 219.045 345.867 219.045C346.001 219.045 346.102 219.096 346.177 219.196C346.253 219.297 346.295 219.414 346.295 219.54C346.295 219.666 346.261 219.766 346.186 219.858C346.119 219.95 346.018 219.992 345.884 219.992C345.331 219.992 344.895 220.135 344.594 220.428C344.284 220.713 344.133 221.099 344.133 221.585V224.761C344.133 224.928 344.074 225.054 343.965 225.146C343.848 225.238 343.722 225.28 343.563 225.28C343.404 225.263 343.278 225.221 343.169 225.129Z" fill="#27272A"/>
<path d="M351.415 225.079C351.289 224.962 351.23 224.819 351.23 224.66V217.051C351.23 216.892 351.289 216.749 351.398 216.632C351.507 216.515 351.649 216.448 351.817 216.448H356.393C356.552 216.448 356.669 216.498 356.753 216.59C356.837 216.691 356.879 216.8 356.879 216.942C356.879 217.076 356.837 217.194 356.753 217.294C356.669 217.395 356.543 217.445 356.393 217.445H352.479V220.252H356.183C356.342 220.252 356.468 220.303 356.552 220.395C356.636 220.487 356.677 220.604 356.677 220.73C356.677 220.864 356.636 220.973 356.543 221.074C356.451 221.174 356.334 221.216 356.175 221.216H352.471V224.266H356.543C356.703 224.266 356.82 224.317 356.904 224.417C356.988 224.518 357.029 224.635 357.029 224.769C357.029 224.903 356.988 225.02 356.904 225.121C356.82 225.222 356.694 225.264 356.543 225.264H351.842C351.683 225.264 351.541 225.205 351.415 225.079Z" fill="#27272A"/>
<path d="M358.898 225.129C358.789 225.037 358.738 224.911 358.738 224.744V219.657C358.738 219.49 358.797 219.364 358.906 219.28C359.015 219.188 359.149 219.146 359.3 219.146C359.451 219.146 359.585 219.188 359.694 219.28C359.803 219.372 359.861 219.49 359.861 219.649L359.853 220.386C359.953 220.001 360.163 219.682 360.473 219.431C360.783 219.171 361.16 219.045 361.596 219.045C361.73 219.045 361.831 219.096 361.906 219.196C361.981 219.297 362.023 219.414 362.023 219.54C362.023 219.666 361.99 219.766 361.914 219.858C361.847 219.95 361.747 219.992 361.613 219.992C361.06 219.992 360.624 220.135 360.322 220.428C360.012 220.713 359.861 221.099 359.861 221.585V224.761C359.861 224.928 359.803 225.054 359.694 225.146C359.585 225.238 359.451 225.28 359.3 225.28C359.132 225.263 359.006 225.221 358.898 225.129Z" fill="#27272A"/>
<path d="M363.39 225.129C363.281 225.037 363.23 224.911 363.23 224.744V219.657C363.23 219.49 363.289 219.364 363.398 219.28C363.507 219.188 363.641 219.146 363.792 219.146C363.943 219.146 364.077 219.188 364.186 219.28C364.295 219.372 364.353 219.49 364.353 219.649L364.345 220.386C364.446 220.001 364.655 219.682 364.965 219.431C365.275 219.171 365.652 219.045 366.088 219.045C366.222 219.045 366.323 219.096 366.398 219.196C366.474 219.297 366.515 219.414 366.515 219.54C366.515 219.666 366.482 219.766 366.406 219.858C366.339 219.95 366.239 219.992 366.105 219.992C365.552 219.992 365.116 220.135 364.814 220.428C364.513 220.721 364.353 221.099 364.353 221.585V224.761C364.353 224.928 364.295 225.054 364.186 225.146C364.077 225.238 363.943 225.28 363.792 225.28C363.624 225.263 363.499 225.221 363.39 225.129Z" fill="#27272A"/>
<path d="M368.123 224.475C367.562 223.88 367.285 223.118 367.285 222.196C367.285 221.266 367.562 220.503 368.123 219.908C368.685 219.313 369.43 219.012 370.377 219.012C371.324 219.012 372.079 219.305 372.632 219.9C373.193 220.495 373.47 221.258 373.47 222.196C373.47 223.118 373.193 223.88 372.64 224.475C372.087 225.07 371.333 225.372 370.386 225.372C369.439 225.372 368.685 225.079 368.123 224.475ZM371.844 223.964C372.187 223.537 372.363 222.942 372.363 222.196C372.363 221.45 372.187 220.864 371.835 220.428C371.484 219.992 370.997 219.774 370.386 219.774C369.766 219.774 369.28 219.992 368.928 220.428C368.576 220.864 368.4 221.45 368.4 222.204C368.4 222.942 368.576 223.529 368.919 223.964C369.263 224.4 369.749 224.618 370.369 224.618C371.006 224.61 371.492 224.392 371.844 223.964Z" fill="#27272A"/>
<path d="M375.028 225.129C374.919 225.037 374.869 224.911 374.869 224.744V219.657C374.869 219.49 374.928 219.364 375.037 219.28C375.146 219.188 375.28 219.146 375.431 219.146C375.581 219.146 375.716 219.188 375.824 219.28C375.933 219.372 375.992 219.49 375.992 219.649L375.984 220.386C376.084 220.001 376.294 219.682 376.604 219.431C376.914 219.171 377.291 219.045 377.727 219.045C377.861 219.045 377.961 219.096 378.037 219.196C378.112 219.297 378.154 219.414 378.154 219.54C378.154 219.666 378.121 219.766 378.045 219.858C377.978 219.95 377.878 219.992 377.743 219.992C377.19 219.992 376.755 220.135 376.453 220.428C376.143 220.713 375.992 221.099 375.992 221.585V224.761C375.992 224.928 375.933 225.054 375.824 225.146C375.707 225.238 375.581 225.28 375.431 225.28C375.263 225.263 375.137 225.221 375.028 225.129Z" fill="#27272A"/>
<path d="M265.477 197.031C264.798 196.419 264.463 195.648 264.463 194.726C264.463 193.763 264.815 192.874 265.527 192.061C266.239 191.249 267.027 190.846 267.915 190.846C268.2 190.846 268.494 190.897 268.779 190.997C269.064 191.098 269.34 191.257 269.608 191.458C272.374 193.612 275.332 194.684 278.466 194.684C280.863 194.684 282.715 194.056 284.005 192.79C285.296 191.533 285.941 189.665 285.941 187.209C285.941 184.855 285.245 183.011 283.863 181.687C282.48 180.363 280.737 179.701 278.65 179.701C276.254 179.701 273.932 180.539 271.695 182.223C271.284 182.575 270.706 182.743 269.969 182.743C268.837 182.743 267.79 182.366 266.834 181.603C265.871 180.841 265.385 179.818 265.385 178.528V161.064C265.385 159.321 265.804 158.131 266.65 157.494C267.488 156.857 268.896 156.539 270.865 156.539H289.385C290.391 156.539 291.195 156.849 291.798 157.46C292.402 158.072 292.704 158.918 292.704 159.983C292.704 161.047 292.385 161.885 291.748 162.488C291.111 163.092 290.223 163.393 289.075 163.393H273.228L273.078 175.117L273.999 174.564C274.611 174.195 275.625 173.827 277.041 173.458C278.457 173.089 279.958 172.905 281.533 172.905C285.555 172.905 288.832 174.17 291.363 176.692C293.893 179.215 295.159 182.676 295.159 187.059C295.159 190.033 294.43 192.648 292.972 194.902C291.514 197.156 289.544 198.874 287.064 200.039C284.583 201.212 281.793 201.791 278.692 201.791C273.656 201.799 269.248 200.215 265.477 197.031Z" fill="#445E87"/>
<path d="M310.963 200.751C308.985 199.93 307.351 198.816 306.069 197.416C304.787 196.008 303.723 194.316 302.885 192.321C302.047 190.335 301.452 188.232 301.1 186.028C300.748 183.824 300.58 181.436 300.58 178.871C300.58 176.349 300.756 174.002 301.1 171.824C301.443 169.653 302.038 167.567 302.868 165.581C303.697 163.595 304.753 161.902 306.019 160.502C307.292 159.111 308.918 157.997 310.913 157.167C312.899 156.337 315.161 155.918 317.684 155.918C320.164 155.918 322.385 156.321 324.346 157.134C326.307 157.946 327.924 159.044 329.206 160.427C330.488 161.81 331.553 163.494 332.407 165.472C333.254 167.449 333.865 169.536 334.226 171.732C334.586 173.927 334.762 176.307 334.762 178.871C334.762 181.419 334.586 183.79 334.243 185.994C333.891 188.198 333.296 190.293 332.458 192.288C331.62 194.274 330.555 195.975 329.273 197.383C327.991 198.791 326.365 199.905 324.396 200.735C322.427 201.564 320.189 201.983 317.692 201.983C315.178 201.983 312.941 201.573 310.963 200.751ZM321.497 193.603C322.519 192.79 323.29 191.609 323.793 190.05C324.295 188.492 324.647 186.841 324.84 185.098C325.033 183.355 325.133 181.285 325.133 178.88C325.133 176.994 325.083 175.335 324.983 173.91C324.882 172.486 324.673 171.061 324.354 169.637C324.036 168.212 323.608 167.039 323.08 166.125C322.544 165.212 321.832 164.474 320.927 163.913C320.022 163.352 318.949 163.067 317.7 163.067C316.653 163.067 315.731 163.251 314.935 163.62C314.139 163.988 313.469 164.541 312.932 165.262C312.396 165.991 311.952 166.812 311.591 167.726C311.231 168.639 310.955 169.72 310.762 170.969C310.569 172.218 310.435 173.458 310.36 174.69C310.284 175.922 310.251 177.313 310.251 178.871C310.251 180.43 310.284 181.829 310.36 183.07C310.427 184.31 310.561 185.559 310.762 186.824C310.955 188.081 311.231 189.179 311.591 190.1C311.952 191.022 312.396 191.852 312.932 192.581C313.469 193.31 314.131 193.863 314.935 194.24C315.731 194.617 316.661 194.81 317.7 194.81C319.2 194.818 320.474 194.408 321.497 193.603Z" fill="#445E87"/>
<path d="M349.914 200.751C347.936 199.93 346.302 198.816 345.02 197.416C343.738 196.008 342.674 194.316 341.836 192.321C340.998 190.335 340.403 188.232 340.051 186.028C339.699 183.824 339.531 181.436 339.531 178.871C339.531 176.349 339.707 174.002 340.051 171.824C340.394 169.653 340.989 167.567 341.819 165.581C342.649 163.595 343.704 161.902 344.97 160.502C346.244 159.111 347.869 157.997 349.864 157.167C351.85 156.337 354.112 155.918 356.635 155.918C359.115 155.918 361.336 156.321 363.297 157.134C365.258 157.946 366.875 159.044 368.157 160.427C369.439 161.81 370.504 163.494 371.358 165.472C372.205 167.449 372.817 169.536 373.177 171.732C373.537 173.927 373.713 176.307 373.713 178.871C373.713 181.419 373.537 183.79 373.194 185.994C372.842 188.198 372.247 190.293 371.409 192.288C370.571 194.274 369.506 195.975 368.224 197.383C366.942 198.791 365.316 199.905 363.347 200.735C361.378 201.564 359.14 201.983 356.643 201.983C354.138 201.983 351.892 201.573 349.914 200.751ZM360.456 193.603C361.478 192.79 362.249 191.609 362.752 190.05C363.255 188.492 363.607 186.841 363.8 185.098C363.992 183.355 364.093 181.285 364.093 178.88C364.093 176.994 364.043 175.335 363.942 173.91C363.842 172.486 363.632 171.061 363.314 169.637C362.995 168.212 362.568 167.039 362.04 166.125C361.504 165.212 360.791 164.474 359.886 163.913C358.981 163.352 357.909 163.067 356.66 163.067C355.612 163.067 354.691 163.251 353.895 163.62C353.098 163.988 352.428 164.541 351.892 165.262C351.355 165.991 350.911 166.812 350.551 167.726C350.191 168.639 349.914 169.72 349.721 170.969C349.529 172.218 349.395 173.458 349.319 174.69C349.244 175.922 349.21 177.313 349.21 178.871C349.21 180.43 349.244 181.829 349.319 183.07C349.386 184.31 349.52 185.559 349.721 186.824C349.914 188.081 350.191 189.179 350.551 190.1C350.911 191.022 351.355 191.852 351.892 192.581C352.428 193.31 353.09 193.863 353.895 194.24C354.691 194.617 355.621 194.81 356.66 194.81C358.152 194.818 359.425 194.408 360.456 193.603Z" fill="#445E87"/>
<path d="M128.223 283.697C128.223 283.697 136.2 282.113 143.039 287.384C149.885 292.647 155.089 306.029 157.779 324.767C160.469 343.496 161.994 351.617 177.782 354.248C193.578 356.879 231.481 355.823 254.124 355.304C276.767 354.776 275.711 333.717 256.755 331.614C237.8 329.51 224.685 334.563 204.916 330.197C185.148 325.823 222.531 320.032 250.956 324.248C279.389 328.463 292.027 329.51 307.295 327.935" stroke="#354969" stroke-width="2.5131" stroke-miterlimit="10" stroke-linecap="round" stroke-linejoin="round"/>
<path d="M128.223 255.674C128.223 255.674 143.566 255.8 147.782 271.596C151.997 287.392 153.572 309.507 154.1 326.879C154.628 344.25 155.156 358.991 175.159 363.206C195.162 367.421 249.397 365.837 264.138 362.678C278.878 359.519 295.203 345.306 283.093 342.147C270.984 338.988 254.141 342.147 260.451 346.362C266.769 350.577 283.613 349.521 303.624 346.89" stroke="#354969" stroke-width="2.5131" stroke-miterlimit="10" stroke-linecap="round" stroke-linejoin="round"/>
<path d="M131.366 310.638C131.366 310.638 140.743 309.826 144.405 320.418C148.075 331.019 143.592 333.457 145.628 338.762C147.665 344.066 160.528 339.114 160.469 343.505C160.419 347.51 155.332 348.642 126.07 346.915C87.8065 344.661 62.4905 350.586 64.5268 354.248C66.5631 357.918 97.1334 355.061 89.7925 360.768C82.4516 366.474 64.5268 359.955 50.6663 359.544C36.8058 359.133 34.3672 362.393 34.3672 362.393" stroke="#354969" stroke-width="2.5131" stroke-miterlimit="10" stroke-linecap="round" stroke-linejoin="round"/>
<path d="M132.506 160.93H40.368C38.7172 160.93 37.3848 162.262 37.3848 163.913V338.452C37.3848 340.102 38.7172 341.435 40.368 341.435H132.506C134.157 341.435 135.489 340.102 135.489 338.452V163.913C135.489 162.27 134.149 160.93 132.506 160.93Z" fill="#1D120E" stroke="#1D120E" stroke-width="1.2565" stroke-miterlimit="10" stroke-linecap="round" stroke-linejoin="round"/>
<path d="M133.092 187.972H39.7305V257.116H133.092V187.972Z" fill="#EBE6DB"/>
<path d="M133.092 268.353H39.7305V337.496H133.092V268.353Z" fill="#EBE6DB"/>
<path d="M121.511 276.775H68.5078V330.826H121.511V276.775Z" fill="#A39583" stroke="#1D120E" stroke-width="1.2565" stroke-miterlimit="10" stroke-linecap="round" stroke-linejoin="round"/>
<path d="M121.511 195.698H68.5078V209.039H121.511V195.698Z" fill="#A39583" stroke="#1D120E" stroke-width="1.2565" stroke-miterlimit="10" stroke-linecap="round" stroke-linejoin="round"/>
<path d="M121.511 221.316H68.5078V234.657H121.511V221.316Z" fill="#A39583" stroke="#1D120E" stroke-width="1.2565" stroke-miterlimit="10" stroke-linecap="round" stroke-linejoin="round"/>
<path d="M119.736 189.522L118.714 192.33H71.7604L70.7381 189.522H60.791V201.858H70.7381L71.7604 199.051H118.714L119.736 201.858H130.999V189.522H119.736Z" fill="#1D120E" stroke="#1D120E" stroke-width="1.2565" stroke-miterlimit="10" stroke-linecap="round" stroke-linejoin="round"/>
<path d="M119.736 202.98L118.714 205.779H71.7604L70.7381 202.98H60.791V215.307H70.7381L71.7604 212.509H118.714L119.736 215.307H130.999V202.98H119.736Z" fill="#1D120E" stroke="#1D120E" stroke-width="1.2565" stroke-miterlimit="10" stroke-linecap="round" stroke-linejoin="round"/>
<path d="M119.736 216.431L118.714 219.23H71.7604L70.7381 216.431H60.791V228.766H70.7381L71.7604 225.959H118.714L119.736 228.766H130.999V216.431H119.736Z" fill="#1D120E" stroke="#1D120E" stroke-width="1.2565" stroke-miterlimit="10" stroke-linecap="round" stroke-linejoin="round"/>
<path d="M119.736 229.889L118.714 232.688H71.7604L70.7381 229.889H60.791V242.216H70.7381L71.7604 239.417H118.714L119.736 242.216H130.999V229.889H119.736Z" fill="#1D120E" stroke="#1D120E" stroke-width="1.2565" stroke-miterlimit="10" stroke-linecap="round" stroke-linejoin="round"/>
<path d="M119.736 243.338L118.714 246.137H71.7604L70.7381 243.338H60.791V255.674H70.7381L71.7604 252.866H118.714L119.736 255.674H130.999V243.338H119.736Z" fill="#1D120E" stroke="#1D120E" stroke-width="1.2565" stroke-miterlimit="10" stroke-linecap="round" stroke-linejoin="round"/>
<path d="M119.736 270.247L118.714 273.045H71.7604L70.7381 270.247H60.791V282.582H70.7381L71.7604 279.775H118.714L119.736 282.582H130.999V270.247H119.736Z" fill="#1D120E" stroke="#1D120E" stroke-width="1.2565" stroke-miterlimit="10" stroke-linecap="round" stroke-linejoin="round"/>
<path d="M119.736 283.697L118.714 286.504H71.7604L70.7381 283.697H60.791V296.032H70.7381L71.7604 293.233H118.714L119.736 296.032H130.999V283.697H119.736Z" fill="#1D120E" stroke="#1D120E" stroke-width="1.2565" stroke-miterlimit="10" stroke-linecap="round" stroke-linejoin="round"/>
<path d="M119.736 297.155L118.714 299.954H71.7604L70.7381 297.155H60.791V309.482H70.7381L71.7604 306.683H118.714L119.736 309.482H130.999V297.155H119.736Z" fill="#1D120E" stroke="#1D120E" stroke-width="1.2565" stroke-miterlimit="10" stroke-linecap="round" stroke-linejoin="round"/>
<path d="M119.736 310.605L118.714 313.412H71.7604L70.7381 310.605H60.791V322.94H70.7381L71.7604 320.133H118.714L119.736 322.94H130.999V310.605H119.736Z" fill="#1D120E" stroke="#1D120E" stroke-width="1.2565" stroke-miterlimit="10" stroke-linecap="round" stroke-linejoin="round"/>
<path d="M119.736 324.063L118.714 326.862H71.7604L70.7381 324.063H60.791V336.39H70.7381L71.7604 333.591H118.714L119.736 336.39H130.999V324.063H119.736Z" fill="#1D120E" stroke="#1D120E" stroke-width="1.2565" stroke-miterlimit="10" stroke-linecap="round" stroke-linejoin="round"/>
<path d="M130.98 259.269H41.6074V267.691H130.98V259.269Z" fill="white"/>
<path d="M49.151 263.392C49.151 262.093 48.0951 261.037 46.7962 261.037C45.4973 261.037 44.4414 262.093 44.4414 263.392C44.4414 264.691 45.4973 265.747 46.7962 265.747C48.0951 265.747 49.151 264.691 49.151 263.392Z" fill="#1D120E" stroke="#1D120E" stroke-width="1.2565" stroke-miterlimit="10" stroke-linecap="round" stroke-linejoin="round"/>
<path d="M54.6399 265.747C55.9404 265.747 56.9947 264.692 56.9947 263.392C56.9947 262.091 55.9404 261.037 54.6399 261.037C53.3394 261.037 52.2852 262.091 52.2852 263.392C52.2852 264.692 53.3394 265.747 54.6399 265.747Z" fill="#A39583" stroke="#1D120E" stroke-width="1.2565" stroke-miterlimit="10" stroke-linecap="round" stroke-linejoin="round"/>
<path d="M64.8385 263.392C64.8385 262.093 63.7826 261.037 62.4837 261.037C61.1848 261.037 60.1289 262.093 60.1289 263.392C60.1289 264.691 61.1848 265.747 62.4837 265.747C63.7826 265.747 64.8385 264.691 64.8385 263.392Z" fill="#1D120E" stroke="#1D120E" stroke-width="1.2565" stroke-miterlimit="10" stroke-linecap="round" stroke-linejoin="round"/>
<path d="M130.98 178.544H41.6074V186.966H130.98V178.544Z" fill="white"/>
<path d="M49.151 182.659C49.151 181.36 48.0951 180.304 46.7962 180.304C45.4973 180.304 44.4414 181.36 44.4414 182.659C44.4414 183.958 45.4973 185.014 46.7962 185.014C48.0951 185.014 49.151 183.966 49.151 182.659Z" fill="white" stroke="#1D120E" stroke-width="1.2565" stroke-miterlimit="10" stroke-linecap="round" stroke-linejoin="round"/>
<path d="M56.9947 182.659C56.9947 181.36 55.9388 180.304 54.6399 180.304C53.341 180.304 52.2852 181.36 52.2852 182.659C52.2852 183.958 53.341 185.014 54.6399 185.014C55.9388 185.014 56.9947 183.966 56.9947 182.659Z" fill="#A39583" stroke="#1D120E" stroke-width="1.2565" stroke-miterlimit="10" stroke-linecap="round" stroke-linejoin="round"/>
<path d="M64.8385 182.659C64.8385 181.36 63.7826 180.304 62.4837 180.304C61.1848 180.304 60.1289 181.36 60.1289 182.659C60.1289 183.958 61.1848 185.014 62.4837 185.014C63.7826 185.014 64.8385 183.966 64.8385 182.659Z" fill="white" stroke="#1D120E" stroke-width="1.2565" stroke-miterlimit="10" stroke-linecap="round" stroke-linejoin="round"/>
<path d="M130.98 167.709H41.6074V176.131H130.98V167.709Z" fill="white"/>
<path d="M49.151 171.832C49.151 170.533 48.0951 169.478 46.7962 169.478C45.4973 169.478 44.4414 170.533 44.4414 171.832C44.4414 173.131 45.4973 174.187 46.7962 174.187C48.0951 174.187 49.151 173.131 49.151 171.832Z" fill="#A39583" stroke="#1D120E" stroke-width="1.2565" stroke-miterlimit="10" stroke-linecap="round" stroke-linejoin="round"/>
<path d="M56.9947 171.832C56.9947 170.533 55.9388 169.478 54.6399 169.478C53.341 169.478 52.2852 170.533 52.2852 171.832C52.2852 173.131 53.341 174.187 54.6399 174.187C55.9388 174.187 56.9947 173.131 56.9947 171.832Z" fill="#1D120E" stroke="#1D120E" stroke-width="1.2565" stroke-miterlimit="10" stroke-linecap="round" stroke-linejoin="round"/>
<path d="M64.8385 171.832C64.8385 170.533 63.7826 169.478 62.4837 169.478C61.1848 169.478 60.1289 170.533 60.1289 171.832C60.1289 173.131 61.1848 174.187 62.4837 174.187C63.7826 174.187 64.8385 173.131 64.8385 171.832Z" fill="#1D120E" stroke="#1D120E" stroke-width="1.2565" stroke-miterlimit="10" stroke-linecap="round" stroke-linejoin="round"/>
<path d="M56.5744 189.732H41.834V196.05H56.5744V189.732Z" fill="#1D120E" stroke="#1D120E" stroke-width="1.2565" stroke-miterlimit="10" stroke-linecap="round" stroke-linejoin="round"/>
<path d="M56.5744 203.417H41.834V209.735H56.5744V203.417Z" fill="#1D120E" stroke="#1D120E" stroke-width="1.2565" stroke-miterlimit="10" stroke-linecap="round" stroke-linejoin="round"/>
<path d="M56.5744 217.109H41.834V223.428H56.5744V217.109Z" fill="#A39583" stroke="#1D120E" stroke-width="1.2565" stroke-miterlimit="10" stroke-linecap="round" stroke-linejoin="round"/>
<path d="M56.5744 230.794H41.834V237.112H56.5744V230.794Z" fill="#A39583" stroke="#1D120E" stroke-width="1.2565" stroke-miterlimit="10" stroke-linecap="round" stroke-linejoin="round"/>
<path d="M56.5744 244.487H41.834V250.805H56.5744V244.487Z" fill="#A39583" stroke="#1D120E" stroke-width="1.2565" stroke-miterlimit="10" stroke-linecap="round" stroke-linejoin="round"/>
<path d="M56.5744 270.104H41.834V276.423H56.5744V270.104Z" fill="#A39583" stroke="#1D120E" stroke-width="1.2565" stroke-miterlimit="10" stroke-linecap="round" stroke-linejoin="round"/>
<path d="M56.5744 283.797H41.834V290.116H56.5744V283.797Z" fill="#1D120E" stroke="#1D120E" stroke-width="1.2565" stroke-miterlimit="10" stroke-linecap="round" stroke-linejoin="round"/>
<path d="M56.5744 297.482H41.834V303.8H56.5744V297.482Z" fill="#A39583" stroke="#1D120E" stroke-width="1.2565" stroke-miterlimit="10" stroke-linecap="round" stroke-linejoin="round"/>
<path d="M56.5744 311.175H41.834V317.493H56.5744V311.175Z" fill="#1D120E" stroke="#1D120E" stroke-width="1.2565" stroke-miterlimit="10" stroke-linecap="round" stroke-linejoin="round"/>
<path d="M56.5744 324.859H41.834V331.178H56.5744V324.859Z" fill="#A39583" stroke="#1D120E" stroke-width="1.2565" stroke-miterlimit="10" stroke-linecap="round" stroke-linejoin="round"/>
<path d="M180.036 122.649C180.036 122.649 165.916 126.244 161.994 131.616C158.072 136.979 142.175 173.516 142.175 173.516C142.175 173.516 137.013 179.298 142.586 184.871C148.159 190.444 159.304 192.505 163.435 187.553C167.567 182.6 173.55 159.27 174.371 156.588C175.201 153.907 181.385 131.197 182.005 129.957C182.626 128.725 183.221 123.387 180.036 122.649Z" fill="#EBE6DB" stroke="#1D120E" stroke-width="1.2565" stroke-miterlimit="10" stroke-linecap="round" stroke-linejoin="round"/>
<path d="M180.036 122.649C180.036 122.649 165.915 126.244 161.994 131.616C159.622 134.867 152.859 149.524 147.898 160.594C150.312 160.108 160.368 158.616 172.142 164.549C173.281 160.594 174.111 157.468 174.379 156.588C175.209 153.907 181.393 131.197 182.013 129.965C182.625 128.725 183.22 123.387 180.036 122.649Z" fill="#748FAA" stroke="#1D120E" stroke-width="1.2565" stroke-miterlimit="10" stroke-linecap="round" stroke-linejoin="round"/>
<path d="M221.434 75.0593C221.434 75.0593 225.356 77.1207 227.007 81.0426C228.658 84.9644 228.658 90.9477 228.658 90.9477C228.658 90.9477 255.08 90.1181 265.194 89.917C275.309 89.7075 282.122 92.188 282.323 97.1406C282.533 102.093 280.262 111.797 274.689 115.51C269.116 119.222 251.778 113.239 242.904 110.758C234.029 108.278 230.929 109.107 224.535 108.278C218.132 107.448 216.28 104.976 215.25 101.054C214.219 97.1322 216.28 89.6991 216.28 83.7158C216.272 77.7409 215.451 73.819 221.434 75.0593Z" fill="#EBE6DB" stroke="#1D120E" stroke-width="1.2565" stroke-miterlimit="10" stroke-linecap="round" stroke-linejoin="round"/>
<path d="M260.032 100.442C260.032 100.442 256.32 109.937 249.507 115.099C244.622 118.803 238.026 120.915 234.7 121.803C222.8 118.468 205.981 116.876 196.152 119.063C196.152 119.063 182.417 122.348 180.037 122.641C177.649 122.943 171.975 142.041 170.785 155.181C169.595 168.312 173.475 200.852 173.475 203.24C173.475 205.628 174.967 245.324 177.355 256.369C179.744 267.414 182.434 282.339 182.727 284.425C183.029 286.512 185.115 302.04 185.115 307.11C185.115 312.18 182.727 324.423 182.727 324.423C182.727 324.423 171.984 331.588 167.802 335.77C163.62 339.951 170.878 344.342 176.157 345.323C185.165 346.99 195.858 338.158 195.858 338.158C195.858 338.158 207.666 333.44 207.8 333.381C210.976 332.107 211.914 328.697 211.998 325.638C212.183 318.272 212.367 310.906 212.56 303.54C214.437 311.367 215.979 319.286 217.177 327.247C217.671 330.515 218.166 333.943 220.144 336.591C221.141 337.932 222.75 339.557 224.283 340.27C225.473 340.823 226.739 340.705 227.929 341.393C230.132 342.666 231.038 345.415 233.183 346.798C237.39 349.504 243.465 350.895 248.401 350.703C248.401 350.703 260.342 351.298 260.937 344.736C261.532 338.166 245.418 327.423 245.418 327.423C245.418 327.423 243.029 283.839 241.236 269.517C239.443 255.187 234.666 231.908 234.666 221.76C234.666 211.611 239.443 163.854 239.443 163.854C239.443 163.854 239.929 162.597 240.675 160.544C240.934 160.401 241.194 160.259 241.462 160.108C248.275 156.186 267.264 140.909 273.457 131.214C279.382 121.929 281.527 104.507 281.703 99.4116" fill="#EBE6DB"/>
<path d="M260.032 100.442C260.032 100.442 256.32 109.937 249.507 115.099C244.622 118.803 238.026 120.915 234.7 121.803C222.8 118.468 205.981 116.876 196.152 119.063C196.152 119.063 182.417 122.348 180.037 122.641C177.649 122.943 171.975 142.041 170.785 155.181C169.595 168.312 173.475 200.852 173.475 203.24C173.475 205.628 174.967 245.324 177.355 256.369C179.744 267.414 182.434 282.339 182.727 284.425C183.029 286.512 185.115 302.04 185.115 307.11C185.115 312.18 182.727 324.423 182.727 324.423C182.727 324.423 171.984 331.588 167.802 335.77C163.62 339.951 170.878 344.342 176.157 345.323C185.165 346.99 195.858 338.158 195.858 338.158C195.858 338.158 207.666 333.44 207.8 333.381C210.976 332.107 211.914 328.697 211.998 325.638C212.183 318.272 212.367 310.906 212.56 303.54C214.437 311.367 215.979 319.286 217.177 327.247C217.671 330.515 218.166 333.943 220.144 336.591C221.141 337.932 222.75 339.557 224.283 340.27C225.473 340.823 226.739 340.705 227.929 341.393C230.132 342.666 231.038 345.415 233.183 346.798C237.39 349.504 243.465 350.895 248.401 350.703C248.401 350.703 260.342 351.298 260.937 344.736C261.532 338.166 245.418 327.423 245.418 327.423C245.418 327.423 243.029 283.839 241.236 269.517C239.443 255.187 234.666 231.908 234.666 221.76C234.666 211.611 239.443 163.854 239.443 163.854C239.443 163.854 239.929 162.597 240.675 160.544C240.934 160.401 241.194 160.259 241.462 160.108C248.275 156.186 267.264 140.909 273.457 131.214C279.382 121.929 281.527 104.507 281.703 99.4116" stroke="#1D120E" stroke-width="1.2565" stroke-miterlimit="10" stroke-linecap="round" stroke-linejoin="round"/>
<path d="M260.928 344.728C261.523 338.158 245.408 327.415 245.408 327.415C245.408 327.415 245.224 324.054 244.922 318.909C234.816 321.365 225.12 322.253 216.363 322.244C216.648 323.912 216.916 325.58 217.176 327.247C217.671 330.515 218.165 333.943 220.143 336.591C221.14 337.932 222.749 339.557 224.282 340.27C225.472 340.823 226.738 340.706 227.928 341.393C230.132 342.666 231.037 345.415 233.182 346.798C237.389 349.505 243.464 350.896 248.4 350.703C248.392 350.695 260.325 351.298 260.928 344.728Z" fill="#748FAA" stroke="#1D120E" stroke-width="1.2565" stroke-miterlimit="10" stroke-linecap="round" stroke-linejoin="round"/>
<path d="M207.79 333.39C210.966 332.116 211.905 328.705 211.988 325.647C212.014 324.49 212.047 323.334 212.072 322.177C200.055 321.767 190.142 319.772 183.84 318.138C183.27 321.624 182.717 324.432 182.717 324.432C182.717 324.432 171.974 331.596 167.792 335.778C163.611 339.96 170.868 344.351 176.147 345.331C185.156 346.999 195.849 338.166 195.849 338.166C195.849 338.166 207.656 333.44 207.79 333.39Z" fill="#748FAA" stroke="#1D120E" stroke-width="1.2565" stroke-miterlimit="10" stroke-linecap="round" stroke-linejoin="round"/>
<path d="M260.928 344.728C260.937 344.636 260.928 344.535 260.928 344.434C259.085 345.826 256.252 347.284 252.037 348.038C242.601 349.714 234.012 344.895 231.699 342.8C229.394 340.705 227.928 339.029 224.358 336.725C220.797 334.42 217.562 328.747 217.562 328.747L217.428 328.957C217.872 331.68 218.492 334.412 220.126 336.599C221.123 337.94 222.732 339.566 224.266 340.278C225.456 340.831 226.721 340.714 227.911 341.401C230.115 342.675 231.02 345.423 233.165 346.806C237.372 349.513 243.448 350.904 248.383 350.711C248.392 350.694 260.325 351.298 260.928 344.728Z" fill="white" stroke="#1D120E" stroke-width="1.2565" stroke-miterlimit="10" stroke-linecap="round" stroke-linejoin="round"/>
<path d="M207.79 333.39C210.564 332.283 211.628 329.543 211.905 326.836C209.165 328.471 202.804 332.174 198.782 333.783C193.544 335.878 189.974 342.172 179.701 342.172C172.376 342.172 168.371 339.298 166.661 337.647C165.756 341.191 171.647 344.493 176.147 345.331C185.156 346.999 195.849 338.166 195.849 338.166C195.849 338.166 207.656 333.44 207.79 333.39Z" fill="white" stroke="#1D120E" stroke-width="1.2565" stroke-miterlimit="10" stroke-linecap="round" stroke-linejoin="round"/>
<path d="M246.566 117.043C242.225 119.566 237.39 121.083 234.691 121.812C222.792 118.476 205.973 116.884 196.143 119.071C196.143 119.071 182.408 122.356 180.029 122.65C177.64 122.951 171.967 142.049 170.777 155.189C170.04 163.293 171.238 178.787 172.26 190.025C197.132 199.142 223.663 196.017 236.635 193.528C237.951 178.653 239.426 163.846 239.426 163.846C239.426 163.846 239.912 162.589 240.658 160.536C240.918 160.393 241.177 160.251 241.446 160.1C246.071 157.435 256.32 149.533 264.356 141.697C248.233 137.013 246.281 124.292 246.566 117.043Z" fill="#748FAA" stroke="#1D120E" stroke-width="1.2565" stroke-miterlimit="10" stroke-linecap="round" stroke-linejoin="round"/>
<path d="M223.436 131.281C223.436 126.194 220.797 121.636 216.649 118.544C209.023 117.806 201.539 117.865 196.151 119.063C196.151 119.063 192.355 119.968 188.408 120.873C185.785 123.739 184.201 127.351 184.201 131.281C184.201 140.591 192.983 148.142 203.819 148.142C214.654 148.142 223.436 140.591 223.436 131.281Z" fill="#445E87" stroke="#1D120E" stroke-width="1.2565" stroke-miterlimit="10" stroke-linecap="round" stroke-linejoin="round"/>
<path d="M217.563 328.739C220.118 329.694 224.887 330.984 231.524 330.7C241.823 330.255 245.401 327.415 245.401 327.415C245.401 327.415 243.013 283.83 241.219 269.509C239.426 255.179 234.649 231.899 234.649 221.751C234.649 215.768 236.309 196.728 237.675 182.089C237.465 182.114 237.247 182.139 237.038 182.164C229.747 183.002 223.412 177.195 223.63 169.862L223.915 160.334C223.915 160.334 214.512 161.231 200.635 159.664C186.758 158.097 172.428 153.396 172.428 153.396L170.919 153.856C170.869 154.301 170.827 154.745 170.785 155.18C169.595 168.312 173.475 200.851 173.475 203.24C173.475 205.628 174.967 245.324 177.355 256.369C179.744 267.414 182.434 282.339 182.727 284.425C183.029 286.512 185.115 302.04 185.115 307.11C185.115 312.096 182.811 323.97 182.727 324.406C184.52 324.959 188.274 326.099 195.037 328.01C205.336 330.917 211.973 327.415 211.973 327.415C211.973 323.836 212.568 303.532 212.568 303.532C212.568 303.532 216.339 320.711 217.563 328.739Z" fill="white" stroke="#1D120E" stroke-width="1.2565" stroke-miterlimit="10" stroke-linecap="round" stroke-linejoin="round"/>
<path d="M183.464 165.965L210.272 170.373V186.907L195.213 201.966L183.096 187.267L183.464 165.965Z" stroke="#1D120E" stroke-width="1.2565" stroke-miterlimit="10" stroke-linecap="round" stroke-linejoin="round"/>
<path d="M202.814 258.891C200.878 247.981 199.437 237.229 199.437 229.503L188.693 222.338" stroke="#1D120E" stroke-width="1.2565" stroke-miterlimit="10" stroke-linecap="round" stroke-linejoin="round"/>
<path d="M212.567 303.54C212.567 303.54 208.042 286.051 204.305 266.903" stroke="#1D120E" stroke-width="1.2565" stroke-miterlimit="10" stroke-linecap="round" stroke-linejoin="round"/>
<path d="M220.555 210.949C220.789 211.854 221.141 212.785 221.669 213.715C224.971 219.589 229.748 220.327 229.748 220.327L230.485 204.899" stroke="#1D120E" stroke-width="1.2565" stroke-miterlimit="10" stroke-linecap="round" stroke-linejoin="round"/>
<path d="M221.66 201.966C221.66 201.966 220.873 203.374 220.445 205.494" stroke="#1D120E" stroke-width="1.2565" stroke-miterlimit="10" stroke-linecap="round" stroke-linejoin="round"/>
<path d="M234.826 248.902C235.212 250.939 235.606 252.942 235.983 254.852" stroke="#1D120E" stroke-width="1.2565" stroke-miterlimit="10" stroke-linecap="round" stroke-linejoin="round"/>
<path d="M229.738 220.327C229.738 220.327 231.624 231.648 233.811 243.514" stroke="#1D120E" stroke-width="1.2565" stroke-miterlimit="10" stroke-linecap="round" stroke-linejoin="round"/>
<path d="M194.4 112.711L194.249 121.51C194.249 121.51 191.215 123.94 190.612 130.309C190.008 136.678 196.076 142.594 202.897 142.594C209.727 142.594 215.643 137.281 216.699 132.429C217.763 127.577 216.397 120.596 216.397 120.596L215.945 109.979C215.945 109.979 209.266 114.228 202.897 113.012C196.528 111.797 194.701 109.526 194.701 109.526L194.4 112.711Z" fill="#EBE6DB" stroke="#1D120E" stroke-width="1.2565" stroke-miterlimit="10" stroke-linecap="round" stroke-linejoin="round"/>
<path d="M189.648 89.7497C189.648 89.7497 189.238 94.786 190.327 96.0095C191.416 97.233 192.916 98.1883 193.184 97.0989C193.453 96.0095 193.595 90.2944 193.863 89.0625C194.14 87.839 189.782 86.3474 189.648 89.7497Z" fill="#EBE6DB" stroke="#1D120E" stroke-width="1.2565" stroke-miterlimit="10" stroke-linecap="round" stroke-linejoin="round"/>
<path d="M192.313 89.6744C192.313 89.6744 191.056 99.7555 191.056 104.591C191.056 109.418 189.162 111.312 195.254 114.462C201.346 117.613 206.592 118.032 210.799 116.566C214.997 115.099 217.31 111.521 217.52 108.588C217.729 105.647 217.729 101.029 217.729 101.029C217.729 101.029 223.612 95.775 222.347 91.7861C221.09 87.7973 218.358 92.8336 218.358 92.8336C218.358 92.8336 220.252 87.5794 220.042 82.124C219.833 76.6602 215.634 76.0317 213.95 76.0317C212.265 76.0317 201.975 72.8809 197.148 76.0317C192.313 79.1742 192.313 89.6744 192.313 89.6744Z" fill="#EBE6DB" stroke="#1D120E" stroke-width="1.2565" stroke-miterlimit="10" stroke-linecap="round" stroke-linejoin="round"/>
<path d="M218.359 92.8254C218.359 92.8254 220.253 87.5712 220.043 82.1158C219.834 76.652 215.635 76.0235 213.951 76.0235C213.926 76.0235 213.867 76.0151 213.834 76.0151C212.945 77.5068 211.848 79.8029 211.848 79.8029L212.686 80.2219C212.686 80.2219 211.848 84.8393 213.524 85.4762C215.208 86.1047 214.362 87.5795 214.362 90.0935C214.362 92.6159 215.828 94.5014 216.675 94.5014C217.337 94.5014 218.384 92.817 218.803 92.0964C218.527 92.507 218.359 92.8254 218.359 92.8254Z" fill="#748FAA" stroke="#1D120E" stroke-width="1.2565" stroke-miterlimit="10" stroke-linecap="round" stroke-linejoin="round"/>
<path d="M201.765 93.4287C201.765 93.4287 199.997 95.0628 200.809 96.2863C201.622 97.5098 204.622 98.1886 205.435 96.6969C206.248 95.1969 205.301 93.8393 204.89 93.5628" stroke="#1D120E" stroke-width="1.2565" stroke-miterlimit="10" stroke-linecap="round" stroke-linejoin="round"/>
<path d="M199.363 91.7945C199.363 92.1486 199.29 92.4442 199.196 92.6327C199.165 92.6959 199.138 92.7361 199.117 92.7613C199.096 92.7361 199.069 92.6959 199.038 92.6327C198.944 92.4442 198.871 92.1486 198.871 91.7945C198.871 91.4403 198.944 91.1447 199.038 90.9563C199.069 90.893 199.096 90.8528 199.117 90.8276C199.138 90.8528 199.165 90.893 199.196 90.9563C199.29 91.1447 199.363 91.4403 199.363 91.7945ZM199.074 92.8013C199.074 92.8012 199.075 92.8009 199.076 92.8004L199.074 92.8013ZM199.158 92.8004C199.159 92.8009 199.16 92.8012 199.16 92.8013L199.158 92.8004ZM199.16 90.7876C199.16 90.7877 199.159 90.788 199.158 90.7885L199.16 90.7876ZM199.076 90.7885C199.075 90.788 199.074 90.7877 199.074 90.7876L199.076 90.7885Z" fill="#748FAA" stroke="#1D120E"/>
<path d="M208.414 92.1968C208.414 92.551 208.341 92.8465 208.247 93.035C208.216 93.0982 208.188 93.1384 208.168 93.1637C208.147 93.1384 208.12 93.0982 208.088 93.035C207.994 92.8465 207.922 92.551 207.922 92.1968C207.922 91.8426 207.994 91.5471 208.088 91.3586C208.119 91.2978 208.145 91.2582 208.165 91.2328C208.187 91.2589 208.215 91.3002 208.247 91.3649C208.341 91.554 208.414 91.8477 208.414 92.1968ZM208.125 93.2036C208.125 93.2036 208.126 93.2033 208.127 93.2028L208.125 93.2036ZM208.209 93.2028C208.21 93.2033 208.21 93.2036 208.21 93.2036L208.209 93.2028ZM208.21 91.19C208.21 91.19 208.21 91.1903 208.209 91.1908L208.21 91.19Z" fill="#748FAA" stroke="#1D120E"/>
<path d="M206.668 88.1157C206.668 88.1157 209.526 86.2134 212.249 89.2051" stroke="#1D120E" stroke-width="1.2565" stroke-miterlimit="10" stroke-linecap="round" stroke-linejoin="round"/>
<path d="M202.328 101.515C202.328 101.515 201.138 100.87 199.998 101.415C198.859 101.951 198.641 102.873 198.641 102.873C198.641 102.873 196.898 104.281 198.733 104.893C200.568 105.504 204.574 105.462 205.604 105.412C206.635 105.362 206.979 104.306 206.945 103.677C206.92 103.049 206.518 102.865 206.518 102.865C206.518 102.865 205.118 100.409 202.328 101.515Z" fill="#445E87" stroke="#1D120E" stroke-width="0.9227" stroke-miterlimit="10" stroke-linecap="round" stroke-linejoin="round"/>
<path d="M198.246 103.401C198.246 103.401 201.992 102.613 206.702 103.903" stroke="#1D120E" stroke-width="1.0733" stroke-miterlimit="10" stroke-linecap="round" stroke-linejoin="round"/>
<path d="M188.742 78.1181L211.217 81.269C211.217 81.269 220.67 78.7466 221.508 76.8611C222.346 74.9673 219.195 65.523 217.519 63.2101C215.835 60.8972 199.67 64.8945 194.625 65.7325C189.58 66.5705 185.801 67.8359 186.01 70.3499C186.22 72.8723 188.742 78.1181 188.742 78.1181Z" fill="#7C6D56" stroke="#1D120E" stroke-width="1.2565" stroke-miterlimit="10" stroke-linecap="round" stroke-linejoin="round"/>
<path d="M188.743 78.1182C188.743 78.1182 175.93 88.6183 175.72 89.6742C175.511 90.7217 194.416 91.1407 200.291 89.8837C206.173 88.6267 211.21 81.269 211.21 81.269L188.743 78.1182Z" fill="white" stroke="#1D120E" stroke-width="1.2565" stroke-miterlimit="10" stroke-linecap="round" stroke-linejoin="round"/>
<path d="M174.74 217.343L209.977 196.703C212.148 198.329 215.165 198.597 217.654 197.139C220.461 195.497 221.676 192.187 220.796 189.203L213.447 193.511L211.746 190.611L219.095 186.304C216.916 184.075 213.438 183.522 210.631 185.164C208.142 186.622 206.902 189.379 207.262 192.069L172.024 212.709C169.854 211.083 166.837 210.815 164.348 212.273C161.541 213.916 160.326 217.226 161.206 220.209L168.362 216.019L170.064 218.919L162.907 223.109C165.086 225.338 168.563 225.891 171.371 224.248C173.851 222.79 175.1 220.033 174.74 217.343Z" fill="#7C6D56" stroke="#1D120E" stroke-width="1.2565" stroke-miterlimit="10" stroke-linecap="round" stroke-linejoin="round"/>
<path d="M204.716 202C204.716 202 209.049 205.092 209.049 207.983C209.049 210.874 203.886 213.967 200.375 214.176C196.864 214.386 196.244 210.464 196.864 208.394C197.492 206.332 204.716 202 204.716 202Z" fill="#EBE6DB" stroke="#1D120E" stroke-width="1.2565" stroke-miterlimit="10" stroke-linecap="round" stroke-linejoin="round"/>
<path d="M159.304 176.198C159.304 176.198 183.246 189.614 186.548 189.204C189.849 188.793 194.391 185.902 196.872 186.723C199.352 187.553 206.157 198.078 206.777 199.93C207.397 201.79 201.824 208.394 200.584 209.424C199.344 210.455 195.422 214.587 194.601 214.997C193.771 215.408 188.408 220.159 185.726 220.159C183.045 220.159 178.503 218.098 178.092 217.067C177.682 216.036 178.712 214.587 178.712 214.587L166.117 208.804C166.117 208.804 142.175 195.799 138.044 189.195C133.913 182.592 144.237 170.826 144.237 170.826" fill="#EBE6DB"/>
<path d="M159.304 176.198C159.304 176.198 183.246 189.614 186.548 189.204C189.849 188.793 194.391 185.902 196.872 186.723C199.352 187.553 206.157 198.078 206.777 199.93C207.397 201.79 201.824 208.394 200.584 209.424C199.344 210.455 195.422 214.587 194.601 214.997C193.771 215.408 188.408 220.159 185.726 220.159C183.045 220.159 178.503 218.098 178.092 217.067C177.682 216.036 178.712 214.587 178.712 214.587L166.117 208.804C166.117 208.804 142.175 195.799 138.044 189.195C133.913 182.592 144.237 170.826 144.237 170.826" stroke="#1D120E" stroke-width="1.2565" stroke-miterlimit="10" stroke-linecap="round" stroke-linejoin="round"/>
<path d="M186.967 208.603C186.967 208.603 189.447 208.813 189.858 211.494C190.269 214.176 189.238 218.927 189.238 218.927" stroke="#1D120E" stroke-width="1.2565" stroke-miterlimit="10" stroke-linecap="round" stroke-linejoin="round"/>
<path d="M191.709 204.681C191.709 204.681 194.6 204.891 194.6 207.572C194.6 210.254 194.6 215.005 194.6 215.005" stroke="#1D120E" stroke-width="1.2565" stroke-miterlimit="10" stroke-linecap="round" stroke-linejoin="round"/>
<path d="M194.811 197.257C194.811 197.257 200.174 201.179 200.593 203.45C201.003 205.721 200.593 209.433 200.593 209.433" stroke="#1D120E" stroke-width="1.2565" stroke-miterlimit="10" stroke-linecap="round" stroke-linejoin="round"/>
<path d="M218.735 183.103C219.933 183.103 223.135 175.108 223.135 172.108C223.135 169.108 224.534 147.119 227.735 136.929C230.031 129.613 232.009 123.965 232.948 121.342C230.509 120.714 227.903 120.161 225.221 119.7C223.621 124.552 218.735 139.694 216.741 149.323C214.344 160.913 214.939 174.706 215.14 175.904C215.341 177.111 217.537 183.103 218.735 183.103Z" fill="white" stroke="#1D120E" stroke-width="1.2565" stroke-miterlimit="10" stroke-linecap="round" stroke-linejoin="round"/>
<path d="M222.18 166.938L215.3 166.024C214.739 165.949 214.345 165.429 214.412 164.868L215.141 159.379C215.216 158.818 215.736 158.424 216.297 158.491L223.177 159.404C223.739 159.48 224.133 159.999 224.065 160.561L223.336 166.05C223.261 166.619 222.741 167.013 222.18 166.938Z" fill="white" stroke="#1D120E" stroke-width="1.2565" stroke-miterlimit="10" stroke-linecap="round" stroke-linejoin="round"/>
<path d="M220.705 165.312L217.152 164.843C216.59 164.767 216.196 164.248 216.263 163.686L216.624 161.005C216.699 160.443 217.219 160.049 217.78 160.116L221.333 160.586C221.895 160.661 222.288 161.181 222.221 161.742L221.87 164.424C221.786 164.993 221.266 165.387 220.705 165.312Z" fill="white" stroke="#1D120E" stroke-width="1.2565" stroke-miterlimit="10" stroke-linecap="round" stroke-linejoin="round"/>
<path d="M173.961 180.103C175.159 180.103 178.36 172.108 178.36 169.108C178.36 166.108 179.76 144.119 182.961 133.929C184.989 127.451 186.371 123.328 187.117 121.166C184 121.87 181.033 122.515 180.036 122.641C179.307 122.733 178.26 124.602 177.128 127.526C175.804 131.624 174.179 136.971 172.905 142.175C171.924 146.599 171.137 151.166 170.776 155.18C170.466 158.566 170.5 163.242 170.718 168.354C170.734 168.505 170.751 168.63 170.768 168.706C170.969 169.912 172.762 180.103 173.961 180.103Z" fill="white" stroke="#1D120E" stroke-width="1.2565" stroke-miterlimit="10" stroke-linecap="round" stroke-linejoin="round"/>
<path d="M177.706 160.661L170.81 159.924C170.248 159.865 169.838 159.354 169.896 158.792L170.483 153.287C170.541 152.725 171.053 152.315 171.614 152.373L178.511 153.111C179.072 153.169 179.483 153.681 179.424 154.242L178.838 159.748C178.779 160.317 178.276 160.72 177.706 160.661Z" fill="white" stroke="#1D120E" stroke-width="1.2565" stroke-miterlimit="10" stroke-linecap="round" stroke-linejoin="round"/>
<path d="M176.197 159.077L172.636 158.7C172.074 158.642 171.664 158.13 171.722 157.569L172.007 154.879C172.066 154.318 172.577 153.907 173.139 153.966L176.7 154.343C177.262 154.401 177.672 154.912 177.614 155.474L177.329 158.164C177.262 158.725 176.759 159.136 176.197 159.077Z" fill="white" stroke="#1D120E" stroke-width="1.2565" stroke-miterlimit="10" stroke-linecap="round" stroke-linejoin="round"/>
</svg>
