<svg width="350" height="350" viewBox="0 0 350 350" fill="none" xmlns="http://www.w3.org/2000/svg">
<g clip-path="url(#clip0_127_18404)">
<path d="M325.298 308.785C327.324 308.758 328.846 310.107 330.67 310.668C340.082 313.56 348.826 307.459 349.634 297.879C350.524 287.324 341.118 279.406 328.691 282.498C323.983 283.669 319.707 285.611 315.886 288.515C315.375 288.904 314.948 289.39 314.213 289.278C314.185 291.603 315.276 293.584 317.235 294.554C320.656 296.249 322.547 298.838 323.408 302.334C324.182 304.445 323.681 306.912 325.298 308.785Z" fill="#7FCAFB"/>
<path d="M325.302 308.786C324.977 306.414 324.745 304.026 324.002 301.728C320.846 301.778 319.882 302.871 319.415 306.913C319.216 308.058 318.863 309.157 318.373 310.218C317.253 312.643 315.402 313.94 312.61 313.964C309.994 313.987 307.565 313.401 305.226 312.27C304.135 311.743 303.072 310.803 301.669 311.491C297.957 319.352 296.119 327.383 299.7 335.774C300.531 337.721 301.576 339.723 304.167 340.048C309.655 341.885 313.452 339.1 316.659 335.393C322 329.219 324.435 321.847 325.191 313.903C325.352 312.209 325.271 310.492 325.302 308.786Z" fill="#8FB09C"/>
<path d="M102.449 346.986C99.8717 347.005 97.2936 347.085 94.7181 347.034C78.4365 346.714 62.1593 347.853 45.8925 347.415C35.2266 347.127 24.568 347.166 13.9065 347.049C12.1821 347.03 10.1788 346.905 11.5802 349.627C33.943 349.645 56.3058 349.682 78.6685 349.679C103.7 349.675 128.732 349.636 153.764 349.612C154.753 349.294 155.774 349.451 156.779 349.45C191.756 349.441 226.733 349.444 261.709 349.442C262.069 349.462 262.415 349.401 262.747 349.262C263.712 346.632 261.636 346.479 259.955 345.997C244.346 346.367 228.734 346.066 213.123 346.162C211.731 346.171 210.402 345.771 209.028 345.689C207.232 346.116 205.405 346.157 203.568 346.158C190.372 346.164 177.175 346.122 163.981 346.167C159.6 346.074 155.16 346.807 150.878 345.277C149.483 346.06 147.963 346.196 146.385 346.199C141.452 346.209 136.519 346.109 131.585 346.246C129.51 346.251 127.436 346.336 125.363 346.177C119.042 346.13 112.722 346.159 106.402 346.157C105.024 346.156 103.639 346.132 102.449 346.986Z" fill="#8AAFDB"/>
<path d="M320.189 307.127C319.903 304.284 321.154 302.472 323.996 301.726C322.909 298.287 321.163 295.499 317.468 294.037C315.521 293.266 315.461 290.776 314.21 289.278C313.806 288.594 313.403 287.909 312.999 287.225C312.675 286.969 312.352 286.713 312.028 286.456C305.675 288.295 299.18 287.177 292.746 287.323C292.023 287.339 291.299 287.131 290.571 287.242C288.347 288.465 290.179 289.551 290.855 290.39C293.809 294.051 297.056 297.465 300.595 300.605C304.334 304.318 308.719 306.466 314.193 305.668C316.454 305.338 318.169 306.739 320.189 307.127Z" fill="#61A3A0"/>
<path d="M332.951 246.664C327.855 242.722 322.956 238.526 317.236 235.406C315.465 234.44 313.657 233.605 311.696 233.077C307.777 232.021 305.913 233.079 304.871 236.995C307.465 239.19 309.174 242.116 311.461 244.573C313.508 246.771 315.681 248.836 317.829 250.93C318.561 251.644 319.425 252.145 320.49 252.259C324.131 252.137 327.762 251.895 331.389 251.667C334.16 251.492 334.896 250.514 334.593 248.349C334.046 247.787 333.498 247.225 332.951 246.664Z" fill="#3DA0B6"/>
<path d="M314.262 257.494C316.832 260.933 320.416 263.32 323.633 266.089C327.849 268.654 332.17 270.98 337.154 271.834C341.564 272.59 344.773 271.344 346.23 268.273C346.714 267.528 346.431 266.703 346.469 265.916C346.517 264.937 345.869 264.57 345.038 264.868C340.823 266.379 337.516 264.153 334.211 262.294C330.385 260.142 326.922 257.45 323.564 254.648C322.724 253.947 321.916 253.213 320.859 252.821C316.945 252.076 315.793 255.039 314.262 257.494Z" fill="#609382"/>
<path d="M320.77 253.21C324.876 256.791 329.105 260.259 333.895 262.911C337.294 264.793 340.669 267.467 345.119 265.454C346.088 265.015 346.178 265.205 346.228 268.272C347.483 265.815 346.538 263.542 345.421 261.405C342.765 256.322 338.898 252.154 334.596 248.348C334.76 250.729 332.743 250.966 331.29 250.939C327.379 250.867 323.53 251.501 319.642 251.567C319.246 252.619 320.309 252.718 320.77 253.21Z" fill="#5DA19F"/>
<path d="M262.608 349.667C262.64 349.493 262.638 349.319 262.604 349.145C227.392 349.164 192.181 349.179 156.97 349.217C155.9 349.218 154.749 348.873 153.762 349.612C165.272 349.648 176.781 349.713 188.29 349.714C213.063 349.716 237.836 349.684 262.608 349.667Z" fill="#9FD5F4"/>
<path d="M264.977 220.75C261.419 210.09 257.253 199.667 252.959 189.263C246.993 174.808 236.532 166.656 220.936 163.561C207.168 160.828 193.478 157.652 179.742 154.722C178.732 155.279 178.539 156.238 178.424 157.242C176.738 171.963 170.941 185.469 165.47 199.079C163.395 204.241 160.699 209.19 159.618 214.713C159.727 219.471 160.993 220.401 165.729 219.271C167.783 218.78 169.864 218.422 171.992 218.42C177.87 218.416 183.718 217.69 189.586 217.635C193.709 217.596 197.839 217.846 201.969 217.911C205.722 217.97 209.419 216.939 213.222 217.726C217.598 218.63 218.334 219.194 219.057 223.538C219.278 224.867 219.203 226.222 219.472 227.543C219.727 230.386 220.94 233.028 221.137 235.919C221.355 239.11 223.812 240.593 226.495 239.068C232.226 235.811 238.473 235.771 244.701 236.026C248.591 236.185 252.382 235.405 256.255 235.575C259.543 235.72 262.572 236.673 265.615 237.681C266.997 238.139 267.722 239.355 268.61 240.381C269.354 241.241 269.945 242.416 271.461 242.052C272.526 241.036 272.074 239.872 271.711 238.782C269.973 233.574 268.382 228.322 266.664 223.108C266.348 222.149 265.96 221.25 264.977 220.75Z" fill="#0078D4"/>
<path d="M91.7828 76.2364C90.4993 79.8292 90.2854 83.606 90.1288 87.3302C89.7595 96.1065 89.8295 104.922 91.8566 113.516C93.3113 119.683 95.4972 125.687 97.3569 131.763C98.7328 133.116 100.488 132.495 102.079 132.561C107.007 132.768 110.45 134.965 112.27 139.478C112.791 141.232 114.082 141.882 115.837 141.731C126.659 140.805 136.784 138.083 145.072 130.759C146.771 129.258 148.349 127.625 149.945 126.017C150.906 125.048 151.833 124.045 151.975 122.605C151.987 122.054 151.848 121.528 151.507 121.1C147.145 115.634 147.374 109.588 149.096 103.336C149.544 101.71 150.339 100.172 150.442 98.4538C149.634 94.4211 148.33 90.8268 144.482 88.3102C141.138 86.1237 140.467 82.405 140.757 78.6796C141.108 74.1758 142.29 69.8442 144.214 65.7195C144.48 65.1481 144.777 64.5846 144.895 63.9611C144.977 63.5273 145.1 63.0525 144.625 62.7494C144.19 62.4725 143.742 62.6219 143.322 62.8222C142.821 63.061 142.42 63.4364 141.989 63.7719C132.235 71.3567 120.903 74.8118 108.675 76.1874C103.757 76.7405 98.9618 76.3119 94.1241 75.7812C93.2964 75.6903 92.4637 75.5988 91.7828 76.2364Z" fill="#FEC5AC"/>
<path d="M91.7829 76.2366C105.738 78.5772 119.078 76.5327 131.904 70.8659C136.452 68.8564 140.454 66.0116 144.452 63.0127C142.303 67.6184 140.615 72.2991 140.139 77.3259C139.623 82.7704 140.507 87.5948 146.151 90.313C147.286 90.8597 147.555 91.917 147.941 92.9106C148.625 94.6701 149.269 96.4441 149.93 98.212C150.936 98.5806 151.175 97.6925 151.516 97.1841C154.447 92.8159 158.431 89.9201 163.674 88.716C164.388 88.5521 165.066 88.2691 165.501 87.6275C165.707 86.4047 165.524 85.1438 165.897 83.9354C165.546 80.0611 165.718 76.1475 164.968 72.306C161.523 54.7159 148.347 46.0159 132.537 42.8501C129.606 42.2633 126.699 43.0993 123.778 43.2367C120.379 43.3452 117.209 44.4505 114.001 45.3887C112.354 45.8702 110.723 46.4279 108.98 46.4996C108.56 46.5653 108.143 46.6607 107.715 46.6855C107.215 47.7591 106.292 48.1036 105.154 48.2939C101.145 48.9637 97.1073 49.0088 93.059 49.0513C85.9874 49.1255 80.3663 53.8323 79.3252 60.4634C78.3002 66.992 82.2203 72.9941 88.9619 75.2321C89.9093 75.5466 90.8429 75.9008 91.7829 76.2366Z" fill="#59454D"/>
<path d="M160.342 214.367C162.911 205.749 167.058 197.722 170.214 189.32C174.226 178.641 178.183 167.973 179.2 156.522C179.254 155.911 179.55 155.321 179.734 154.722C178.865 154.465 178.057 153.959 177.089 154.09C176.169 156.657 176.265 159.381 175.803 162.021C173.589 174.672 168.886 186.557 164.044 198.388C161.419 204.802 158.72 211.184 156.42 217.72C153.954 224.676 152.19 231.8 150.98 239.059C150.683 240.841 150.593 242.617 150.999 244.397C152.187 252.705 151.728 261.057 151.742 269.394C151.749 273.976 151.676 278.559 151.756 283.14C151.82 286.772 153.429 288.321 157.189 288.52C158.939 288.612 160.739 288.723 162.397 288.121C165.588 286.961 168.903 287.165 172.2 286.883C184.151 285.859 196.152 287.02 208.095 285.953C210.314 285.755 212.495 286.331 214.691 286.553C216.723 286.758 218.331 286.3 219.443 284.558C221.013 280.813 220.763 276.792 220.874 272.92C221.191 261.922 220.974 250.913 220.852 239.909C220.84 238.86 221.002 237.722 219.947 236.963C218.423 237.5 218.775 238.832 218.741 239.905C218.637 243.225 218.784 246.55 218.671 249.87C218.563 253.061 217.931 253.423 214.807 252.371C212.521 251.602 210.148 251.374 207.74 251.303C195.305 250.935 182.897 252.006 170.465 251.922C167.075 251.899 163.712 252.598 160.464 253.754C156.129 255.297 154.232 253.974 153.999 249.461C153.555 240.902 155.68 232.695 157.739 224.503C158.588 221.123 159.749 217.814 160.342 214.367Z" fill="#014C9E"/>
<path d="M108.87 149.576C112.163 152.359 116.185 151.68 120.036 151.813C121.373 152.568 122.758 152.009 124.067 151.823C137.279 149.948 152.683 140.213 160.265 128.924C153.793 145.248 141.402 154.261 124.474 157.947C123.507 158.157 122.42 158.037 121.65 158.846C121.645 159.145 121.639 159.444 121.634 159.743C121.812 164.108 122.561 168.354 124.399 172.375C131.245 186.063 147.001 185.52 157.036 179.029C165.44 173.593 169.983 165.549 171.978 156.053C172.233 154.835 172.37 153.552 171.516 152.43C169.967 146.267 169.116 139.982 168.084 133.729C167.677 131.266 167.547 128.746 166.511 126.411C165.716 125.638 164.679 125.762 163.702 125.721C160.306 125.577 157.141 124.543 154.006 123.385C152.568 123.162 151.819 124.16 151.093 125.058C143.204 134.815 132.642 139.704 120.241 141.4C117.983 141.709 115.67 141.683 113.461 142.333C112.118 144.857 110.22 147.052 108.87 149.576Z" fill="#FEC5AC"/>
<path d="M127.246 233.239C127.766 234.383 128.499 235.069 129.954 234.891C131.127 234.748 132.356 234.759 133.525 234.93C135.874 235.274 136.812 236.667 136.172 238.881C134.686 244.023 133.12 249.143 131.586 254.272C133.119 254.634 133.784 255.682 134.148 257.105C135.509 262.414 136.839 267.722 138.813 272.876C140.522 277.338 142.405 281.721 144.298 286.105C144.548 286.683 144.845 287.249 145.212 287.765C145.785 288.571 146.343 289.573 147.541 289.328C148.689 289.094 149.081 288.013 149.194 287.048C149.514 284.291 150.06 281.551 150.032 278.761C149.98 273.705 150.208 268.654 150.072 263.405C150.567 265.517 149.155 267.606 150.898 269.376C151.903 268.482 151.756 267.286 151.759 266.15C151.77 262.076 151.794 258.003 151.751 253.93C151.828 251.521 151.39 249.128 151.494 246.72C151.421 245.776 151.733 244.444 150.373 244.314C147.888 244.076 148.218 246.536 147.234 247.961C146.252 247.216 145.916 246.189 145.557 245.245C141.502 234.577 137.605 223.892 134.729 212.81C132.657 204.828 131.465 196.616 128.579 188.833C128.39 188.325 128.236 187.782 128.309 187.251C128.828 183.463 127.157 180.248 125.519 177.028C125.11 176.223 124.627 175.458 124.612 174.522C124.596 174.236 124.557 173.954 124.508 173.671C123.477 170.161 121.969 166.778 121.625 163.084C121.551 162.288 121.263 161.509 120.549 160.982C119.571 161.775 117.852 161.067 117.215 162.549C115.24 163.495 115.143 165.377 114.874 167.132C114.267 171.086 115.003 175.021 115.406 178.919C116.309 187.647 117.237 196.388 119.313 204.955C121.243 213.432 123.652 221.796 125.695 230.248C125.964 231.358 125.996 232.604 127.246 233.239Z" fill="#BDE8FC"/>
<path d="M153.554 123.511C156.481 125.777 160 126.078 163.523 126.341C164.514 126.415 165.513 126.39 166.509 126.411C179.182 123.004 185.478 112.92 182.494 100.963C181.438 96.7314 178.502 93.7846 175.646 90.7457C174.81 89.7065 173.826 89.7531 172.763 90.3705C172.051 91.1459 171.938 92.1385 171.718 93.0962C170.845 96.9067 168.609 99.9163 165.815 102.592C165.354 103.033 164.825 103.39 164.227 103.639C163.241 104.051 162.256 104.19 161.414 103.377C160.566 102.558 160.714 101.609 161.161 100.647C161.76 99.3536 162.86 98.601 164.069 97.9019C166.814 96.3146 168.964 91.9115 168.41 88.9158C168.095 87.2166 167.006 86.7313 165.392 87.5391C158.519 88.7325 153.498 92.4748 149.928 98.2129C148.388 102.597 146.896 107.007 147.215 111.73C147.492 115.814 148.564 119.63 151.792 122.552C152.93 122.683 153.382 121.81 153.93 121.124C155.744 118.854 157.172 116.358 158.506 113.806C157.434 116.281 155.889 118.514 154.541 120.85C154.063 121.679 153.191 122.381 153.554 123.511Z" fill="#008EFD"/>
<path d="M114.448 163.714C103.834 168.67 93.4231 174.002 83.2794 179.818C79.3221 182.087 75.4618 184.492 71.9545 187.442C68.6723 190.202 66.6954 193.578 65.7927 197.638C67.4055 199.433 68.6313 201.495 70.0284 203.439C70.5895 204.22 71.0052 205.15 72.0365 205.506C77.8648 203.37 83.3984 200.659 88.7712 197.589C96.841 192.977 104.833 188.215 113.328 184.36C115.034 183.586 115.136 182.294 115.236 180.845C114.973 175.458 114.363 170.085 114.829 164.684C114.859 164.327 114.678 163.999 114.448 163.714Z" fill="#6CBFFD"/>
<path d="M157.064 217.648C164.12 199.123 173.216 181.273 176.655 161.552C177.083 159.095 177.667 156.616 177.095 154.09C175.925 153.721 174.756 153.352 173.587 152.982C172.235 154.716 172.278 156.858 171.846 158.843C170.516 164.962 168.268 170.731 164.431 175.742C159.564 182.097 153.545 186.816 144.987 187.63C143.265 187.794 141.52 186.958 139.859 187.85C139.77 188.112 139.699 188.46 139.915 188.604C144.736 191.824 144.652 197.291 146.181 201.945C147.748 206.716 149.196 211.547 150.261 216.467C150.431 217.252 150.734 218.018 151.1 218.743C152.199 220.926 153.329 221.117 155.094 219.474C155.749 218.864 156.13 217.97 157.064 217.648Z" fill="#90DAFE"/>
<path d="M108.876 149.577C111.118 147.761 112.96 145.693 113.396 142.742C113.439 142.24 115.874 142.141 113.661 141.258C112.66 140.86 113.277 139.85 112.847 139.238C111.554 134.945 108.137 132.255 103.141 131.797C101.23 131.622 99.2879 131.766 97.3609 131.764C93.8246 132.561 91.1809 134.501 89.7225 137.755C89.2492 138.811 88.5133 138.911 87.5785 139.034C81.5675 139.829 75.5569 140.629 69.554 141.48C66.424 141.923 64.6767 143.577 64.8474 145.773C65.018 147.969 67.3153 149.813 70.2422 149.805C76.5059 149.788 82.7059 148.897 88.9273 148.309C89.9021 148.217 90.8875 147.768 91.7901 148.622C96.6581 153.229 102.048 152.542 107.605 150.063C108.018 149.878 108.452 149.738 108.876 149.577Z" fill="#012359"/>
<path d="M257.178 183.553C261.917 186.242 266.916 185.299 271.87 184.465C275.038 183.932 278.001 182.71 280.933 181.446C282.188 181.215 283.426 180.95 284.217 179.824C289.476 177.021 293.871 173.306 297.014 168.275C297.732 167.124 298.338 165.936 298.68 164.608C299.982 159.558 297.963 156.706 292.596 156.098C292.363 155.936 292.051 155.793 291.829 155.926C281.491 162.112 270.999 168.094 262.458 176.695C261.237 177.924 259.589 178.705 258.545 180.091C257.789 181.096 256.383 181.937 257.178 183.553Z" fill="#66B0BF"/>
<path d="M55.2242 231.077C56.9193 232.313 58.9234 231.671 60.7588 231.819C65.7511 232.22 70.7685 232.323 75.776 232.545C77.0543 232.293 78.3464 232.453 79.6315 232.431C82.3744 232.383 82.7448 231.981 82.0384 229.418C80.506 223.859 78.3916 218.503 75.9449 213.271C73.957 209.02 71.5995 204.974 68.7923 201.181C67.9839 200.088 67.2827 198.899 65.7276 198.694C63.5135 205.66 61.3063 212.628 59.0757 219.589C58.8075 220.427 58.4115 221.225 58.075 222.041C57.1248 225.054 56.1745 228.066 55.2242 231.077Z" fill="#1499F2"/>
<path d="M164.323 72.1285C164.846 76.1935 164.478 80.3413 165.52 84.3581C167.575 86.0948 168.824 86.1205 171.136 84.4787C171.983 82.696 171.162 80.9542 170.948 79.2066C170.775 77.786 170.51 76.3713 170.235 74.9633C169.876 73.1229 170.616 72.2372 172.545 72.2545C173.463 72.2628 174.394 72.3202 175.299 72.1854C176.129 72.0618 177.244 72.3082 177.429 71.0191C176.641 70.2676 176.613 69.2361 176.422 68.2859C173.641 54.4498 164.855 46.0124 151.356 41.8771C143.389 39.4364 135.267 39.0381 127.041 40.4555C125.331 40.7501 123.594 40.8935 121.87 41.1066C123.19 42.581 124.96 41.8478 126.534 41.9687C138.369 42.8775 149.126 46.318 157.49 54.9482C161.763 59.3582 164.534 64.5836 164.666 70.858C164.676 71.3314 164.57 71.739 164.323 72.1285Z" fill="#018CF8"/>
<path d="M264.971 220.75C267.321 227.74 269.922 234.655 271.565 241.855C272.037 246.463 273.446 250.796 275.595 254.912C277.179 253.784 278.826 252.736 280.285 251.444C281.967 249.351 284.18 247.433 282.496 244.314C282.105 243.59 282.824 242.981 283.118 242.346C284.635 235.339 284.499 228.448 281.191 221.905C277.693 214.985 272.015 214.156 266.471 219.631C266.022 220.075 265.658 220.615 264.971 220.75Z" fill="#25A6FE"/>
<path d="M257.178 183.553C257.526 182.108 258.419 180.951 259.511 180.026C265.975 174.548 272.076 168.647 279.454 164.241C283.032 162.104 286.309 159.466 290.384 158.215C291.555 157.855 291.169 156.105 292.597 156.098C288.971 154.985 285.321 155.542 281.736 156.16C272.471 157.757 264.204 161.405 257.478 167.989C255.291 170.13 253.802 172.694 253.005 175.604C252.049 179.092 253.737 182.232 257.178 183.553Z" fill="#7CBCCD"/>
<path d="M65.7235 198.694C70.9902 203.034 73.0585 209.317 75.9426 215.048C78.2325 219.599 79.8203 224.47 81.331 229.347C82.0014 231.512 81.6853 232.347 79.254 232.198C78.1076 232.128 76.8642 231.823 75.7717 232.545C78.685 232.608 81.598 232.672 84.5112 232.735C87.2591 233.373 90.0864 232.573 92.8362 233.173C103.7 233.658 114.563 234.143 125.426 234.627C126.021 233.206 125.646 231.785 125.288 230.418C124.324 226.729 124.078 222.829 121.998 219.457C120.388 218.485 119.046 219.292 117.633 220.014C110.629 223.589 103.558 227.028 96.1288 229.711C92.9822 230.848 89.6532 230.972 86.3816 231.41C84.5816 231.651 83.4118 231.056 82.9927 229.145C82.4343 226.599 81.1272 224.28 80.4098 221.773C78.5559 216.736 76.4405 211.814 73.7001 207.162C73.2378 206.378 72.6834 205.689 71.9313 205.156C70.6307 203.224 69.3273 201.294 68.0305 199.36C67.4797 198.539 66.9902 197.65 65.788 197.638C65.7666 197.99 65.7451 198.342 65.7235 198.694Z" fill="#148BE4"/>
<path d="M320.783 198.675C311.809 192.996 302.059 189.316 291.447 187.86C289.757 187.405 287.992 187.917 286.286 187.44C285.402 187.193 284.717 187.721 284.231 188.447C283.657 188.77 283.084 189.092 282.511 189.415C282.312 189.87 282.381 190.325 282.693 190.674C287.328 195.859 292.609 200.197 299.324 202.649C305.789 202.795 312.213 202.453 318.504 200.915C319.562 200.656 321.287 200.626 320.783 198.675Z" fill="#36A1BD"/>
<path d="M121.65 158.846C128.152 158.58 133.986 156.218 139.589 153.26C150.067 147.729 157.334 139.516 161.046 128.411C161.152 128.094 161.208 127.762 160.892 127.202C159.686 128.761 158.551 130.379 157.262 131.87C148.754 141.723 138.076 148.127 125.155 150.911C123.463 151.276 121.742 151.515 120.035 151.812C121.344 153.989 121.176 156.487 121.65 158.846Z" fill="#EA8B67"/>
<path d="M139.875 187.958C147.871 189.191 154.488 186.614 160.31 181.3C168.746 173.6 172.127 163.742 173.585 152.982C172.895 152.798 172.205 152.614 171.516 152.43C170.687 163.587 165.738 172.603 156.137 178.735C149.617 182.899 142.302 183.984 134.761 181.314C130.188 179.695 127.446 176.076 124.967 172.245C124.284 172.578 124.47 173.452 123.909 173.861C123.888 174.059 123.866 174.258 123.844 174.457C126.295 179.966 129.422 184.909 135.46 187.326C136.856 187.884 138.256 188.743 139.875 187.958Z" fill="#6DD4FD"/>
<path d="M320.791 198.676C319.661 200.51 317.549 200.577 315.843 200.784C310.142 201.476 304.417 202.153 298.644 201.965C298.583 203.308 299.757 203.647 300.624 204.148C302.321 205.13 304.142 205.895 305.87 206.83C312.248 209.817 318.892 212.081 325.759 213.717C328.695 214.417 331.362 213.484 333.934 212.192C333.442 208.822 331.008 206.688 328.683 204.536C326.278 202.311 323.661 200.323 320.791 198.676Z" fill="#4EA0AA"/>
<path d="M333.936 212.193C333.676 212.114 333.339 211.892 333.168 211.979C327.79 214.71 322.817 212.222 317.854 210.714C313.772 209.474 309.838 207.773 305.839 206.276C302.342 206.679 300.249 208.742 299.699 212.327C308.542 216.884 317.75 219.921 327.924 218.106C332.285 217.328 334.092 215.295 333.936 212.193Z" fill="#53938A"/>
<path d="M299.687 212.326C301.113 209.711 302.723 207.273 305.827 206.275C303.652 204.485 300.64 204.023 298.634 201.965C292.445 198.776 286.865 194.844 282.509 189.416C280.191 191.545 279.887 193.136 281.433 196.377C283.131 199.937 285.834 202.746 288.819 205.314C289.646 206.025 290.476 206.732 291.305 207.441C292.202 208.239 292.632 209.653 294.218 209.543C296.041 210.471 297.864 211.399 299.687 212.326Z" fill="#39939B"/>
<path d="M164.328 72.1291C166.504 70.9279 165.39 69.0345 165.088 67.5651C163.61 60.3747 159.571 54.6637 153.556 50.3978C144.138 43.7188 133.449 40.9053 121.872 41.1073C117.547 41.3393 113.47 42.4029 109.779 44.6681C108.953 45.1748 108.041 45.6611 107.717 46.6851C107.874 46.8446 108.03 47.0033 108.187 47.1621C112.243 46.0345 116.045 44.104 120.3 43.5919C121.396 43.4599 122.498 43.4519 123.593 43.319C124.255 43.2386 123.471 43.8099 123.772 43.9786C134.494 42.0693 143.466 46.0304 151.855 51.9378C157.508 55.9183 160.861 61.4514 163.028 67.767C163.521 69.2017 163.898 70.674 164.328 72.1291Z" fill="#0F2040"/>
<path d="M177.436 71.0185C175.923 71.9744 174.24 71.4199 172.643 71.4723C169.082 71.5888 168.93 71.8869 169.512 75.4731C169.992 78.4351 170.86 81.3512 170.839 84.3855C171.42 85.0467 172.207 85.0818 173.011 85.0702C174.356 84.8153 175.812 84.8613 176.859 83.7653C177.974 82.5776 180.489 82.8241 180.598 80.7175C180.754 77.7131 180.414 74.6999 179.733 71.7623C179.471 70.6337 178.354 70.8438 177.436 71.0185Z" fill="#0353B1"/>
<path d="M320.767 253.211C320.392 252.664 320.016 252.116 319.64 251.568C315.118 247.809 311.187 243.52 307.617 238.9C306.92 237.998 306.627 236.473 304.871 236.995C304.234 240.402 305.259 243.517 306.648 246.566C306.988 247.314 307.973 247.975 306.944 248.886C306.583 250.738 308.559 249.82 309.094 250.609C310.308 253.266 312.785 255.022 314.258 257.493C315.251 257.462 315.653 256.769 315.993 256.014C316.907 253.981 318.49 253.035 320.767 253.211Z" fill="#39929A"/>
<path d="M294.228 209.543C293.257 208.842 292.286 208.141 291.314 207.44C293.507 219.47 291.017 230.825 286.138 241.847C285.597 243.069 285.215 244.359 284.76 245.618C284.463 246.965 284.354 248.173 286.433 247.749C290.295 239.91 293.322 231.811 294.464 223.129C295.062 218.59 295.009 214.06 294.228 209.543Z" fill="#5BAEC5"/>
<path d="M114.45 163.714C113.43 167.838 113.815 172.024 114.12 176.165C114.25 177.929 114.35 179.696 114.44 181.464C114.236 186.81 114.931 192.08 115.856 197.331C116.213 199.36 116.574 201.387 117.158 203.37C117.418 204.12 117.668 204.877 118.326 205.411C118.978 205.697 119.586 205.706 120.1 205.136C117.99 194.772 116.585 184.314 115.846 173.777C115.58 169.974 114.948 166.08 117.217 162.549C116.078 162.448 115.255 163.061 114.45 163.714Z" fill="#2680C8"/>
<path d="M286.431 247.749C284.99 247.698 285.102 246.488 284.758 245.618C283.681 246.213 283.27 245.658 283.183 244.699C283.112 243.919 283.139 243.131 283.123 242.346C281.864 242.953 280.947 243.575 282.167 245.105C283.188 246.386 282.448 247.601 281.602 248.719C281.017 249.491 280.47 250.289 279.905 251.075C280.223 251.512 280.631 251.785 281.207 251.743C282.32 251.314 282.167 249.883 283.329 249.284C284.504 250.033 283.692 251.355 284.119 252.295C285.342 254.564 286.247 256.832 284.124 259.103C284.806 261.166 283.038 260.461 282.242 260.548C280.548 260.735 278.77 260.566 277.855 262.431C277.659 263.472 277.929 264.383 278.655 265.166C281.1 265.058 283.48 266.2 285.956 265.533C286.136 264.774 287.707 264.052 286.451 263.302C283.675 261.645 285.404 261.544 287.051 261.18C287.647 261.048 288.174 260.618 288.733 260.325C288.63 259.223 289.831 258.595 289.803 257.521C289.447 257.477 288.812 257.507 288.775 257.377C287.877 254.196 285.775 251.286 286.431 247.749Z" fill="#25A6FE"/>
<path d="M289.803 257.522C288.848 258.239 287.05 258.65 288.732 260.325C295.182 258.736 300.949 255.793 306.284 251.972C307.126 251.369 307.815 250.381 309.097 250.61C308.71 249.645 307.187 250.026 306.947 248.886C302.08 251.823 297.308 254.93 291.872 256.841C291.188 257.082 290.493 257.296 289.803 257.522Z" fill="#53A9B8"/>
<path d="M284.233 188.447C286.566 187.397 289.059 188.227 291.45 187.86C286.403 188.316 285.864 184.242 284.384 181.139C284.202 180.757 284.264 180.265 284.213 179.824C282.985 180.108 281.868 180.606 280.928 181.445C282.52 183.559 283.936 185.752 284.233 188.447Z" fill="#98CDD2"/>
<path d="M123.916 173.86C125.11 173.846 124.879 172.944 124.973 172.245C123.863 168.778 122.83 165.297 122.469 161.66C122.4 160.969 122.322 160.214 121.641 159.743C121.279 160.156 120.916 160.569 120.554 160.982C120.933 165.459 122.254 169.702 123.916 173.86Z" fill="#43A9E0"/>
<path d="M176.855 83.7651C175.562 83.795 174.303 83.9893 173.107 84.4914C171.817 86.4859 171.796 88.4873 173.073 90.4956C173.931 90.5791 174.79 90.6626 175.648 90.7458C176.928 88.5629 176.634 86.1217 176.855 83.7651Z" fill="#5A5059"/>
<path d="M150.467 269.521C150.467 267.331 150.467 265.141 150.467 262.951C149.977 268.295 149.04 273.582 149.23 278.947C149.32 281.508 148.935 284.101 148.574 286.654C148.461 287.447 148.443 288.751 147.435 288.914C146.405 289.081 146.035 287.912 145.678 287.118C144.026 283.439 142.291 279.788 140.827 276.037C138.323 269.621 136.249 263.072 134.729 256.352C134.442 255.082 134.459 252.295 131.584 254.272C130.431 256.306 129.907 258.496 129.887 260.81C129.415 261.53 129.337 262.315 129.485 263.137C129.915 267.003 129.648 270.877 129.647 274.748C129.615 276.73 129.546 278.712 129.861 280.682C130.639 284.271 130.133 287.898 130.189 291.508C130.311 298.277 129.648 305.075 130.935 311.801C132.665 315.142 136.106 315.996 139.283 317.239C142.86 317.5 145.448 315.061 148.551 314.009C149.793 313.481 150.857 312.791 151.111 311.356C151.506 301.661 151.195 291.964 151.285 282.269C151.314 279.127 151.316 275.983 151.274 272.841C151.258 271.686 151.361 270.482 150.467 269.521Z" fill="#C9ECFB"/>
<path d="M129.991 262.915C129.957 262.213 129.922 261.512 129.888 260.81C128.155 262.403 128.298 264.663 127.7 266.659C126.951 275.867 128.525 285.049 128.017 294.256C127.918 296.051 127.884 297.821 127.31 299.564C126.668 301.513 125.317 302.496 123.326 302.797C120.615 303.207 119.599 302.294 119.748 299.583C119.801 298.604 120.155 297.62 119.848 296.648C119.601 295.867 119.202 295.208 118.433 296.318C115.475 305.671 112.516 315.024 109.558 324.378C110.209 325.265 109.555 326.116 109.452 326.969C109.11 329.803 110.163 331.223 113.1 331.531C115.391 331.77 117.703 331.602 120.006 331.629C120.927 331.64 121.849 331.608 122.769 331.67C128.266 332.041 129.227 332.956 129.709 338.276C129.782 339.082 129.925 339.878 130.034 340.679C130.578 344.699 130.521 344.778 126.598 345.907C126.066 346.059 125.525 346.228 125.529 346.926C127.534 346.922 129.538 346.918 131.543 346.913C132.511 346.01 132.456 344.815 132.456 343.669C132.451 336.462 132.57 329.254 132.394 322.048C132.471 321.537 132.474 321.026 132.404 320.515C132.249 317.859 132.981 315.124 131.688 312.564C130.968 305.632 130.859 298.68 130.964 291.72C130.35 288.068 131.134 284.364 130.539 280.711C130.497 278.81 130.455 276.909 130.413 275.008C129.785 270.993 130.59 266.931 129.991 262.915Z" fill="#014290"/>
<path d="M125.528 346.927C126.034 346.408 126.698 346.478 127.333 346.491C131.369 346.571 131.083 346.703 130.997 342.853C130.943 340.457 130.729 338.048 130.347 335.682C129.797 332.275 127.925 331.035 123.227 330.867C120.293 330.763 117.351 330.854 114.413 330.844C110.376 330.83 109.578 329.946 110.113 325.995C110.205 325.317 110.788 324.583 109.557 324.378C107.602 330.465 105.64 336.55 103.699 342.642C103.242 344.078 102.861 345.537 102.444 346.985C110.139 346.966 117.833 346.946 125.528 346.927Z" fill="#00337C"/>
<path d="M118.43 296.318C119.51 295.889 119.528 296.578 119.337 297.234C119.035 298.273 118.828 299.297 118.841 300.388C118.873 303.043 120.348 304.251 123.141 303.82C126.489 303.303 128.477 301.514 128.7 297.657C129.267 287.838 128.5 278.021 128.125 268.207C128.105 267.687 127.845 267.175 127.697 266.66C124.608 276.546 121.519 286.432 118.43 296.318Z" fill="#0453A7"/>
<path d="M120.1 205.135C119.521 205.17 118.943 205.204 118.365 205.239C117.725 206.476 118.267 207.682 118.563 208.848C119.493 212.509 119.891 216.318 121.671 219.749C123.243 224.003 124.184 228.406 124.944 232.854C125.047 233.455 125.268 234.037 125.434 234.627C126.77 235.074 127.386 234.624 127.248 233.239C124.865 223.871 122.482 214.503 120.1 205.135Z" fill="#1068AE"/>
<path d="M92.8418 233.173C90.1152 232.157 87.2923 232.877 84.517 232.735C87.2547 233.55 90.0589 233.168 92.8418 233.173Z" fill="#2B9BED"/>
<path d="M285.951 265.533C283.584 264.934 281.244 263.971 278.753 265.015C278.026 265.837 278.44 266.705 278.697 267.53C280.018 271.77 281.133 276.065 282.291 280.347C282.701 281.935 282.624 283.669 283.745 285.046C284.978 284.135 285.938 283.964 287 285.489C287.636 286.402 288.238 287.739 289.793 287.721C296.131 288.772 302.52 288.045 308.883 288.219C310.218 288.255 311.369 287.705 312.028 286.457C306.406 278.46 298.863 272.583 290.33 267.808C288.896 267.005 287.412 266.289 285.951 265.533Z" fill="#3BA2BD"/>
<path d="M320.194 307.127C318.844 305.716 317.286 304.652 315.203 304.977C309.501 305.868 304.878 303.841 300.849 300.103C296.913 298.62 294.542 300.316 294.595 304.571C294.648 304.841 294.742 305.103 294.862 305.353C295.431 306.475 296.474 307.078 297.545 307.649C299.048 308.907 300.55 310.166 302.053 311.424C304.61 312.807 307.158 314.328 310.12 314.604C315.368 315.092 318.408 314.438 320.194 307.127Z" fill="#72987F"/>
<path d="M284.256 284.969C283.455 283.472 283.289 281.826 283.069 280.191C281.572 280.573 281.961 281.822 281.844 282.802C281.521 285.495 282.645 288.075 282.681 290.688C281.903 291.188 281.471 290.679 281.176 290.317C277.372 285.638 272.302 285.859 267.36 287.483C262.744 289.001 258.295 290.22 253.388 289.227C251.599 288.864 249.739 289.53 247.929 289.799C242.946 290.542 237.909 290.911 232.998 292.179C229.535 293.072 229.139 292.751 228.663 289.369C228.25 286.433 226.214 283.95 226.358 280.872C226.382 280.36 225.747 280.022 225.116 280.042C223.644 282.276 224.313 284.702 224.576 287.04C224.837 289.362 224.915 291.657 224.692 293.979C224.006 301.123 219.773 305.668 213.424 308.674C206.768 311.932 199.926 314.8 193.168 317.845C192.203 318.28 190.986 318.514 190.908 319.902C190.959 320.683 191.448 321.212 192.035 321.656C199.879 327.578 204.849 335.433 208.171 344.403C208.383 344.975 208.486 345.635 209.183 345.905C209.705 346.99 210.665 346.999 211.72 346.996C226.893 346.964 242.066 346.967 257.239 346.93C258.326 346.927 259.412 346.68 260.499 346.546C261.441 346.934 262.332 346.566 263.137 346.22C273.629 341.72 280.939 334.19 285.394 323.942C285.807 322.99 285.457 321.987 285.82 321.06C286.237 319.293 286.653 317.526 287.07 315.758C287.649 314.649 288.087 313.495 288.259 312.253C288.674 306.026 287.598 299.932 286.542 293.836C285.834 290.868 286.221 287.63 284.256 284.969Z" fill="#0152A9"/>
<path d="M209.189 345.905C206.456 335.964 200.831 327.856 192.772 321.29C192.287 320.895 191.805 320.496 191.321 320.099C190.58 319.111 189.503 318.628 188.373 318.211C184.061 316.619 180.072 314.43 176.055 312.231C167.698 307.655 159.085 307.799 150.48 311.767C150.209 312.981 148.816 312.831 148.161 313.579C148.566 315.846 150.58 315.895 152.257 316.331C153.376 316.623 154.6 316.344 155.704 316.82C158.707 317.637 161.779 318.267 164.503 319.862C164.975 320.139 165.428 320.427 165.842 321.298C160.659 322.905 155.271 322.791 150.203 324.163C147.893 327.282 149.639 330.168 150.885 332.982C152.005 335.512 154.423 335.565 156.798 335.248C158.287 335.049 159.853 335.419 160.828 335.081C158.668 335.108 156.063 335.463 153.418 335.509C152.055 335.533 150.498 335.353 149.722 336.77C148.866 338.334 150.078 339.493 150.91 340.637C154.366 345.388 157.136 346.393 162.659 344.968C162.986 344.8 162.848 345.368 162.756 345.02C162.714 344.861 162.642 344.892 162.489 344.932C161.778 345.118 161.238 345.59 161.473 346.251C161.824 347.239 163.002 346.428 163.639 346.956C178.095 346.978 192.551 346.998 207.007 347.025C207.951 347.027 208.89 347.073 209.189 345.905Z" fill="#FEC6AD"/>
<path d="M131.732 321.852C131.667 330.206 131.603 338.56 131.539 346.914C137.377 346.954 143.216 346.971 149.054 347.057C150.327 347.076 150.916 346.596 150.953 345.394C151.399 344.029 150.386 343.228 149.662 342.352C146.546 338.588 144.407 334.188 141.386 330.36C140.398 329.108 141.173 327.785 141.544 326.518C142.323 323.86 141.932 323.075 139.172 323.217C136.514 323.353 134.273 321.944 131.732 321.852Z" fill="#27A8FA"/>
<path d="M131.741 321.853C134.039 323.651 136.779 323.894 139.556 323.867C141.432 323.849 141.857 324.516 141.019 326.12C139.835 328.383 140.169 330.066 141.878 332.345C145.05 336.571 147.927 341.046 150.963 345.395C151.541 346.48 152.273 347.095 153.712 347.034C157.017 346.892 160.332 346.969 163.642 346.957C161.645 346.478 161.486 345.633 164.113 344.073C160.028 344.952 156.986 345.53 154.228 343.267C152.501 341.849 151.243 340.081 150.185 338.245C149.271 336.659 150.691 336.236 152.022 336.255C155.52 336.304 158.955 335.845 162.371 335.18C162.793 335.097 163.323 335.145 163.347 334.264C160.461 334.753 157.581 334.537 154.71 334.65C153.211 334.709 152.245 334.184 151.639 332.903C150.366 330.215 149.081 327.529 150.397 324.479C149.872 323.666 148.973 323.824 148.191 323.657C145.91 323.167 145.41 321.82 146.875 320.005C147.982 318.632 149.372 317.75 151.226 317.461C152.813 317.213 154.542 317.355 155.921 316.276C154.949 315.322 153.702 315.948 152.603 315.726C150.935 315.39 149.29 314.989 148.164 313.58C145.132 314.293 142.739 316.659 139.474 316.772C136.76 317.714 133.754 318.09 131.801 320.515C131.781 320.961 131.761 321.407 131.741 321.853Z" fill="#ECB9A7"/>
<path d="M285.819 321.06C281.295 333.253 273.042 341.925 260.499 346.546C261.399 347.25 263.029 347.372 262.64 349.101C264.564 349.466 266.413 348.695 267.955 348.002C273.528 345.5 280.104 345.786 285.189 342.098C291.718 337.362 292.559 329.413 287.26 323.285C286.666 322.6 285.944 322.022 285.819 321.06Z" fill="#9FD5F4"/>
<path d="M287.577 312.507C287.011 313.533 286.977 314.637 287.075 315.759C290.022 313.767 292.804 311.583 295.292 309.053C295.918 308.417 296.49 307.653 297.545 307.65C296.789 306.947 296.034 306.244 295.279 305.541C291.956 307.069 289.607 309.621 287.577 312.507Z" fill="#B2DFE4"/>
<path d="M284.259 284.97C284.795 287.857 285.331 290.743 285.867 293.63C287.403 298.037 290.9 301.095 293.804 304.557C294.145 304.963 294.662 305.211 295.261 305.118C294.892 301.137 296.025 300.119 300.847 300.103C297.777 296.852 294.474 293.812 291.63 290.352C290.939 289.512 290.239 288.71 289.796 287.72C288.717 286.514 287.611 285.33 286.57 284.092C286.076 283.504 285.807 282.419 284.838 282.789C283.931 283.136 284.339 284.2 284.259 284.97Z" fill="#55958E"/>
<path d="M225.055 280.161C225.334 280.385 225.884 280.658 225.852 280.826C225.089 284.833 228.424 287.926 228.381 291.778C228.362 293.485 229.474 293.859 231.033 293.417C237.899 291.474 245.057 291.176 252.045 289.912C253.024 289.735 254.036 289.985 255.043 290.122C257.848 290.503 260.651 290.835 263.41 289.564C266.488 288.146 269.84 287.599 273.202 287.189C275.372 286.924 277.166 287.743 278.742 289.093C279.501 289.744 280.154 290.512 280.909 291.168C281.557 291.731 282.112 292.886 283.138 292.323C284.204 291.737 283.751 290.533 283.512 289.632C282.84 287.103 282.443 284.559 282.59 281.943C282.624 281.322 282.513 280.672 283.069 280.191C281.629 275.133 280.19 270.074 278.751 265.015C278.538 264.136 278.325 263.257 278.113 262.378C278.436 261.129 277.968 259.961 277.73 258.767C277.143 257.395 277.445 255.614 275.79 254.731C274.381 250.439 272.972 246.147 271.563 241.855C270.86 241.863 270.274 241.601 269.983 240.975C267.781 236.233 263.002 235.758 258.73 235.007C255.757 234.484 252.557 234.625 249.434 235.236C246.323 235.846 243.054 235.44 239.945 235.242C235.045 234.931 230.77 236.279 226.562 238.219C223.61 239.579 221.832 238.756 221.791 235.48C221.758 232.78 220.596 230.382 220.121 227.812C219.531 228.274 219.384 228.921 219.328 229.607C219.259 234.722 220.831 239.664 220.868 244.801C220.917 251.61 221.881 258.386 222.669 265.146C223.188 269.589 223.657 274.046 224.288 278.48C224.378 279.108 224.531 279.717 225.055 280.161Z" fill="#0065C1"/>
<path d="M220.047 229.581C220.073 228.992 220.1 228.402 220.126 227.813C220.122 227.543 220.12 227.275 220.111 227.006C219.779 216.619 218.061 216.72 208.026 216.721C203.305 216.721 198.484 217.267 193.772 216.936C189.457 216.633 185.166 216.891 180.966 217.238C176.325 217.622 171.611 216.996 167.034 218.132C166.595 218.241 166.112 218.187 165.678 218.306C160.82 219.636 160.37 219.308 160.347 214.367C157.592 220.438 156.185 226.878 154.815 233.336C153.661 238.779 152.943 244.241 153.14 249.819C153.311 254.675 155.712 256.481 160.274 254.725C164.275 253.184 168.395 252.598 172.633 252.667C184.123 252.854 195.588 251.728 207.082 252.099C210.198 252.2 213.227 252.352 216.081 253.869C218.087 254.935 219.468 253.755 219.517 250.978C219.599 246.313 219.561 241.647 219.574 236.981C220.615 235.595 219.752 234.11 219.818 232.674C219.865 231.642 219.567 230.583 220.047 229.581Z" fill="#0061BA"/>
<path d="M125.182 90.2139C122.898 90.4142 120.405 90.1416 117.958 90.7017C115.329 91.3036 114.662 93.1284 116.421 95.1301C117.427 96.2739 118.769 96.8318 120.307 96.8864C125.288 97.0633 130.194 96.4936 135.042 95.4111C136.114 95.1717 137.39 94.9155 137.468 93.6044C137.552 92.1837 136.252 91.7414 135.142 91.3036C131.989 90.0599 128.662 90.2503 125.182 90.2139Z" fill="#5E464F"/>
<path d="M117.187 129.16C115.075 128.849 115.513 127.417 115.773 126.077C116.297 123.386 115.828 122.752 113.303 123.386C109.256 124.402 105.999 123.848 104.179 119.635C102.253 123.195 102.64 125.397 105.588 128.373C109.927 132.753 115.947 133.569 122.319 130.604C121.649 129.881 120.516 130.596 119.907 129.835C119.185 128.905 118.257 128.76 117.187 129.16Z" fill="#DF886B"/>
<path d="M112.848 139.237C112.839 140.078 112.411 141.011 113.541 141.563C114.492 142.027 113.246 142.321 113.396 142.742C129.18 141.954 142.936 137.077 152.739 124.215C152.952 123.936 153.286 123.744 153.563 123.511C155.413 120.418 157.307 117.349 159.075 114.211C159.41 113.617 160.168 112.501 159.201 112.085C158.011 111.573 158.155 112.998 157.841 113.61C156.186 116.826 154.384 119.939 151.8 122.553C144.174 133.078 133.534 138.631 120.653 140.475C119.016 140.71 117.345 140.77 115.731 141.101C114.012 141.453 113.194 140.762 112.848 139.237Z" fill="#282E4D"/>
<path d="M98.8163 93.0986C97.061 93.2959 95.1407 93.4265 93.2559 93.7522C91.8947 93.9875 90.5498 94.4059 90.5527 96.2142C90.5552 97.8493 91.3427 99.0545 92.8396 99.5103C95.6277 100.359 98.4962 99.9401 101.195 99.1373C103.353 98.4958 103.109 96.4472 102.773 94.8088C102.354 92.762 100.477 93.1983 98.8163 93.0986Z" fill="#5F4552"/>
<path d="M117.194 129.161C118.027 129.668 118.975 129.734 119.913 129.835C123.561 129.926 127.09 129.691 129.582 126.55C129.904 126.146 130.53 125.802 130.2 125.207C129.892 124.651 129.176 124.714 128.72 124.894C125.068 126.334 121.268 127.254 117.441 128.095C116.745 128.248 117.082 128.76 117.194 129.161Z" fill="#FDF9F7"/>
<path d="M123.769 102.059C123.875 103.413 124.68 104.331 126.176 104.328C127.731 104.325 128.851 103.513 128.782 101.872C128.719 100.375 127.587 99.6666 126.183 99.6404C124.706 99.6128 123.785 100.386 123.769 102.059Z" fill="#1B2442"/>
<path d="M97.1335 104.212C97.2572 105.633 98.097 106.474 99.594 106.478C100.971 106.482 101.835 105.679 101.925 104.335C102.026 102.813 101.056 101.958 99.6239 101.862C98.1083 101.761 97.2966 102.688 97.1335 104.212Z" fill="#1E2341"/>
<path d="M173.073 90.4967C173.084 88.495 173.096 86.4933 173.107 84.4921C172.35 84.4573 171.593 84.422 170.836 84.3866C169.059 85.3045 167.289 85.0166 165.522 84.3584C164.267 85.3718 164.776 86.4541 165.393 87.5404C167.408 87.4529 168.101 88.1684 167.7 90.2709C167.072 93.5647 166.385 96.6107 162.592 97.8709C161.901 98.1004 161.311 98.8908 160.886 99.5519C159.986 100.956 159.223 102.521 160.704 103.968C162.267 105.495 164.104 104.904 165.456 103.789C168.886 100.957 171.435 97.4815 172.465 93.108C172.67 92.238 172.871 91.3671 173.073 90.4967Z" fill="#071E48"/>
<path d="M123.77 43.9775C124.139 43.7333 124.507 43.489 124.856 43.2576C120.41 42.0547 114.034 43.5413 108.187 47.1614C111.938 47.4334 115.172 45.4798 118.711 44.8238C120.393 44.5118 122.012 43.8564 123.77 43.9775Z" fill="#0F58A1"/>
<path d="M150.484 311.767C152.937 311.21 155.371 310.546 157.847 310.118C164.813 308.915 171.362 309.713 177.336 313.825C181.573 316.741 186.514 318.318 191.325 320.1C191.327 319.149 192.126 319.071 192.782 318.78C199.321 315.885 205.852 312.974 212.376 310.049C212.775 309.871 213.104 309.544 213.465 309.287C215.62 302.332 218.459 295.56 219.381 288.276C219.547 286.967 220.118 285.619 218.964 284.448C217.721 285.595 216.507 286.038 214.587 285.667C211.119 284.996 207.568 285.109 203.972 285.441C199.229 285.878 194.407 285.68 189.627 285.519C182.086 285.265 174.595 286.26 167.056 286.164C163.811 286.123 160.834 288.093 157.371 287.773C153.739 287.438 152.619 286.619 152.615 283.104C152.604 273.056 152.682 263.006 152.546 252.96C152.505 249.977 152.381 246.945 151.537 244.021C150.94 244.707 151.353 245.522 151.234 246.269C151.132 248.747 151.451 251.236 151.047 253.707C150.855 258.978 150.664 264.249 150.473 269.52C150.476 281.09 150.478 292.66 150.481 304.23C150.481 306.743 150.483 309.255 150.484 311.767Z" fill="#01377D"/>
<path d="M151.416 246.053C151.454 245.376 151.493 244.698 151.532 244.021C151.498 236.784 153.662 229.943 155.515 223.048C156 221.24 156.545 219.447 157.062 217.647C155.676 216.586 155.405 218.005 154.859 218.643C154.339 219.252 154.021 220.18 153.054 220.071C152.087 219.962 151.844 218.995 151.629 218.263C150.076 212.951 148.585 207.621 147.075 202.297C146.15 199.036 145.238 195.772 144.298 192.516C143.644 190.252 141.505 189.334 139.876 187.957C132.625 186.659 128.185 182.023 124.902 175.999C124.606 175.456 124.199 174.969 123.844 174.457C123.756 176.678 125.561 178.143 126.227 180.087C127.012 182.378 128.072 184.486 127.435 187.065C127.014 188.771 128.503 190.221 128.868 191.885C130.054 197.292 131.249 202.701 132.658 208.055C135.75 219.807 138.946 231.528 143.844 242.739C144.873 245.094 145.601 247.552 147.202 249.758C148.24 248.622 148.439 247.374 148.716 246.178C148.89 245.423 149.098 244.703 150.002 244.69C151.123 244.673 150.815 245.664 151.008 246.288C151.245 246.376 151.376 246.29 151.416 246.053Z" fill="#A8E2FE"/>
<path d="M218.965 284.448C218.544 291.618 216.47 298.402 213.975 305.1C213.484 306.418 212.163 307.727 213.466 309.286C223.716 304.993 226.33 297.712 225.413 287.629C225.186 285.131 225.163 282.65 225.065 280.161C225.138 273.901 223.683 267.786 223.192 261.576C222.679 255.077 221.878 248.601 221.229 242.112C220.812 237.937 220.443 233.757 220.053 229.58C219.023 231.995 219.83 234.52 219.579 236.981C220.382 237.811 220.067 238.847 220.069 239.797C220.095 250.166 220.13 260.536 220.074 270.905C220.05 275.439 219.611 279.955 218.965 284.448Z" fill="#012660"/>
<path d="M151.413 246.054C151.275 246.13 151.139 246.208 151.005 246.289C151.016 248.762 151.027 251.235 151.038 253.708C151.946 251.193 151.393 248.61 151.413 246.054Z" fill="#014C9E"/>
<path d="M117.731 203.576C116.878 198.03 115.875 192.51 115.195 186.934C114.974 185.122 115.623 183.151 114.433 181.464C114.279 182.268 114.658 183.109 113.41 183.653C107.371 186.283 101.685 189.573 95.9089 192.704C89.1803 196.352 82.9388 200.948 75.4503 203.176C74.0893 203.581 73.4317 205.061 71.9303 205.156C74.4903 209.757 76.7728 214.486 78.8117 219.327C79.1537 220.139 79.3822 220.996 79.663 221.832C83.3421 222.093 86.3967 220.212 89.5169 218.847C97.3407 215.423 104.65 211.039 111.974 206.711C113.859 205.597 115.869 204.718 117.731 203.576Z" fill="#46ACF7"/>
<path d="M117.74 203.576C116.391 203.465 115.28 203.966 114.138 204.648C107.332 208.712 100.449 212.647 93.3914 216.291C88.9889 218.564 84.3465 220.229 79.6707 221.834C80.6493 224.707 81.6834 227.564 82.5803 230.462C83.0001 231.818 83.7609 232.245 85.1735 232.188C90.5207 231.972 95.776 231.169 100.586 228.878C106.757 225.94 113.228 223.578 119.04 219.945C119.941 219.381 120.783 219.649 121.671 219.75C121.069 214.805 119.55 210.058 118.366 205.239C118.265 204.646 118.4 203.969 117.74 203.576Z" fill="#2B9BED"/>
<path d="M280.917 251.549C279.67 254.025 278.422 256.5 277.175 258.975C277.251 260.171 277.392 261.351 278.114 262.379C279.766 260.859 281.852 261.449 283.782 261.238C284.649 261.144 285.743 261.019 285.747 259.861C285.75 258.978 284.803 259.293 284.253 259.124C283.658 258.414 282.744 258.633 281.897 258.455C282.222 256.117 284.771 254.68 284.335 252.173C284.382 252.002 284.402 251.82 284.479 251.664C285.167 250.279 284.802 248.599 283.706 248.182C282.499 247.721 282.12 249.473 281.588 250.444C281.382 250.822 281.142 251.182 280.917 251.549Z" fill="#54B3C7"/>
<path d="M131.795 320.515C134.219 319.008 137.265 318.711 139.468 316.772C136.661 315.744 134.076 314.324 131.687 312.564C131.535 315.218 131.429 317.87 131.795 320.515Z" fill="#27A8FA"/>
<path d="M129.992 262.916C129.95 266.952 129.797 270.991 130.414 275.007C130.294 270.977 131.013 266.917 129.992 262.916Z" fill="#BDE8FC"/>
<path d="M130.535 280.711C130.494 284.387 130.297 288.068 130.96 291.719C130.848 288.05 131.568 284.348 130.535 280.711Z" fill="#BDE8FC"/>
<path d="M155.915 316.276C152.594 316.531 149.108 316.235 146.614 319.117C145.666 320.211 144.61 321.121 145.381 322.839C146.096 324.435 147.342 324.463 148.751 324.418C149.297 324.4 149.844 324.455 150.391 324.478C155.593 324.03 160.735 323.187 165.861 322.235C166.417 322.132 167.135 322.078 167.15 321.49C167.161 321.065 166.697 320.51 166.291 320.214C164.069 318.59 161.539 317.568 158.874 316.864C157.905 316.608 156.902 316.469 155.915 316.276Z" fill="#C6CFE4"/>
<path d="M93.0416 231.505C95.1403 232.556 97.4847 232.324 99.5447 231.942C104.199 231.078 108.879 231.653 113.545 231.19C120.381 230.511 127.302 230.616 134.188 230.455C136.313 230.405 136.824 232.087 137.333 233.656C140.63 243.805 143.939 253.951 147.214 264.107C152.055 279.122 156.829 294.156 161.709 309.159C165.725 321.507 169.836 333.826 173.967 346.138C174.243 346.961 174.201 348.562 175.533 348.301C177.017 348.01 175.722 346.623 175.996 345.765C176.101 345.435 176.033 345.052 176.044 344.694C177.202 343.718 178.623 343.896 179.976 343.897C187.753 343.908 195.53 343.806 203.307 343.947C204.498 343.968 205.688 343.982 206.827 343.561C209.145 343.094 211.407 343.797 213.7 343.902C217.4 344.07 221.029 343.217 224.732 343.344C239.181 343.839 253.636 344.03 268.095 343.906C269.756 343.891 271.416 343.91 273.032 343.459C275.641 343.982 278.517 343.304 280.86 345.072C281.265 346.305 280.827 347.206 279.549 347.456C278.168 347.725 277.42 348.645 276.651 349.612C276.071 347.91 274.951 347.418 273.055 347.423C243.215 347.501 213.374 347.477 183.533 347.514C182.049 347.516 180.765 347.279 179.376 349.028C178.384 350.278 175.129 350.069 172.881 350.081C160.817 350.146 148.753 350.076 136.688 350.053C136.032 348.552 134.685 348.311 133.253 348.338C123.78 348.511 114.311 348.096 104.827 348.678C97.2191 349.145 89.5766 348.803 81.9347 348.434C72.2897 347.969 62.6073 348.339 52.9412 348.303C50.8306 348.296 48.7046 348.507 46.615 348.041C45.6594 347.752 45.0925 347.07 44.8189 346.177C42.6495 339.1 40.1852 332.113 38.044 325.028C35.4159 316.306 32.7673 307.588 29.7446 298.985C29.5065 298.307 29.2729 297.635 29.1921 296.921C26.2367 287.023 22.8805 277.241 20.0811 267.298C19.3668 265.238 18.9704 263.073 17.9167 261.124C17.4132 258.943 16.9064 256.763 16.0412 254.68C14.6448 250.143 13.0578 245.665 11.7301 241.109C10.3947 236.527 11.7078 234.731 16.6107 234.578C18.1275 234.531 19.4935 234.198 20.8106 233.534C21.7402 233.793 22.4414 234.687 23.5497 234.47C24.4516 234.287 25.3395 234.022 26.2565 234.01C35.9441 233.885 45.6047 233.129 55.2854 232.839C58.1254 232.852 60.9785 233.226 63.7927 232.534C66.6784 232.201 69.5792 232.484 72.4692 232.326C77.8513 231.752 83.2847 231.972 88.6629 231.323C90.1276 231.147 91.5941 231.169 93.0416 231.505Z" fill="#BDD7FC"/>
</g>
<defs>
<clipPath id="clip0_127_18404">
<rect width="350" height="350" fill="white"/>
</clipPath>
</defs>
</svg>
