<svg width="646" height="438" viewBox="0 0 646 438" fill="none" xmlns="http://www.w3.org/2000/svg">
<g clip-path="url(#clip0_127_18489)">
<path d="M122.378 279.567C118.976 278.072 115.674 277.114 112.074 276.462C112.801 279.49 113.56 282.749 114.848 285.509L115.212 285.394L115.08 284.78C114.98 284.205 115.047 283.899 114.65 283.439L114.485 283.247L114.815 282.519L115.575 283.209L116.004 282.787L116.07 281.522L116.268 281.024C117.556 280.564 118.448 281.062 119.703 281.369C120.727 280.909 121.486 280.449 122.378 279.567Z" fill="#FBD174"/>
<path d="M141.367 311.23C140.574 310.31 140.145 308.891 139.616 307.78C139.22 306.975 139.187 306.745 138.427 306.515L140.508 311.728C142.754 319.318 144.075 325.911 142.721 333.961L144.141 334.076C145.164 326.755 145.197 317.555 141.367 311.23Z" fill="#040C17"/>
<path d="M157.779 292.408C156.888 295.743 156.062 299.117 155.732 302.605C155.17 308.087 155.534 313.952 155.534 319.51C155.534 324.263 155.303 329.247 155.633 333.962L157.251 333.885C157.218 320.545 155.864 306.745 158.869 293.75C158.638 293.213 158.143 292.792 157.779 292.408Z" fill="#040C17"/>
<path d="M206.193 157.015C205.104 157.36 204.179 157.321 203.585 158.433C203.585 162.19 203.056 183.196 203.948 185.075L206.26 185.726C206.557 185.305 206.59 185.113 206.656 184.576C207.151 180.82 206.722 176.143 206.722 172.271C206.722 167.786 207.151 162.458 206.656 158.088C206.623 157.666 206.425 157.321 206.193 157.015Z" fill="#111334"/>
<path d="M147.41 277.535L146.882 277.65L145.891 278.647C146.453 279.758 146.651 280.908 146.783 282.173C147.179 286.658 146.882 291.488 146.882 296.012V324.762C146.882 327.062 146.353 331.968 147.146 334L148.995 333.962V301.685C148.995 296.05 149.392 289.917 148.896 284.32C148.665 281.943 148.038 279.758 147.41 277.535Z" fill="#040C17"/>
<path d="M132.748 286.774C132.021 286.697 131.328 286.582 130.634 286.39L129.71 287.08L129.082 286.812L129.148 286.122L127.86 287.502C128.191 288.767 129.346 289.035 129.71 290.032C129.908 290.569 129.677 290.53 130.172 291.105C129.941 291.335 129.776 291.412 129.479 291.45C130.403 292.754 132.946 295.82 133.309 297.354L134.069 298.005C134.465 298.159 134.63 298.12 134.829 298.58C134.994 298.964 134.961 298.81 134.961 299.117C135.72 301.34 137.041 304.752 138.395 306.515H138.461C139.254 306.784 139.254 306.975 139.65 307.78C140.178 308.892 140.608 310.31 141.4 311.23L142.094 309.505C142.953 306.669 141.665 301.762 140.641 299.155L140.608 298.772C140.509 297.929 139.848 296.74 139.518 295.974C137.9 292.485 135.456 289.15 132.748 286.774Z" fill="#4BAC55"/>
<path d="M356.884 53.4387C354.01 48.7621 351.302 43.0504 347.769 39.0254L341.692 42.3221C340.47 42.9737 339.149 43.5487 338.225 44.6987C337.961 47.2671 342.353 53.4771 343.806 55.8154L345.688 54.5887C346.745 57.5021 349.882 58.3071 350.708 61.1821C351.071 62.4471 350.84 64.3637 351.071 65.7437C353.185 64.1721 355.496 62.5621 357.808 61.4504C358.568 62.2937 359.096 62.8304 359.327 64.0571C359.955 63.4437 360.681 62.8304 360.945 61.9104C361.375 60.6071 357.61 55.2021 356.884 53.4387Z" fill="#9DE4EC"/>
<path d="M356.884 53.4387C354.01 48.7621 351.302 43.0504 347.769 39.0254L341.692 42.3221C340.47 42.9737 339.149 43.5487 338.225 44.6987C337.961 47.2671 342.353 53.4771 343.806 55.8154L345.688 54.5887C343.74 51.8287 341.428 48.8004 340.008 45.6571L347.703 40.7504L359.228 59.6487C358.997 60.6454 358.469 60.9137 357.808 61.5271C358.568 62.3704 359.096 62.9071 359.327 64.1337C359.955 63.5204 360.681 62.9071 360.945 61.9871C361.375 60.6071 357.61 55.2021 356.884 53.4387Z" fill="#040C17"/>
<path d="M122.377 279.566C121.486 280.448 120.726 280.908 119.636 281.368C118.381 281.061 117.49 280.563 116.202 281.023L116.004 281.521L115.938 282.786L115.508 283.208L114.749 282.518L114.418 283.246L114.584 283.438C114.98 283.898 114.914 284.166 115.013 284.78L115.145 285.393L114.782 285.508C116.103 289.955 118.249 294.286 120.693 298.043C122.608 301.723 125.812 305.825 129.114 307.856C132.78 310.616 136.115 311.881 140.475 311.728L138.394 306.515H138.328C136.974 304.751 135.62 301.378 134.893 299.116C134.86 298.771 134.893 298.963 134.761 298.58C134.563 298.12 134.398 298.158 134.002 298.005L133.242 297.353C132.879 295.82 130.336 292.791 129.411 291.45C129.709 291.373 129.874 291.296 130.105 291.105C129.61 290.53 129.841 290.568 129.643 290.031C129.279 289.073 128.09 288.805 127.793 287.501L129.081 286.121L129.015 286.811L129.643 287.08L130.567 286.39C131.261 286.581 131.954 286.696 132.681 286.773C131.822 285.776 130.699 284.971 129.676 284.205C127.397 282.326 124.986 280.908 122.377 279.566Z" fill="url(#paint0_linear_127_18489)"/>
<path d="M122.378 279.566C121.486 280.448 120.727 280.908 119.637 281.368C118.382 281.061 117.49 280.563 116.202 281.023L116.004 281.521C117.853 281.56 119.406 282.633 121.024 283.553L121.189 283.016C122.279 283.131 123.633 284.55 124.392 285.393V285.508C124.921 285.968 125.614 286.658 126.275 286.773C126.77 286.85 129.181 284.626 129.742 284.166C127.397 282.326 124.987 280.908 122.378 279.566Z" fill="#F9E780"/>
<path d="M131.327 231.075C129.379 228.928 127.034 227.241 124.755 225.593C118.217 220.916 112.206 218.195 104.478 217.696L108.012 229.58C108.507 230.998 108.97 232.876 109.696 234.141L110.291 234.18L110.126 233.72C109.927 233.336 109.861 233.298 109.828 232.838C111.281 230.193 113.593 229.081 115.872 227.778L115.476 227.088L115.773 226.743C117.028 227.433 117.886 228.736 119.009 229.426C120.429 230.27 122.147 232.186 123.137 233.72C124.921 236.786 127.596 239.393 129.544 242.345C129.94 242.92 130.469 243.303 130.766 243.993C131.129 244.798 131.757 245.258 132.153 246.14C132.78 247.558 134.101 249.36 135.125 250.28C136.314 251.353 136.842 253.96 137.8 255.301C138.163 255.8 138.262 256.451 138.394 257.065C139.715 258.675 140.937 261.895 141.796 263.965C142.423 266.571 143.877 268.986 144.768 271.478C145.264 272.935 145.957 276.576 146.882 277.611L147.41 277.496C149.028 272.628 149.259 266.15 147.872 261.166C147.509 258.138 146.419 255.186 145.363 252.388L142.985 247.175C142.721 246.255 142.093 245.066 141.598 244.261L138.262 239.048C136.281 236.288 133.936 233.068 131.327 231.075Z" fill="#ACB04E"/>
<path d="M123.137 233.72C122.147 232.187 120.429 230.27 119.009 229.426C117.853 228.736 117.028 227.433 115.773 226.743L115.476 227.088L115.872 227.778C113.593 229.12 111.282 230.193 109.829 232.838C109.862 233.298 109.928 233.375 110.126 233.72L110.291 234.18L109.696 234.141C112.768 243.495 121.387 263.658 128.256 269.293C131.526 273.97 137.569 277.688 142.721 278.263L145.462 278.416L145.891 278.608L146.882 277.612C145.957 276.577 145.264 272.897 144.768 271.478C143.877 268.948 142.424 266.571 141.796 263.965C140.97 261.895 139.749 258.675 138.395 257.065C138.262 256.451 138.13 255.8 137.8 255.301C136.842 253.96 136.281 251.353 135.125 250.28C134.134 249.36 132.78 247.558 132.153 246.14C131.79 245.258 131.129 244.798 130.766 243.993C130.469 243.303 129.94 242.92 129.544 242.345C127.596 239.393 124.921 236.787 123.137 233.72Z" fill="url(#paint1_linear_127_18489)"/>
<path d="M141.829 263.965C141.003 261.895 139.782 258.675 138.428 257.065C138.362 258.024 138.824 258.79 139.22 259.595L145.462 278.455L145.891 278.647L146.882 277.65C145.957 276.615 145.264 272.935 144.768 271.517C143.91 268.949 142.457 266.572 141.829 263.965Z" fill="#295124"/>
<path d="M185.883 273.433C187.435 272.015 188.921 268.871 190.044 266.993C192.157 263.39 195.46 259.02 196.352 254.765C196.12 254.113 196.021 253.998 195.46 253.73C194.832 253.423 193.809 253.5 193.148 253.5C189.813 253.576 186.576 254.688 183.472 255.991L180.797 257.026C174.688 259.978 167.125 263.965 162.997 270.251C159.926 273.318 156.854 279.605 156.524 284.281C156.326 286.85 156.425 289.61 157.515 291.91L157.812 292.408C158.175 292.791 158.671 293.213 158.869 293.75L159.133 293.366H161.841C170.626 293.021 177.23 284.895 182.845 277.995L183.01 277.496C184.067 276.27 184.958 274.813 185.883 273.433Z" fill="url(#paint2_linear_127_18489)"/>
<path d="M165.938 278.608C163.857 280.985 162.371 283.937 160.257 286.237C159.267 287.348 158.54 289.035 157.946 290.453C157.747 290.952 157.781 291.527 157.45 291.91L157.747 292.408C158.111 292.792 158.606 293.213 158.804 293.75L159.068 293.367C159.101 292.102 159.927 290.913 160.422 289.802C162.173 286.045 164.418 282.442 165.938 278.608Z" fill="#233524"/>
<path d="M183.439 255.991L180.764 257.026C174.655 259.978 167.092 263.965 162.964 270.251C159.893 273.318 156.822 279.605 156.492 284.281C156.293 286.85 156.393 289.61 157.482 291.91C157.846 291.526 157.78 290.951 157.978 290.453C158.572 289.035 159.299 287.348 160.289 286.236C162.37 283.936 163.856 280.985 165.97 278.608C166.201 277.688 166.597 277.305 167.192 276.691L167.654 276.883C168.446 276.001 169.074 275.043 169.668 274.008C170.857 273.05 171.782 271.171 173.037 270.443L173.235 270.366L173.334 269.753C173.796 269.14 174.325 268.335 174.952 267.951C175.613 267.568 175.943 266.84 176.57 266.418C177.825 265.613 179.047 264.271 180.269 263.313C180.963 262.853 181.623 262.47 182.185 261.818L181.755 260.936L182.052 260.591C181.59 259.978 181.293 259.633 180.599 259.403L179.444 258.981L179.278 258.445L183.109 256.911L183.439 255.991Z" fill="#4BAC55"/>
<path d="M133.607 333.885C131.163 333.808 119.703 332.927 118.25 334.23C117.226 336.07 117.755 342.05 117.887 344.35C118.415 345.193 118.613 345.27 119.505 345.385L122.708 345.538L123.27 346.573L128.917 382.53C129.148 384.025 129.214 385.942 130.205 387.015C132.418 387.782 135.621 387.513 137.9 387.322C137.834 381.303 137.206 375.093 136.711 369.113C136.447 366.008 135.951 362.635 136.281 359.53C136.975 358.342 137.768 357.997 138.857 357.46L138.329 345.117L146.915 344.887C147.014 342.893 147.146 340.9 147.113 338.907C147.08 337.258 146.882 335.572 147.146 333.962L144.108 334.038L142.688 333.923H135.984L133.607 333.885Z" fill="#841506"/>
<path d="M136.016 333.961L133.572 333.885L133.605 345.155L136.115 345.116L136.016 333.961Z" fill="#C93728"/>
<path d="M144.141 334.039L142.721 333.924H136.017L136.116 345.079H138.329L146.915 344.849C147.014 342.855 147.146 340.862 147.113 338.869C147.08 337.221 146.882 335.534 147.146 333.924L144.141 334.039Z" fill="#F18B56"/>
<path d="M554.125 42.104C553.795 41.6057 553.465 41.1457 553.035 40.724C550.459 38.0407 547.223 36.7373 543.788 37.044C541.014 37.274 538.207 38.769 536.391 41.2223L535.83 41.759C534.839 42.8323 534.211 44.404 533.419 45.669C528.762 44.749 524.172 44.4423 520.11 47.8157C518.36 49.2723 517.732 51.0357 516.378 52.7223C515.949 53.259 515.354 53.5657 514.925 54.1023C513.835 55.329 513.109 57.2457 512.878 58.9707C512.812 59.5457 512.845 59.8907 513.043 60.4273C514.727 60.8873 516.907 60.619 518.657 60.619L530.182 60.5807L569.415 60.6573C571.595 60.6573 580.148 61.2707 581.634 60.3507C581.502 59.0473 580.677 57.859 579.818 57.0157C577.407 54.7157 573.312 53.6423 570.241 54.064L566.674 54.6007C565.155 51.5723 563.273 49.6173 560.367 48.6207C559.376 48.2757 558.22 48.3907 557.196 48.3907C556.437 46.0907 555.611 43.7907 554.125 42.104Z" fill="#DECFBA"/>
<path d="M174.192 220.879C176.141 216.01 177.759 211.104 179.047 205.929C179.509 204.05 180.17 202.019 179.939 200.064C179.014 199.335 178.684 199.297 177.561 199.297C175.943 199.297 174.192 200.025 172.64 200.562C165.573 203.015 158.242 207.692 153.024 213.787C151.373 215.474 149.292 217.505 148.136 219.652C143.546 224.367 140.309 232.455 138.328 239.087L141.663 244.3C142.126 245.144 142.753 246.294 143.05 247.214L145.428 252.427C146.419 251.66 147.971 251.354 149.127 250.894C161.181 246.102 168.842 233.605 174.192 220.879Z" fill="url(#paint3_linear_127_18489)"/>
<path d="M163.229 214.131L163.129 213.441C160.884 215.435 158.704 218.195 156.789 220.648L156.657 220.533C156.029 220.725 156.062 220.686 155.699 221.3C154.972 219.996 153.618 216.393 152.628 215.741L152.33 215.55C152.826 214.86 152.859 214.63 153.024 213.71C151.373 215.396 149.292 217.428 148.136 219.575C143.546 224.29 140.31 232.378 138.328 239.01L141.664 244.223C142.126 245.066 142.753 246.216 143.051 247.136L144.074 244.223C144.603 242.383 145.825 240.16 146.782 238.55L147.41 238.626C151.769 230.116 156.426 220.456 163.229 214.131Z" fill="url(#paint4_linear_127_18489)"/>
<path d="M641.426 179.534C639.675 176.161 636.835 173.669 633.533 172.711C632.113 172.289 630.461 172.251 629.008 172.404C628.48 172.442 627.027 172.941 626.664 172.787C626.168 172.596 625.045 171.331 624.55 170.909C621.281 168.264 617.285 167.497 613.388 168.034C611.77 164.009 609.128 160.482 605.396 158.987C601.763 157.492 597.833 157.684 594.333 159.639C590.898 161.594 588.421 164.891 587.167 169.107C586.572 171.139 586.407 172.979 586.374 175.087C582.411 176.084 579.175 178.116 576.929 182.141L576.764 182.409C572.174 180.109 567.847 179.304 562.894 180.339C561.11 180.761 559.063 181.412 557.445 182.447C556.256 183.214 555.133 184.211 554.142 185.284L571.612 185.131C573.561 185.131 576.202 184.747 578.052 185.284L578.547 185.207C582.51 185.897 587.2 185.322 591.262 185.361L627.258 185.399C629.834 185.399 641.095 186.089 642.78 185.131C642.813 182.907 642.482 181.412 641.426 179.534Z" fill="#DECFBA"/>
<path d="M171.598 49.618C168.659 43.8817 163.89 39.6447 158.345 38.0151C155.96 37.298 153.188 37.2329 150.748 37.4936C149.86 37.5588 147.42 38.4062 146.81 38.1455C145.979 37.8195 144.093 35.6684 143.262 34.9514C137.772 30.4536 131.062 29.1499 124.519 30.0625C121.801 23.2181 117.365 17.221 111.099 14.6788C104.999 12.1366 98.4005 12.4625 92.5226 15.787C86.7555 19.1114 82.5966 24.7173 80.4894 31.8877C79.4913 35.3425 79.214 38.4714 79.1586 42.0566C72.5043 43.7514 67.0699 47.2062 63.2992 54.0506L63.0219 54.5069C55.314 50.5958 48.0498 49.2269 39.7319 50.9869C36.7375 51.7039 33.2994 52.8121 30.5823 54.5721C28.586 55.8758 26.7006 57.5706 25.037 59.3958L54.3713 59.135C57.643 59.135 62.0792 58.4832 65.1846 59.3958L66.0163 59.2654C72.6706 60.4387 80.5449 59.461 87.3655 59.5262L147.809 59.5913C152.134 59.5913 171.043 60.7647 173.871 59.135C173.927 55.3543 173.372 52.8121 171.598 49.618Z" fill="#DECFBA"/>
<path d="M378.085 87.2863L360.846 70.9179L363.95 59.6096C362.728 57.5396 360.681 55.3929 358.93 53.8596C358.072 53.0929 357.841 53.2463 356.85 53.3996C357.61 55.1629 361.341 60.5679 360.945 61.9096C360.648 62.8296 359.954 63.4429 359.327 64.0563C359.063 62.8296 358.534 62.2929 357.808 61.4496C355.496 62.5613 353.184 64.1713 351.071 65.7429C350.84 64.3246 351.038 62.4079 350.707 61.1813C349.915 58.2679 346.745 57.4629 345.688 54.5879L343.805 55.8146C342.947 59.3413 343.541 63.5579 345.093 66.7013C346.513 69.6529 348.858 71.1479 351.269 72.7963C352.227 73.4096 353.382 73.9846 354.109 74.9429C355.463 79.0063 358.072 82.8013 360.185 86.4046C364.346 93.5346 368.607 101.048 373.395 107.603C378.91 115.231 384.392 123.013 390.502 130.028C392.384 132.175 394.267 134.59 396.347 136.468C398.956 134.436 401.763 131.906 403.844 129.185L404.141 129.108C405.065 127.421 406.717 125.735 407.873 124.24C409.689 121.901 411.274 119.563 412.826 116.956C408.137 113.966 403.844 110.095 399.484 106.453C392.285 100.435 384.756 94.1863 378.085 87.2863Z" fill="#F4A04E"/>
<path d="M357.808 61.4883C355.497 62.5999 353.185 64.2099 351.071 65.7816L350.972 66.8166C351.401 67.5449 351.963 68.0816 352.557 68.6566L359.36 64.0949C359.063 62.8683 358.535 62.2933 357.808 61.4883Z" fill="#1B0002"/>
<path d="M354.109 74.9434C355.463 79.0067 358.072 82.8017 360.186 86.405C364.347 93.535 368.607 101.048 373.395 107.603C378.91 115.232 384.392 123.013 390.502 130.028C392.384 132.175 394.267 134.59 396.347 136.468C398.956 134.437 401.763 131.907 403.844 129.185C398.131 124.815 392.483 120.292 387.266 115.117C380.099 107.987 373.693 99.7834 367.319 91.7717C362.96 86.2134 358.931 79.8884 354.109 74.9434Z" fill="#D05A26"/>
<path d="M205.896 208.229C197.806 209.187 190.21 212.714 184.926 220.265C179.741 227.664 177.396 236.94 178.288 246.409C178.651 250.05 179.543 253.692 180.732 257.065L183.407 256.03C186.544 254.765 189.748 253.615 193.083 253.539C193.777 253.539 194.767 253.424 195.395 253.769C195.956 254.037 196.055 254.19 196.286 254.804C195.395 259.059 192.092 263.429 189.979 267.032C188.856 268.949 187.37 272.054 185.818 273.472C184.893 274.852 184.001 276.309 182.912 277.535L182.746 278.034C189.12 286.85 195.989 290.607 205.731 291.987L205.896 208.229Z" fill="#BAA991"/>
<path d="M439.412 60.7979C437.86 60.9512 435.317 60.7212 434.062 61.7178L433.633 61.9095C432.18 61.1428 429.934 61.8328 428.349 62.1012C420.852 63.3278 413.488 65.6662 406.355 68.6945C396.018 73.1028 386.738 79.4662 378.086 87.2862C384.757 94.1478 392.286 100.396 399.518 106.491C403.845 110.133 408.171 114.005 412.86 116.995C418.012 121.403 423.197 125.543 428.943 128.84C432.014 125.773 433.897 124.661 437.959 123.895L438.685 123.626C438.751 121.94 439.148 120.33 439.511 118.681L440.766 118.221C445.389 116.19 448.857 113.046 452.093 108.753C452.225 107.986 453.282 106.568 453.711 105.878L454.834 106.798L455.363 108.025C456.717 108.14 458.005 107.488 459.094 106.568C461.67 104.345 462.166 102.16 462.595 98.5945C464.081 95.2978 465.633 91.6562 465.798 87.8995L466.261 86.9795C468.308 87.2095 469.596 86.2128 471.115 84.7945C471.016 83.9128 468.903 84.5262 468.176 83.7212C468.771 82.3029 469.035 80.9612 468.837 79.3895C468.737 78.7379 468.737 78.1245 468.308 77.7412L465.303 83.0695C462.694 72.4895 453.48 70.7645 445.885 66.9695C443.342 65.7045 440.997 64.4012 439.511 61.6028L439.412 60.7979Z" fill="#BAA991"/>
<path d="M433.897 74.9434L433.864 74.7517C432.807 73.6017 432.014 72.3367 430.594 71.915C431.684 75.5567 434.128 78.3934 434.854 82.1884L436.473 79.275C436.241 77.7034 434.26 77.0134 433.897 74.9434Z" fill="#570D11"/>
<path d="M436.043 73.448H435.448C432.807 71.263 431.122 68.3496 429.273 65.3213C429.405 67.583 429.966 69.8063 430.594 71.9146C432.014 72.298 432.807 73.563 433.863 74.7513L433.896 74.943C435.548 76.323 437.001 77.473 438.85 78.4696L439.643 77.933L436.373 74.8663C436.307 74.483 436.274 74.0996 436.142 73.7546L436.043 73.448Z" fill="#841506"/>
<path d="M430.825 88.0914C429.669 87.6314 428.876 87.4397 427.655 87.6697C426.73 88.4364 426.334 88.8581 426.135 90.1614C425.838 92.1164 425.805 95.4131 426.895 97.0231C427.357 97.7131 428.15 98.3264 428.81 98.6714L429.009 98.4414L429.405 98.7097C430.23 98.7864 431.221 98.9397 432.014 98.5947C433.83 97.7897 435.019 95.7197 435.713 93.7264C435.746 93.0747 435.845 92.2697 435.646 91.6564C435.25 90.0464 432.08 88.7431 430.825 88.0914Z" fill="#068579"/>
<path d="M430.826 88.0914C429.67 87.6314 428.877 87.4397 427.655 87.6697L428.316 87.9381L427.391 89.0114C427.226 89.2414 427.127 89.5097 426.995 89.7781C426.665 90.6981 426.764 92.6914 427.094 93.5731L427.259 94.1097L427.49 94.8764C428.019 94.9147 428.151 94.9531 428.646 94.7231C429.67 94.2247 430.958 92.6531 431.321 91.4264C431.783 89.7397 431.486 89.4714 430.826 88.0914Z" fill="#29B996"/>
<path d="M428.315 87.9004L427.39 88.9737C427.489 89.5871 427.655 90.0087 427.952 90.5454C428.48 91.4654 428.612 92.0787 429.57 92.3471C430.528 91.1204 430.362 90.7371 430.396 89.1271C429.867 88.0537 429.306 88.1687 428.315 87.9004Z" fill="#84DEDD"/>
<path d="M436.902 92.96L435.746 93.7266C435.052 95.72 433.863 97.79 432.047 98.595C431.254 98.94 430.264 98.7866 429.438 98.71L429.042 98.4416L428.844 98.6716L427.787 103.732C427.159 107.565 426.961 111.13 428.91 114.542C430.198 116.803 431.948 118.26 434.26 118.797C435.944 119.18 437.793 119.065 439.478 118.643L440.732 118.183C445.356 116.152 448.823 113.008 452.06 108.715C452.192 107.948 453.249 106.53 453.678 105.84L454.801 106.76L455.329 107.987C456.683 108.102 457.971 107.45 459.061 106.53C461.637 104.307 462.132 102.122 462.562 98.5566C461.67 98.0966 461.604 96.64 460.58 96.065L460.283 95.9116C458.797 95.145 457.674 95.4133 456.089 95.7583L455.924 95.72C455.197 95.4516 454.438 95.3366 453.711 95.1833C451.994 95.1833 449.088 95.605 447.535 94.7616C447.535 98.25 446.71 99.515 444.761 101.93C443.473 101.777 441.888 101.777 440.699 101.24C439.081 100.512 438.487 99.0166 437.793 97.2916L437.694 96.87C437.628 96.065 437.628 94.685 437.265 93.995C437.1 93.7266 437.067 93.65 436.968 93.3433L436.902 92.96Z" fill="#040C17"/>
<path d="M432.609 103.616L431.882 103.31L431.123 104.306C431.288 106.491 431.354 108.063 432.939 109.558C433.93 110.478 435.779 111.321 437.034 111.091C438.851 110.785 440.337 109.213 441.327 107.526C441.592 107.105 441.79 106.645 441.922 106.108L441.36 105.38L441.063 105.456C438.058 105.533 435.383 104.996 432.609 103.616Z" fill="#F28A6A"/>
<path d="M432.608 103.616L432.41 105.265C433.368 106.568 434.821 107.526 436.307 107.603C437.595 107.68 439.444 107.641 440.468 106.568C440.732 106.3 440.963 105.916 441.062 105.533C438.057 105.533 435.382 104.996 432.608 103.616Z" fill="#FFEFD5"/>
<path d="M436.901 92.96L435.745 93.7266C435.052 95.72 433.863 97.79 432.047 98.595C431.254 98.94 430.263 98.7866 429.438 98.71C429.834 99.8216 430.032 100.895 431.089 101.393C432.146 101.892 433.5 102.045 434.656 102.313C436.967 102.812 439.807 103.617 442.152 103.233L442.251 102.812C443.275 102.735 443.902 102.543 444.827 101.968C443.539 101.815 441.954 101.815 440.765 101.278C439.147 100.55 438.553 99.055 437.859 97.33L437.76 96.9083C437.694 96.1033 437.694 94.7233 437.331 94.0333C437.166 93.765 437.132 93.6883 437.033 93.3816L436.901 92.96Z" fill="#F18B56"/>
<path d="M453.744 95.1834C452.027 95.1834 449.12 95.6051 447.568 94.7617C447.568 98.2501 446.743 99.5151 444.794 101.93C443.87 102.543 443.242 102.697 442.218 102.773L442.119 103.195L442.251 103.962L442.879 105.303C443.176 105.84 443.704 106.683 444.266 106.798C446.082 107.105 448.361 104.997 449.781 103.847C451.729 101.508 451.531 99.5151 451.729 96.4484L455.791 96.4867L452.093 103.31C452.324 104.728 452.687 104.958 453.645 105.802L454.768 106.722L455.296 107.948C456.65 108.063 457.938 107.412 459.028 106.492C461.604 104.268 462.099 102.083 462.528 98.5184C461.637 98.0584 461.571 96.6017 460.547 96.0267L460.25 95.8734C458.764 95.1067 457.641 95.3751 456.056 95.7201L455.89 95.6817C455.263 95.4901 454.503 95.3751 453.744 95.1834Z" fill="#F28A6A"/>
<path d="M456.022 102.85L456.682 103.693L456.517 104.383L456.88 104.92C457.937 105.035 457.937 105.111 458.796 104.383C459.06 103.501 458.994 103.041 458.763 102.16C458.664 101.738 458.796 101.623 458.961 101.201C459.39 101.508 459.555 101.7 460.051 101.7L459.886 100.051C459.357 99.2847 459.324 99.2464 458.499 99.0547C457.442 99.783 456.484 100.396 456.154 101.891L456.022 102.85Z" fill="#981924"/>
<path d="M439.412 60.7979C437.86 60.9512 435.317 60.7212 434.062 61.7178L433.633 61.9095C433.302 64.0178 433.236 66.3562 434.029 68.3495C434.557 70.1512 435.086 71.9145 436.043 73.4479L436.142 73.7545C436.275 74.1379 436.341 74.4829 436.374 74.8662L439.643 77.9329L438.85 78.4695C437.001 77.4728 435.548 76.3228 433.897 74.9428C434.227 77.0128 436.242 77.7029 436.473 79.2745L434.855 82.1879L434.557 82.8012C433.831 83.6062 433.534 84.1045 433.335 85.2928L433.633 86.2129C433.368 86.6345 433.104 87.0562 432.741 87.3629L431.849 88.0145L432.014 88.0528C433.699 88.5512 435.548 89.5479 436.44 91.3879C436.671 91.8479 436.803 92.4229 436.902 92.9212L437.001 93.2662C437.1 93.5728 437.133 93.6495 437.298 93.9178C437.662 94.5695 437.662 95.9878 437.728 96.7928L437.827 97.2145C438.487 98.9395 439.082 100.473 440.733 101.163C441.955 101.7 443.507 101.738 444.795 101.853C446.743 99.4378 447.569 98.1728 447.569 94.6845C449.088 95.5278 451.994 95.1062 453.744 95.1062C454.471 95.2595 455.264 95.4128 455.957 95.6428L456.122 95.6812C457.674 95.3362 458.83 95.0295 460.316 95.8345L460.614 95.9879C461.604 96.5629 461.67 98.0195 462.595 98.4795C464.081 95.1829 465.633 91.5412 465.798 87.7845L466.261 86.8645C468.308 87.0945 469.596 86.0979 471.115 84.6795C471.016 83.7979 468.903 84.4112 468.176 83.6062C468.771 82.1879 469.035 80.8462 468.837 79.2745C468.737 78.6229 468.737 78.0095 468.308 77.6262L465.303 82.9545C462.694 72.3745 453.48 70.6495 445.885 66.8545C443.342 65.5895 440.997 64.2862 439.511 61.4879L439.412 60.7979Z" fill="#981924"/>
<path d="M439.411 60.7979C437.858 60.9512 435.316 60.7212 434.061 61.7178C435.415 63.7495 436.405 66.0495 437.462 68.3112C437.924 66.1262 438.387 63.9029 439.311 61.8712L439.477 61.5262L439.411 60.7979Z" fill="#BAA991"/>
<path d="M444.629 79.0446C441.459 77.5496 438.057 74.7897 436.109 71.4547C435.415 70.3046 435.118 69.0013 434.358 67.8896L433.995 68.3496C434.524 70.1513 435.052 71.9146 436.01 73.448L436.109 73.7547C436.241 74.138 436.307 74.483 436.34 74.8663L439.609 77.933L438.817 78.4696C441.227 80.233 444.101 81.613 446.842 82.3413C448.096 82.648 449.384 82.648 450.573 83.108L451.432 84.4113L455.263 84.1047L455.362 83.913L456.121 84.028L456.452 83.2996C458.598 83.568 459.985 85.3696 461.934 86.0596C462.693 86.328 463.684 86.213 464.477 86.1363C463.288 85.523 462.693 84.6413 461.703 83.7213C460.745 82.8397 459.556 82.2647 458.433 81.8047C456.254 80.808 453.777 80.923 451.465 80.693C449.153 80.463 446.908 79.9263 444.629 79.0446Z" fill="#570D11"/>
<path d="M450.639 83.0703L451.498 84.3736L455.329 84.067L455.428 83.8753L456.187 83.9903L456.518 83.262L450.639 83.0703Z" fill="#1B0002"/>
<path d="M444.629 79.0449L442.78 79.3133C446.71 81.8049 450.177 81.5749 454.47 82.0733C455.758 82.2266 457.013 82.6099 458.301 82.3799L458.532 81.7666C456.353 80.7699 453.876 80.8849 451.564 80.6549C449.153 80.4633 446.908 79.9266 444.629 79.0449Z" fill="#550624"/>
<path d="M464.543 86.0984C463.75 86.1367 462.76 86.2517 462 86.0217C460.052 85.3701 458.665 83.5301 456.518 83.2617L456.188 83.9901L455.428 83.8751L455.329 84.0667L455.791 84.6034C455.461 85.9834 455.032 87.2101 454.504 88.5134C453.744 90.5067 452.654 92.8067 452.258 94.9151L453.744 95.2601C454.471 95.4134 455.263 95.5667 455.957 95.7967L456.122 95.8351C457.674 95.4901 458.83 95.1834 460.316 95.9884L460.613 96.1417C461.604 96.7167 461.67 98.1734 462.594 98.6334C464.081 95.3367 465.633 91.6951 465.798 87.9384L465.765 86.6351L464.543 86.0984Z" fill="#040C17"/>
<path d="M464.543 86.0984C463.75 86.1367 462.76 86.2517 462 86.0217C460.052 85.3701 458.665 83.5301 456.518 83.2617L456.188 83.9901L455.428 83.8751L455.329 84.0667L455.791 84.6034C455.461 85.9834 455.032 87.2101 454.504 88.5134C456.716 89.0884 458.466 90.8517 460.547 91.3501C463.849 92.1934 463.486 89.3951 465.501 88.0534L465.798 87.8617L465.765 86.5584L464.543 86.0984Z" fill="#550624"/>
<path d="M438.85 78.47C437 77.4734 435.547 76.3234 433.896 74.9434C434.226 77.0134 436.241 77.7034 436.472 79.275L434.854 82.1884L434.556 82.8017C433.83 83.6067 433.533 84.105 433.334 85.2934L433.632 86.2134C433.367 86.635 433.103 87.0567 432.74 87.3634L431.848 88.015L432.014 88.0534C433.698 88.5517 435.547 89.5484 436.439 91.3884C436.67 91.8484 436.802 92.4234 436.901 92.9217L437 93.2667C437.099 93.5734 437.132 93.65 437.297 93.9184C437.661 94.57 437.661 95.9884 437.727 96.7934L437.826 97.215C438.486 98.94 439.081 100.473 440.732 101.163C441.954 101.7 443.506 101.738 444.794 101.853C446.742 99.4384 447.568 98.1734 447.568 94.685C449.087 95.5284 451.993 95.1067 453.744 95.1067L452.257 94.7617C452.621 92.6534 453.743 90.3534 454.503 88.36C455.031 87.0567 455.428 85.83 455.791 84.45L455.329 83.9134L451.498 84.22L450.639 82.9167C449.417 82.495 448.129 82.4567 446.907 82.15C444.133 81.6517 441.26 80.2334 438.85 78.47Z" fill="#F18B56"/>
<path d="M434.523 82.8018C433.797 83.6068 433.5 84.1051 433.301 85.2934H435.58L436.307 84.4118C435.976 83.3768 435.382 83.3001 434.523 82.8018Z" fill="#040C17"/>
<path d="M438.09 94.6855C437.892 94.0338 438.189 92.9988 438.321 92.3471L437 91.7721C437 91.1205 437.727 90.7755 437.859 89.8171C437.661 89.4338 437.397 89.0505 437.099 88.7821C435.679 87.5171 434.457 87.1338 432.707 87.3638L431.815 88.0155L431.981 88.0538C433.665 88.5521 435.514 89.5488 436.406 91.3888C436.637 91.8488 436.769 92.4238 436.868 92.9221L436.967 93.2671C437.066 93.5738 437.099 93.6505 437.265 93.9188C437.628 94.5705 437.628 95.9888 437.694 96.7938L438.09 94.6855Z" fill="#F28A6A"/>
<path d="M443.572 85.7914C442.813 85.7914 441.492 85.7147 440.831 86.213C440.402 86.5197 440.468 86.9414 440.336 87.478C441.261 88.628 444.035 88.168 445.521 88.858L445.818 89.0114C446.313 89.548 446.908 90.5447 447.601 90.5447C447.965 89.433 447.998 89.203 447.799 88.0147C446.644 86.328 445.29 86.1364 443.572 85.7914Z" fill="#040C17"/>
<path d="M438.85 78.47C437 77.4734 435.547 76.3234 433.896 74.9434C434.226 77.0134 436.241 77.7034 436.472 79.275C441.558 82.6867 445.62 84.1434 451.498 84.335L450.639 83.0317C449.418 82.61 448.13 82.5717 446.908 82.265C444.134 81.6517 441.261 80.2334 438.85 78.47Z" fill="#550624"/>
<path d="M440.666 92.1167L439.775 91.8867C438.817 92.6917 438.52 93.4584 438.09 94.6851L437.727 96.8701L437.826 97.2917C438.487 99.0167 439.081 100.55 440.732 101.24C441.954 101.777 443.506 101.815 444.794 101.93C446.743 99.5151 447.568 98.2501 447.568 94.7617C446.908 94.8001 445.983 94.1101 445.356 93.8034C443.837 93.1134 442.318 92.4617 440.666 92.1167Z" fill="#0D3338"/>
<path d="M440.666 92.1167L439.775 91.8867C438.817 92.6917 438.52 93.4584 438.09 94.6851L437.727 96.8701L437.826 97.2917C438.454 97.1384 439.213 97.0234 439.775 96.6784C441.954 95.3367 440.138 94.0334 440.666 92.1167Z" fill="#006467"/>
<path d="M182.812 277.995C177.23 284.895 170.593 293.022 161.808 293.367H159.1L158.836 293.75C155.831 306.745 157.185 320.545 157.218 333.885L155.599 333.962H148.962L147.112 334C146.881 335.61 147.079 337.297 147.079 338.945C147.112 340.938 146.98 342.932 146.881 344.925L138.295 345.155L138.823 357.498C137.733 358.035 136.941 358.38 136.247 359.568C135.95 362.673 136.445 366.047 136.677 369.152C137.172 375.132 137.799 381.342 137.865 387.36L145.527 387.283H159.067C161.148 387.283 163.79 387.628 165.804 387.015C167.158 385.673 167.62 380.345 168.017 378.237L209.33 377.125C207.514 374.557 206.292 371.567 205.896 368.27C205.499 365.165 205.73 361.83 205.73 358.687L205.796 342.663L205.73 291.987C196.054 290.568 189.185 286.812 182.812 277.995Z" fill="#BAA991"/>
<path d="M157.219 333.885L155.6 333.962H148.963L147.113 334C146.882 335.61 147.08 337.297 147.08 338.945C147.113 340.938 146.981 342.932 146.882 344.925L168.744 345.002L174.16 345.193H176.703C177.429 344.695 177.793 344.465 178.156 343.545C178.189 341.552 178.684 336.76 178.09 335.112C177.991 334.882 177.562 334.422 177.396 334.23C175.382 333.502 172.476 333.923 170.362 333.962L157.219 333.885Z" fill="#F4A04E"/>
<path d="M146.948 344.887L138.362 345.117L138.891 357.46C137.801 357.997 137.008 358.342 136.315 359.53C136.017 362.635 136.513 366.008 136.744 369.113C137.239 375.093 137.867 381.303 137.933 387.322L145.594 387.245H159.134C161.215 387.245 163.857 387.59 165.871 386.977C167.225 385.635 167.688 380.307 168.084 378.198L173.83 347.302L174.227 345.155L168.811 344.963L146.948 344.887Z" fill="#F4A04E"/>
<path d="M174.227 345.155L168.811 344.963C168.051 346.956 167.06 348.145 165.343 349.103L173.83 347.301L174.227 345.155Z" fill="#F18B56"/>
<path d="M146.947 344.887L138.361 345.117L138.89 357.46C140.937 357.345 143.645 356.003 145.66 355.352C147.971 354.087 150.745 353.473 153.255 352.745L165.342 349.103C167.026 348.145 168.017 346.957 168.81 344.963L146.947 344.887Z" fill="#B73118"/>
<path d="M145.66 355.352C143.679 356.003 140.938 357.345 138.89 357.46C137.8 357.997 137.008 358.342 136.314 359.53C136.017 362.635 136.512 366.008 136.744 369.113C137.239 375.093 137.866 381.303 137.932 387.322L145.594 387.245L145.66 355.352Z" fill="#C93728"/>
<path d="M450.64 369.535L439.742 369.842C439.708 371.298 439.345 375.4 440.006 376.55L439.576 376.857L439.147 375.975C438.057 375.093 435.514 375.4 434.127 375.4C429.999 375.323 425.64 375.477 421.545 374.863L410.251 383.22C408.038 384.868 405.759 386.747 403.382 388.012C402.721 387.513 402.226 386.708 402.028 385.788C401.764 384.523 402.226 383.45 402.82 382.415C404.174 380.038 406.849 378.735 408.633 376.818C408.633 376.09 408.699 375.515 408.831 374.825C407.642 374.173 406.387 374.633 405.099 374.633L395.918 374.595L336.706 374.71C334.955 377.163 333.436 379.348 330.827 380.613C328.549 382.3 326.138 383.488 323.43 383.833C318.41 384.447 312.961 383.948 307.875 383.948H276.403H237.732H227.098C224.984 383.948 222.64 384.14 220.592 383.565L216.266 381.878C213.492 381.265 211.411 379.272 209.397 377.125L168.083 378.237C167.687 380.307 167.225 385.673 165.871 387.015C163.856 387.628 161.247 387.283 159.134 387.283H145.594L137.932 387.36C135.62 387.552 132.417 387.82 130.238 387.053C129.28 385.98 129.181 384.025 128.95 382.568C122.576 382.913 85.8859 385.022 83.2109 388.242L83.0458 388.472C83.8053 389.737 85.7868 390.005 87.0747 390.273C94.4722 391.768 102.167 392.267 109.663 392.842L151.043 394.873L233.802 397.02L381.784 397.978L570.848 394.068L598.126 392.42C603.476 392.037 608.958 391.807 614.209 390.427C615.629 390.043 617.445 389.698 618.667 388.74L618.998 388.472C618.667 387.667 618.271 387.59 617.578 387.283C615.002 386.21 611.93 385.827 609.222 385.405L595.947 383.948L584.256 383.22C582.968 383.182 579.699 383.603 578.807 382.875L578.675 382.377C577.981 380.23 577.255 379.387 575.472 378.428C572.863 377.547 571.211 377.163 568.768 378.697L568.305 379.003C567.414 380.345 566.984 381.265 566.786 382.952L566.126 383.297H532.903L528.577 383.258L528.379 382.76C527.289 380.345 525.968 378.62 523.689 377.815C521.873 378.505 519.627 378.16 517.712 378.122C516.556 379.31 515.863 380.652 515.103 382.185C513.452 380.843 512.758 379.808 512.296 377.508L471.544 376.358L456.716 375.975C454.933 375.975 452.456 375.592 450.838 376.32C450.276 374.978 450.64 371.183 450.64 369.535Z" fill="#96846B"/>
<path d="M575.471 378.428C572.862 377.547 571.211 377.163 568.767 378.697L568.305 379.003C567.413 380.345 566.984 381.265 566.786 382.952L566.125 383.297C564.738 383.68 562.988 383.028 561.799 383.948C561.799 385.175 561.568 386.133 562.195 387.168C563.648 387.168 566.489 386.747 567.809 387.207C568.107 387.322 568.767 388.127 568.998 388.395C570.385 389.967 571.277 390.542 573.259 390.465C574.745 390.427 576.132 389.813 577.122 388.548C578.509 386.823 578.873 385.213 578.807 382.875L578.674 382.377C578.014 380.23 577.254 379.387 575.471 378.428Z" fill="#040C17"/>
<path d="M532.936 383.297L528.61 383.259L528.412 382.76C527.322 380.345 526.001 378.62 523.723 377.815C521.906 378.505 519.661 378.16 517.745 378.122C516.589 379.31 515.896 380.652 515.136 382.185C515.004 384.6 515.169 386.824 516.556 388.779C517.58 390.197 519.198 391.002 520.75 391.117C522.798 391.27 524.746 390.925 526.331 389.277C526.959 388.625 527.454 387.667 527.884 386.824H552.619C553.246 385.904 553.015 384.869 552.982 383.719C551.595 383.182 549.581 383.45 548.128 383.45L538.22 383.412C536.503 383.45 534.621 383.604 532.936 383.297Z" fill="#040C17"/>
<path d="M432.146 386.517C428.414 386.555 422.569 385.674 419.762 388.97C418.969 389.89 418.342 391.04 418.276 392.42C418.276 392.765 418.309 392.995 418.375 393.302C419.927 394.222 449.616 393.685 454.074 393.685C453.909 391.347 453.876 388.894 453.117 386.709L432.146 386.517Z" fill="#FFEFD5"/>
<path d="M450.64 369.535L439.742 369.842C439.709 371.298 439.346 375.4 440.007 376.55L439.577 376.857L439.148 375.975C438.19 376.55 437.53 377.393 436.605 377.968C434.756 379.157 432.675 379.77 430.991 381.265L431.024 382.032L430.099 382.338C430.033 382.837 429.967 382.913 430.165 383.412C429.472 383.565 429.307 383.527 428.778 384.14C429.042 384.37 429.208 384.485 429.505 384.562C430.496 384.83 431.585 385.52 432.114 386.517L453.117 386.747C452.292 384.677 452.093 381.917 451.73 379.693C451.565 378.697 451.268 377.738 450.971 376.742L450.805 376.358C450.277 374.978 450.64 371.183 450.64 369.535Z" fill="url(#paint5_linear_127_18489)"/>
<path d="M443.209 378.237L443.011 377.087C442.086 376.205 441.195 376.512 440.006 376.55L439.576 376.857L438.586 377.317L438.685 378.39L439.312 378.735L439.345 378.965C439.477 379.425 440.369 380.499 440.765 380.652L440.996 380.69L442.284 381.074C442.714 380.192 442.945 379.234 443.209 378.237Z" fill="#C93728"/>
<path d="M450.97 376.741C448.559 378.62 445.983 378.198 443.209 378.236C442.945 379.233 442.681 380.191 442.285 381.111L442.615 381.265C445.29 382.185 449.484 381.418 451.729 379.693C451.564 378.658 451.267 377.7 450.97 376.741Z" fill="#FFEFD5"/>
<path d="M450.639 369.535L439.741 369.842C439.708 371.298 439.345 375.4 440.006 376.55C441.195 376.512 442.086 376.205 443.011 377.087L443.209 378.237C445.983 378.198 448.559 378.62 450.97 376.742L450.805 376.358C450.276 374.978 450.639 371.183 450.639 369.535Z" fill="#F28A6A"/>
<path d="M515.797 289.457C513.419 289.303 511.404 288.997 509.159 290.185C507.904 290.185 506.814 290.262 505.625 290.722C503.413 291.565 501.761 292.983 500.672 295.398C500.143 296.587 499.747 298.12 499.681 299.462L457.575 299.423L457.278 298.158L453.744 353.205C453.579 355.697 453.48 367.12 452.819 368.653C452.72 368.845 452.324 369.19 452.159 369.343L450.64 369.535C450.64 371.183 450.276 374.978 450.838 376.358C452.489 375.63 454.933 376.013 456.716 376.013L471.544 376.397L512.296 377.547C512.758 379.847 513.452 380.882 515.103 382.223C515.863 380.69 516.556 379.348 517.712 378.16C519.594 378.198 521.84 378.543 523.69 377.853C525.968 378.658 527.322 380.383 528.379 382.798L528.577 383.297L532.903 383.335H566.126L566.786 382.99C566.984 381.303 567.414 380.383 568.305 379.042L568.768 378.735C571.245 377.163 572.863 377.585 575.472 378.467L577.288 376.665C578.147 375.822 578.873 374.863 579.468 373.752C579.765 373.177 580.425 371.605 580.425 370.953C580.425 369.228 579.765 366.89 579.435 365.203L577.42 353.78L569.659 309.275L569.395 307.435L568.867 304.637L568.47 302.452C568.173 300.535 567.843 298.388 567.017 296.663C565.234 292.945 562.46 290.875 559.026 289.687C555.393 288.843 550.571 289.457 546.774 289.457L542.745 289.495L539.541 289.533C534.819 289.495 529.535 288.92 524.878 289.687C523.293 289.265 521.378 289.533 519.76 289.533H517.316L515.797 289.457Z" fill="#FBD174"/>
<path d="M548.655 331.93C544.66 331.508 536.899 331.738 534.191 327.866C532.705 325.72 532.242 322.653 531.846 320.008C531.615 318.628 531.714 317.593 530.789 316.635L530.063 317.516C530.129 320.928 530.723 327.598 532.969 330.051C535.941 333.271 543.999 333.425 547.962 333.348L548.193 333.501C553.18 333.693 559.884 333.731 564.54 331.393C565.861 330.741 566.951 329.745 567.479 328.135C568.404 325.375 567.545 319.74 566.423 317.056L565.3 317.286C565.201 320.775 567.909 325.796 565.3 328.71C562.526 331.853 555.128 331.853 551.396 331.891C550.802 331.891 549.052 331.661 548.655 331.93Z" fill="#B73118"/>
<path d="M566.423 317.057C565.399 316.367 533.861 316.444 530.757 316.597C531.681 317.555 531.615 318.59 531.814 319.97C532.243 322.615 532.672 325.682 534.158 327.829C536.866 331.7 544.66 331.47 548.623 331.892C549.052 331.624 550.803 331.854 551.397 331.854C555.129 331.815 562.526 331.815 565.3 328.672C567.909 325.72 565.201 320.737 565.3 317.249L566.423 317.057Z" fill="#F4A04E"/>
<path d="M550.737 324.11L549.515 323.995C548.689 324.417 548.194 324.57 547.731 325.567C547.434 326.218 547.5 327.023 547.698 327.713C548.095 329.093 548.986 329.63 550.043 330.243L550.935 330.358C551.661 329.975 552.322 329.822 552.751 328.978C553.081 328.327 553.18 327.483 553.015 326.755C552.652 325.375 551.76 324.685 550.737 324.11Z" fill="#C93728"/>
<path d="M542.777 289.495L539.574 289.534C534.851 289.495 529.568 288.92 524.911 289.687C522.137 291.872 519.693 294.517 518.934 298.504C518.703 299.807 518.769 301.11 518.967 302.413L522.038 320.009L526.893 347.532L530.162 366.545C530.591 368.922 530.823 372.525 531.912 374.557C532.903 376.358 535.149 378.467 536.998 378.888C539.937 379.578 543.735 379.08 546.773 379.08L568.305 379.042L568.767 378.735C571.244 377.164 572.862 377.585 575.471 378.467L577.288 376.665L576.924 375.86L577.585 374.442C576.462 373.714 572.929 374.173 571.575 374.173L551.793 374.212C548.722 374.212 545.221 374.557 542.183 374.097C541.324 373.982 540.499 373.637 539.805 373.062C538.22 371.797 537.163 370.225 536.47 368.117C535.413 364.974 535.017 361.14 534.455 357.805L532.11 344.81L525.704 309.505C527.025 309.045 528.742 309.237 530.162 309.237H538.913H569.659L569.395 307.397L568.867 304.599L568.47 302.413C568.173 300.497 567.843 298.35 567.017 296.625C565.234 292.907 562.46 290.837 559.025 289.649C555.393 288.805 550.571 289.419 546.773 289.419L542.777 289.495Z" fill="url(#paint6_linear_127_18489)"/>
<path d="M568.867 304.637L525.176 304.713C524.846 305.633 525.044 306.093 525.209 307.052C526.761 307.55 528.511 307.32 530.096 307.32H539.079L569.362 307.397L568.867 304.637Z" fill="#F9E780"/>
<path d="M568.47 302.452C568.173 300.535 567.843 298.388 567.017 296.663C565.234 292.945 562.46 290.875 559.025 289.687L557.176 289.993C558.167 290.147 559.058 290.3 559.983 290.645L559.884 291.028L559.554 291.067C559.058 291.105 558.629 291.335 558.167 291.565L558.002 291.527C556.648 291.258 554.6 291.757 553.114 291.795L537.097 291.91C534.224 291.948 531.186 291.718 528.346 292.102C527.586 292.217 526.827 292.523 526.232 293.06C524.878 294.248 523.854 296.127 523.722 298.082C523.623 299.538 523.953 301.263 524.119 302.72H556.152C558.398 302.758 566.852 303.487 568.47 302.452Z" fill="#FBD174"/>
<path d="M515.796 289.457C513.419 289.304 511.404 288.997 509.159 290.185C507.904 290.185 506.814 290.262 505.625 290.722C503.412 291.565 501.761 292.984 500.671 295.399C500.143 296.587 499.747 298.12 499.681 299.462C499.582 304.254 500.539 308.662 501.332 313.3L504.965 334.575L509.39 361.217C510.281 366.622 510.909 372.295 512.296 377.547C512.758 379.847 513.452 380.882 515.103 382.224C515.863 380.69 516.556 379.349 517.712 378.16C519.594 378.199 521.84 378.544 523.689 377.854C525.968 378.659 527.322 380.384 528.379 382.799L528.577 383.297L532.903 383.335H566.126L566.786 382.99C566.984 381.304 567.414 380.384 568.305 379.042L546.773 379.08C543.735 379.08 539.937 379.579 536.998 378.889C535.116 378.429 532.903 376.359 531.912 374.557C530.79 372.564 530.558 368.922 530.162 366.545L526.893 347.532L522.038 320.009L518.967 302.414C518.802 301.11 518.703 299.807 518.934 298.504C519.66 294.517 522.137 291.872 524.911 289.687C523.326 289.265 521.411 289.534 519.792 289.534H517.349L515.796 289.457Z" fill="#D05A26"/>
<path d="M515.796 289.457C513.419 289.304 511.404 288.997 509.159 290.185C508.63 290.76 508.168 291.374 507.772 292.025C506.682 293.75 505.988 296.357 506.054 298.504C506.12 300.804 506.781 303.295 507.177 305.557L509.225 317.172L515.763 356.655L519.297 377.01L523.029 377.087L513.419 321.005C512.296 313.99 510.513 306.822 509.819 299.769C509.687 298.504 509.654 297.124 509.984 295.859C510.975 292.332 513.122 291.029 515.796 289.457Z" fill="#040C17"/>
<path d="M457.277 298.196L453.744 353.243C453.579 355.735 453.48 367.158 452.819 368.691C452.72 368.883 452.324 369.228 452.159 369.381L450.639 369.573C450.639 371.221 450.276 375.016 450.838 376.396C452.489 375.668 454.933 376.051 456.716 376.051L471.544 376.435L512.296 377.585C510.909 372.333 510.281 366.66 509.39 361.255L504.931 334.651L501.299 313.376C500.539 308.7 499.549 304.33 499.648 299.538L457.542 299.5L457.277 298.196Z" fill="#BAA991"/>
<path d="M414.18 214.707L381.585 260.707L373.858 271.824C372.206 274.239 370.357 276.73 369.069 279.452C368.078 281.522 367.748 283.745 367.946 286.122C368.343 290.837 372.603 295.859 375.046 299.577L340.008 299.615L339.975 345.117L340.008 357.767C340.008 360.565 340.14 363.517 339.776 366.315C339.347 369.459 338.158 372.065 336.705 374.71L395.918 374.595L405.099 374.634C406.354 374.595 407.608 374.174 408.83 374.825C408.698 375.515 408.632 376.09 408.632 376.819C406.882 378.774 404.207 380.039 402.82 382.415C402.225 383.45 401.763 384.524 402.027 385.789C402.225 386.67 402.721 387.514 403.381 388.012C405.792 386.747 408.038 384.869 410.25 383.22L421.545 374.864C425.64 375.477 429.999 375.324 434.127 375.4C435.514 375.439 438.057 375.094 439.147 375.975L439.576 376.857L440.005 376.55C439.345 375.439 439.741 371.337 439.741 369.842L450.639 369.535L452.158 369.344C452.323 369.19 452.72 368.845 452.819 368.654C453.479 367.12 453.578 355.697 453.743 353.205L457.277 298.159L462.627 223.562C460.117 224.865 457.112 225.555 454.371 225.977C445.487 227.357 435.976 225.824 427.621 222.22C424.121 221.032 420.884 219.575 417.582 217.735L414.18 214.707Z" fill="#0D3338"/>
<path d="M428.217 255.301C428.943 254.841 431.024 253.193 431.684 253.155C432.741 253.116 434.854 254.075 435.944 254.42C439.015 255.301 441.955 256.106 445.125 256.375C436.968 252.771 429.405 248.9 423.263 241.386C421.744 239.508 420.522 237.4 419.102 235.406C420.687 239.585 422.569 243.15 424.782 246.868L382.181 288.191L388.62 288.805L402.359 315.945L412.728 336.415C413.917 338.791 416.724 343.123 416.724 345.845L416.031 347.301L419.036 345.116L420.291 343.928C420.423 341.858 415.535 331.24 414.478 328.633L402.854 299.5L396.48 284.358L428.217 255.301Z" fill="#040C17"/>
<path d="M417.582 217.735L417.681 218.119C417.945 219 419.134 219.767 419.761 220.265C423.262 222.987 426.961 225.057 430.891 226.82C437.892 229.925 445.091 231.727 452.488 233.03L449.087 368.999C450.012 369.497 451.134 369.305 452.158 369.305C452.323 369.152 452.72 368.807 452.819 368.615C453.479 367.082 453.578 355.659 453.743 353.167L457.277 298.12L462.627 223.524C460.117 224.827 457.112 225.517 454.371 225.939C445.487 227.319 435.976 225.785 427.621 222.182C424.121 221.032 420.884 219.575 417.582 217.735Z" fill="url(#paint7_linear_127_18489)"/>
<path d="M431.254 299.232L428.216 255.302L396.48 284.32L402.853 299.462L414.478 328.595C415.535 331.202 420.422 341.82 420.29 343.89L419.035 345.078L416.03 347.263L410.218 351.863L409.293 352.4C409.095 352.323 408.864 352.323 408.666 352.208C408.17 351.863 407.411 350.368 407.048 349.793L401.665 341.322L375.08 299.615L340.041 299.653L339.975 345.117L340.008 357.767C340.008 360.565 340.14 363.517 339.777 366.315C339.348 369.458 338.159 372.065 336.706 374.71L395.918 374.595L405.099 374.633C406.354 374.595 407.609 374.173 408.831 374.825C408.699 375.515 408.633 376.09 408.633 376.818C406.882 378.773 404.207 380.038 402.82 382.415C402.226 383.45 401.764 384.523 402.028 385.788C402.226 386.67 402.721 387.513 403.382 388.012C405.793 386.747 408.038 384.868 410.251 383.22L421.545 374.863C425.64 375.477 429.999 375.323 434.128 375.4C435.515 375.438 438.057 375.093 439.147 375.975L439.577 376.857L440.006 376.55C439.345 375.438 439.742 371.337 439.742 369.842L435.647 369.957L431.254 299.232Z" fill="#BAA991"/>
<path d="M415.336 371.528C414.246 371.183 413.123 370.57 412.034 370.34L411.967 370.493C411.802 370.953 411.637 371.298 411.406 371.72C410.845 372.678 410.58 373.445 409.557 373.867L409.359 374.173C409.193 374.442 409.061 374.595 408.764 374.748C408.632 375.438 408.566 376.013 408.566 376.742L415.336 371.528Z" fill="#841506"/>
<path d="M423.494 352.745C423.329 354.738 422.999 355.007 421.645 356.31C420.159 357.728 418.475 359.032 416.691 359.875C416.691 360.182 416.79 360.488 416.889 360.795C417.583 361.293 418.177 361.408 418.97 361.408C421.909 361.408 424.089 358.955 426.037 356.693C425.278 355.275 424.551 353.933 423.494 352.745Z" fill="#FFEFD5"/>
<path d="M419.035 345.078L416.03 347.263L410.218 351.863C411.208 353.55 412.199 355.543 413.487 356.961C413.85 356.808 414.742 356.31 415.039 356.501C415.766 356.923 416.459 357.651 416.69 358.61C416.789 359.031 416.789 359.491 416.723 359.913C418.507 359.108 420.191 357.766 421.677 356.348C423.031 355.045 423.361 354.776 423.526 352.783C422.007 352.016 419.993 346.88 419.035 345.078Z" fill="#F28A6A"/>
<path d="M421.578 374.825L433.698 365.702C432.741 363.594 431.75 362.175 430.264 360.565C425.112 363.287 420.092 367.887 415.37 371.567L408.633 376.78C406.883 378.735 404.208 380 402.821 382.377C402.226 383.412 401.764 384.485 402.028 385.75C402.226 386.632 402.721 387.475 403.382 387.974C405.793 386.709 408.038 384.83 410.251 383.182L421.578 374.825Z" fill="#FFEFD5"/>
<path d="M537.461 145.783C536.899 140.11 535.347 134.13 533.564 128.84C528.379 113.2 519.528 98.7101 508.531 87.8235C489.509 69.0018 464.51 58.4601 439.411 60.7985L439.477 61.5268C440.963 64.3251 443.308 65.6285 445.851 66.8935C453.48 70.7268 462.66 72.4518 465.269 82.9935L468.275 77.6651C468.737 78.0485 468.737 78.7001 468.803 79.3135C469.001 80.9235 468.737 82.2268 468.142 83.6451C468.869 84.4501 470.983 83.8368 471.082 84.7185C469.563 86.1751 468.275 87.1335 466.227 86.9035L465.765 87.8235C465.6 91.5801 464.047 95.2218 462.561 98.5185C462.132 102.083 461.604 104.268 459.061 106.492C458.004 107.412 456.683 108.063 455.329 107.948L454.801 106.722L453.678 105.802C453.249 106.492 452.192 107.91 452.06 108.677C448.823 112.97 445.389 116.113 440.732 118.145L439.477 118.605C439.114 120.215 438.718 121.863 438.652 123.55L437.925 123.818C433.863 124.623 431.981 125.697 428.91 128.763L428.844 128.993C428.084 130.987 426.763 132.712 425.838 134.628C422.14 142.372 420.224 149.502 419.663 158.318C419.564 162.19 418.837 168.017 419.927 171.62L414.148 214.707L417.549 217.735C420.852 219.575 424.088 220.993 427.589 222.22C435.944 225.823 445.488 227.357 454.338 225.977C457.079 225.555 460.052 224.903 462.594 223.562L457.244 298.158L457.542 299.423L499.681 299.5C499.747 298.158 500.143 296.625 500.671 295.437C501.761 293.022 503.446 291.603 505.625 290.76C506.847 290.3 507.904 290.262 509.159 290.223C511.371 288.997 513.419 289.342 515.797 289.495H517.349H519.793C521.411 289.495 523.326 289.265 524.911 289.648C529.568 288.882 534.852 289.495 539.574 289.495L542.777 289.457L546.806 289.418L547.236 285.968C548.788 276.653 555.558 269.983 563.451 268.412C565.333 268.028 567.513 268.22 569.428 268.22C574.844 268.22 579.732 266.878 584.256 263.275C590.035 258.675 594.196 251.277 595.451 243.303C596.673 235.637 595.187 227.433 591.323 221.032C587.558 214.745 581.779 210.222 575.339 208.612C571.872 207.73 568.503 207.845 564.97 207.845H551.793C549.283 207.845 546.311 208.228 543.834 207.692C540.697 207.002 538.121 204.97 536.338 201.942C532.21 194.927 534.918 189.177 536.569 182.008C537.395 178.443 537.956 174.763 538.55 171.122L553.675 170.93C551.793 170.393 549.184 170.777 547.236 170.777L529.766 170.93C530.757 169.857 531.912 168.86 533.068 168.093C534.687 167.058 536.701 166.407 538.517 165.985C538.914 164.068 538.782 161.577 538.715 159.622C538.583 155.022 538.352 150.192 537.461 145.783Z" fill="#BAA991"/>
<path d="M533.002 239.969L533.464 239.547C534.29 238.55 534.191 237.669 534.125 236.442C532.54 235.062 529.436 235.56 527.421 235.522C528.313 237.094 528.478 238.014 528.346 239.892L529.733 240.084C530.79 240.16 531.912 240.045 533.002 239.969Z" fill="#040C17"/>
<path d="M533.002 239.969C531.912 240.007 530.79 240.16 529.7 240.007C531.153 244.914 532.044 250.012 533.002 255.072L537.031 276.079L538.814 285.164C539.079 286.505 539.541 288.154 539.574 289.495L542.777 289.457C541.787 286.544 541.324 282.902 540.73 279.797L537.031 260.937C535.71 254.075 533.762 246.984 533.002 239.969Z" fill="#446F82"/>
<path d="M525.638 236.595C525.572 233.068 524.879 229.58 524.284 226.13L521.906 212.062C520.09 201.022 518.736 189.637 516.193 178.788C515.797 177.102 515.269 175.53 514.443 174.035C512.957 171.237 510.15 168.707 508.102 166.445L495.784 152.722C494.529 155.443 492.713 157.935 491.095 160.35C488.288 164.49 485.249 168.822 481.683 172.118L481.848 172.272C484.952 174.802 488.519 177.6 492.118 179.057C495.388 180.398 498.525 181.165 501.96 181.817C501.2 183.848 501.035 185.842 500.408 187.835C500.143 188.717 500.242 190.02 500.242 190.978C500.242 192.128 500.143 193.432 500.309 194.543C500.573 196.23 501.596 198.147 502.224 199.718L506.517 210.375L516.259 235.023C516.755 236.25 517.118 237.592 518.274 238.128C520.024 238.358 523.657 238.933 525.077 237.668C525.407 237.285 525.506 237.017 525.638 236.595Z" fill="#F4A04E"/>
<path d="M516.226 234.947L506.483 210.299L502.19 199.642C501.563 198.07 500.539 196.154 500.275 194.467C500.11 193.355 500.209 192.014 500.209 190.902C500.209 189.982 500.11 188.64 500.374 187.759C501.001 185.765 501.166 183.772 501.926 181.74C498.491 181.089 495.387 180.36 492.085 178.98L492.019 216.087C491.094 219.192 490.004 221.147 487.329 222.527C485.48 223.485 481.814 222.949 479.734 222.949L463.288 222.91L462.594 223.524L457.244 298.12L457.541 299.385L499.68 299.5C499.746 298.159 500.143 296.625 500.671 295.437C501.761 293.022 503.445 291.604 505.625 290.76C506.847 290.3 507.903 290.262 509.158 290.224C511.371 288.997 513.418 289.342 515.796 289.495H517.348H519.792C521.41 289.495 523.326 289.265 524.911 289.649C529.567 288.882 534.851 289.495 539.574 289.495C539.508 288.115 539.045 286.505 538.814 285.164L537.031 276.079L533.002 255.072C532.011 250.012 531.12 244.914 529.699 240.007L528.312 239.815C528.478 237.937 528.279 237.017 527.388 235.445L525.902 235.56L525.67 236.557C525.505 236.979 525.439 237.247 525.109 237.554C523.689 238.78 520.023 238.244 518.306 238.014C517.117 237.515 516.721 236.135 516.226 234.947Z" fill="#BAA991"/>
<path d="M514.74 235.521C512.956 235.521 508.63 234.908 507.177 235.713L507.871 239.968L512.164 239.93L514.608 240.313L514.74 235.521Z" fill="#040C17"/>
<path d="M507.871 240.007L517.349 289.495H519.792C519.33 284.819 518.174 280.027 517.349 275.427L513.122 252.159L511.735 244.99C511.404 243.534 510.81 241.809 511.041 240.275L512.164 240.007H507.871Z" fill="#446F82"/>
<path d="M516.226 234.946L514.739 235.521L514.607 240.351L512.164 239.968L511.041 240.236C510.81 241.731 511.404 243.495 511.734 244.951L513.121 252.12L517.348 275.388C518.174 279.988 519.33 284.78 519.792 289.456C521.41 289.456 523.326 289.226 524.911 289.61C529.567 288.843 534.851 289.456 539.574 289.456C539.508 288.076 539.045 286.466 538.814 285.125L537.031 276.04L533.002 255.033C532.011 249.973 531.12 244.875 529.699 239.968L528.312 239.776C528.478 237.898 528.279 236.978 527.388 235.406L525.902 235.521L525.67 236.518C525.505 236.94 525.439 237.208 525.109 237.515C523.689 238.741 520.023 238.205 518.306 237.975C517.117 237.515 516.721 236.135 516.226 234.946Z" fill="#BAA991"/>
<path d="M516.226 234.946L514.74 235.521L514.608 240.351C515.334 241.118 515.83 241.425 516.82 241.578C520.057 242 525.704 242.306 528.313 239.853C528.478 237.975 528.28 237.055 527.388 235.483L525.902 235.598L525.671 236.595C525.506 237.016 525.44 237.285 525.109 237.591C523.689 238.818 520.024 238.281 518.306 238.051C517.118 237.515 516.721 236.135 516.226 234.946Z" fill="#C93728"/>
<path d="M453.71 105.84C453.281 106.53 452.224 107.948 452.092 108.715C448.856 113.008 445.421 116.152 440.765 118.183L439.51 118.643C439.146 120.253 438.75 121.902 438.684 123.588L437.958 123.857C433.896 124.662 432.013 125.735 428.942 128.802L428.876 129.032C428.116 131.025 426.795 132.75 425.871 134.667C422.172 142.41 420.257 149.54 419.695 158.357C419.596 162.228 418.87 168.055 419.959 171.658L414.18 214.745L417.582 217.773C420.884 219.613 424.12 221.032 427.621 222.258C435.976 225.862 445.52 227.395 454.371 226.015C457.112 225.593 460.084 224.942 462.627 223.6L463.32 222.987L479.766 223.025C481.847 223.025 485.513 223.6 487.362 222.603C490.037 221.185 491.127 219.23 492.051 216.163L492.118 179.057C488.518 177.6 484.951 174.802 481.847 172.272L481.682 172.118C485.248 168.822 488.287 164.452 491.094 160.35C492.745 157.935 494.528 155.443 495.783 152.722L495.684 152.453L478.545 136.852C478.082 133.21 477.983 131.217 475.341 128.802C474.152 128.303 473.095 127.958 471.841 127.805C468.769 127.077 464.839 126.732 461.768 127.652L454.338 124.93C454.371 123.742 454.239 122.553 454.173 121.365C453.875 118.528 453.248 114.388 453.875 111.628C454.14 110.44 454.866 109.137 455.394 108.102L454.866 106.875L453.71 105.84Z" fill="#4BAC55"/>
<path d="M437.958 123.856C433.896 124.661 432.014 125.735 428.942 128.801L428.876 129.031C428.117 131.025 426.796 132.75 425.871 134.666C422.172 142.41 420.257 149.54 419.696 158.356C419.597 162.228 418.87 168.055 419.96 171.658C420.455 169.971 420.587 168.055 420.818 166.253C421.941 162.995 422.404 159.046 423.196 155.635C426.003 143.905 430.462 134.36 438.288 126.195L438.52 124.853L437.958 123.856Z" fill="#910D6A"/>
<path d="M438.553 124.892C436.968 124.892 435.019 127.115 433.962 128.342C427.093 136.392 423.692 146.818 421.776 157.743C421.347 160.12 420.72 163.033 420.786 165.448L420.819 166.253C421.941 162.995 422.404 159.047 423.196 155.635C426.003 143.905 430.462 134.36 438.289 126.195L438.553 124.892Z" fill="#56093F"/>
<path d="M471.808 127.728C468.737 127 464.807 126.655 461.736 127.575C459.391 128.571 457.377 129.568 456.254 132.328C452.951 140.416 454.801 151.84 457.41 159.89L464.51 176.871L467.284 183.043L468.836 185.765L469.463 185.841C470.553 184.96 471.115 183.886 471.808 182.621C469.034 179.133 466.524 175.645 464.642 171.428C463.882 170.163 463.255 167.978 462.859 166.56C461.604 162.305 460.877 158.05 460.151 153.641C460.25 152.836 460.316 151.955 460.514 151.15C460.844 149.961 460.811 148.62 460.877 147.355C460.844 142.103 460.943 136.43 463.981 132.213L464.213 131.868C466.194 129.223 472.37 128.955 475.342 128.763C474.153 128.226 473.063 127.92 471.808 127.728Z" fill="#910D6A"/>
<path d="M475.309 128.763C474.12 128.265 473.063 127.92 471.808 127.767C468.307 128.303 464.675 128.495 462.297 132.06C458.995 136.967 459.16 145.975 459.886 151.878L460.117 153.68C460.216 152.875 460.283 151.993 460.481 151.188C460.811 150 460.778 148.658 460.844 147.393C460.811 142.142 460.91 136.468 463.948 132.252L464.179 131.907C466.194 129.185 472.369 128.955 475.309 128.763Z" fill="#56093F"/>
<path d="M453.71 105.84C453.281 106.53 452.224 107.948 452.092 108.715C448.856 113.008 445.421 116.152 440.765 118.183L439.51 118.643C439.147 120.253 438.75 121.902 438.684 123.588L437.958 123.857L438.552 124.853L438.321 126.195C438.024 127.882 437.594 129.798 437.925 131.523C438.156 132.75 439.081 133.823 439.972 134.475C441.524 135.587 443.44 135.587 445.19 135.088C449.648 133.785 452.158 129.147 454.338 124.853C454.371 123.665 454.239 122.477 454.173 121.288C453.875 118.452 453.248 114.312 453.875 111.552C454.14 110.363 454.866 109.06 455.395 108.025L454.866 106.798L453.71 105.84Z" fill="#F18B56"/>
<path d="M453.71 105.84C453.281 106.53 452.224 107.948 452.092 108.715C448.856 113.008 445.421 116.152 440.765 118.183L439.51 118.643C439.147 120.253 438.75 121.902 438.684 123.588L437.958 123.857L438.552 124.853C439.213 123.78 440.302 124.202 441.359 124.125C444.695 123.972 447.898 122.477 451.002 121.173L448.856 126.962L451.432 123.588C452.488 122.477 452.852 123.895 454.041 123.895L454.173 121.25C453.875 118.413 453.248 114.273 453.875 111.513C454.14 110.325 454.866 109.022 455.395 107.987L454.866 106.76L453.71 105.84Z" fill="#D05A26"/>
<path d="M452.093 108.715C448.856 113.008 445.422 116.152 440.765 118.183C441.657 118.682 442.615 118.49 443.573 118.413C446.016 118.222 448.064 117.187 449.682 115.002C450.838 113.507 452.225 110.747 452.093 108.715Z" fill="#F18B56"/>
<path d="M467.316 183.044L464.542 176.872C460.844 189.1 455.956 203.897 448.03 213.289C445.95 215.78 443.77 217.927 441.062 219.422C436.637 221.875 432.476 222.297 427.654 222.22C436.009 225.824 445.553 227.357 454.404 225.977C457.145 225.555 460.117 224.904 462.66 223.562L463.353 222.949C464.08 221.032 464.014 218.08 464.245 215.972L467.316 183.044Z" fill="#0C773F"/>
<path d="M475.309 128.764C472.37 128.955 466.161 129.224 464.18 131.869L463.948 132.214C460.91 136.469 460.844 142.104 460.844 147.355C460.778 148.62 460.811 149.924 460.481 151.15C460.283 151.917 460.217 152.837 460.118 153.642C460.844 158.05 461.604 162.305 462.826 166.56C463.255 168.017 463.849 170.202 464.609 171.429L465.104 169.09C465.633 170.355 466.194 172.004 466.987 173.039C467.185 173.537 467.218 173.729 467.614 174.035C469.298 170.777 470.487 166.445 471.511 162.804L476.531 167.672C478.149 169.129 479.833 170.892 481.616 172.08C485.183 168.784 488.221 164.414 491.028 160.312C492.68 157.897 494.463 155.405 495.718 152.684L495.619 152.415L478.479 136.814C478.083 133.134 477.951 131.179 475.309 128.764Z" fill="#4BAC55"/>
<path d="M471.544 162.803L470.421 161.807C469.827 162.458 469.695 163.532 469.463 164.452L467.977 169.78C467.68 170.93 467.614 172.042 467.02 173.038C467.218 173.537 467.251 173.728 467.647 174.035C469.298 170.738 470.52 166.445 471.544 162.803Z" fill="#0C773F"/>
<path d="M465.137 169.051C462.594 162.036 461.438 154.906 460.877 147.316C460.811 148.581 460.844 149.885 460.513 151.111C460.315 151.878 460.249 152.798 460.15 153.603C460.877 158.011 461.636 162.266 462.858 166.521C463.287 167.978 463.882 170.163 464.641 171.39L465.137 169.051Z" fill="#56093F"/>
<path d="M475.308 128.764C472.369 128.955 466.161 129.224 464.179 131.869L463.948 132.214C467.151 130.795 470.487 131.83 473.525 133.479L478.512 136.814C478.082 133.134 477.95 131.179 475.308 128.764Z" fill="#56093F"/>
<path d="M471.545 162.804C470.521 166.445 469.332 170.739 467.648 174.035C467.251 173.729 467.218 173.537 467.02 173.039C466.228 172.004 465.699 170.317 465.138 169.09L464.643 171.429C466.525 175.645 469.035 179.134 471.809 182.622C471.115 183.887 470.554 184.96 469.464 185.842L468.837 185.765L467.284 183.044L464.147 215.972C463.916 218.08 464.015 221.032 463.256 222.949L479.702 222.987C481.782 222.987 485.448 223.562 487.297 222.565C489.972 221.147 491.062 219.192 491.987 216.125L492.053 179.019C488.453 177.562 484.886 174.764 481.782 172.234L481.617 172.08C479.834 170.892 478.149 169.129 476.531 167.672L471.545 162.804Z" fill="#56093F"/>
<path d="M481.649 172.08C479.866 170.892 478.182 169.129 476.563 167.672C476.134 171.467 476.299 175.454 476.299 179.287V198.262C476.299 202.862 475.771 208.152 476.299 212.637C476.431 213.825 476.927 214.937 477.554 215.895C478.314 217.045 479.238 217.735 480.493 217.889C481.814 218.042 483.333 218.119 484.654 217.965C483.664 217.352 482.673 216.7 481.913 215.704C481.418 215.09 481.121 214.515 481.055 213.672C480.625 209.149 481.187 204.127 481.319 199.565L481.847 172.195L481.649 172.08Z" fill="#910D6A"/>
<path d="M481.847 172.233L481.319 199.603C481.22 204.165 480.626 209.187 481.055 213.71C481.121 214.553 481.418 215.128 481.913 215.742C482.706 216.738 483.664 217.352 484.654 218.003C487.792 218.042 489.278 218.118 492.019 216.163L492.085 179.057C488.518 177.562 484.952 174.763 481.847 172.233Z" fill="#C785B4"/>
<path d="M339.942 121.02C339.975 113.66 340.041 107.68 335.187 102.045C331.025 97.1767 326.336 96.5634 320.689 96.5634L249.224 96.525H230.136C226.404 96.525 222.342 96.1033 218.677 96.7933C215.671 97.33 212.699 99.5533 210.586 102.045C208.406 104.575 207.052 107.833 206.16 111.207C205.599 113.392 205.665 155.328 206.194 157.015C206.392 157.322 206.623 157.667 206.656 158.088C207.151 162.497 206.722 167.787 206.722 172.272C206.722 176.143 207.151 180.82 206.656 184.577C206.59 185.113 206.557 185.305 206.26 185.727C205.797 187.49 205.962 189.598 205.962 191.4L205.929 202.478C205.929 204.28 206.127 206.427 205.863 208.19L205.797 291.91L205.863 342.587L205.797 358.61C205.764 361.753 205.566 365.088 205.962 368.193C206.359 371.49 207.581 374.48 209.397 377.048C211.411 379.195 213.492 381.227 216.266 381.802L220.592 383.488C222.673 384.063 224.984 383.872 227.098 383.872H237.732H276.403H307.875C312.961 383.872 318.41 384.37 323.43 383.757C326.138 383.412 328.516 382.223 330.827 380.537C333.403 379.272 334.955 377.087 336.706 374.633C338.159 372.027 339.381 369.382 339.777 366.238C340.14 363.44 340.008 360.527 340.008 357.69L339.975 345.04L340.008 299.5L375.047 299.462C372.603 295.743 368.343 290.722 367.947 286.007C367.748 283.668 368.079 281.407 369.069 279.337C370.357 276.615 372.207 274.123 373.858 271.708L381.586 260.592L414.214 214.63L419.993 171.543C418.936 167.94 419.63 162.113 419.729 158.242C420.29 149.425 422.206 142.295 425.904 134.552C426.829 132.635 428.15 130.91 428.91 128.917L428.976 128.687C423.196 125.39 418.045 121.288 412.893 116.842C411.374 119.41 409.755 121.787 407.939 124.125C406.783 125.62 405.132 127.307 404.207 128.993L403.91 129.07C401.83 131.792 399.023 134.322 396.414 136.353C394.333 134.475 392.451 132.06 390.568 129.913C384.459 122.898 378.977 115.117 373.462 107.488C370.622 110.172 367.881 113.162 364.842 115.538C358.634 120.407 351.434 122.783 343.971 121.902C342.584 121.825 341.164 121.518 339.942 121.02Z" fill="#111334"/>
<path d="M259.198 104.537C258.009 104.384 258.042 104.384 257.118 105.265C257.151 106.607 257.118 106.875 257.877 107.987C258.174 107.987 258.505 108.025 258.802 107.949C259.462 107.795 259.76 107.067 260.09 106.454C259.925 105.419 259.826 105.304 259.198 104.537Z" fill="#3D3B59"/>
<path d="M287.037 105.61L286.872 105.533C285.65 104.958 283.107 105.303 281.786 105.303H268.114C266.496 105.303 264.052 104.92 262.5 105.61V107.105C262.665 107.182 262.665 107.22 262.896 107.258C264.482 107.642 286.311 107.527 286.971 106.952L287.037 105.61Z" fill="#3D3B59"/>
<path d="M339.942 121.02C339.975 113.66 340.041 107.68 335.187 102.045C331.026 97.1767 326.336 96.5634 320.689 96.5634L249.224 96.525H230.136C226.405 96.525 222.343 96.1033 218.677 96.7933C215.672 97.33 212.7 99.5533 210.586 102.045C208.406 104.575 207.052 107.833 206.161 111.207C205.599 113.392 205.665 155.328 206.194 157.015C206.392 157.322 206.623 157.667 206.656 158.088C207.152 162.497 206.722 167.787 206.722 172.272C206.722 176.143 207.152 180.82 206.656 184.577C206.59 185.113 206.557 185.305 206.26 185.727C205.798 187.49 205.963 189.598 205.963 191.4L205.93 202.478C205.93 204.28 206.128 206.427 205.864 208.19L205.798 291.91L205.864 342.587L205.798 358.61C205.764 361.753 205.566 365.088 205.963 368.193C206.359 371.49 207.581 374.48 209.397 377.048C211.412 379.195 213.492 381.227 216.266 381.802C212.634 379.003 210.124 375.668 208.968 370.685C208.803 369.918 208.638 369.113 208.539 368.308C208.208 364.513 208.473 360.335 208.473 356.502L208.506 331.968V255.148V158.587L208.473 127.153C208.473 121.978 208.175 116.573 208.506 111.437C208.671 108.677 209.827 105.955 211.313 103.885C213.129 101.317 216.134 98.9017 219.073 98.6333C225.48 98.0583 232.25 98.595 238.69 98.595L277.097 98.5567L309.89 98.48C314.811 98.48 320.26 97.9434 325.147 98.5567C327.789 98.9017 330.729 100.358 332.71 102.39C335.319 105.035 337.201 108.14 337.432 112.242C337.73 117.877 337.399 123.742 337.366 129.377L337.3 161.193L337.234 268.45V336.147L337.201 356.08C337.201 359.99 337.366 364.13 336.904 368.002C336.277 373.1 333.635 376.78 330.795 380.498C333.371 379.233 334.923 377.048 336.673 374.595C338.126 371.988 339.348 369.343 339.744 366.2C340.107 363.402 339.975 360.488 339.975 357.652L339.942 345.002L339.975 299.462L340.107 188.257L339.876 186.685C340.471 183.542 340.008 178.98 340.008 175.683L340.041 147.24C339.678 144.902 339.975 141.758 339.975 139.305L339.942 121.02Z" fill="url(#paint8_linear_127_18489)"/>
<path d="M333.007 112.433C332.247 109.022 330.431 106.223 327.789 104.46C324.42 102.237 319.566 102.927 315.801 102.888L301.204 102.812C301.072 105.84 301.072 107.68 298.992 109.865C298.1 110.785 297.01 111.475 295.821 111.667C293.708 112.012 291.363 111.82 289.217 111.82L277.625 111.858H260.882C257.976 111.858 254.97 112.05 252.064 111.782C249.951 111.59 248.531 110.478 247.21 108.562C246.087 106.913 245.757 103.617 243.478 103.348C239.746 102.888 235.618 103.348 231.853 103.31H223.465C222.078 103.31 220.526 103.118 219.172 103.425C217.818 103.732 216.398 104.843 215.374 105.917C214.251 107.067 213.657 108.332 213.029 109.903C212.336 111.667 212.501 113.89 212.501 115.807V126.042H332.908L333.007 112.433Z" fill="#FFEFD5"/>
<path d="M231.589 116.765C230.235 116.228 222.177 116.305 220.724 116.803V117.991C222.111 118.681 229.772 118.375 231.556 118.03L231.589 116.765Z" fill="#B7B3B4"/>
<path d="M231.49 112.817C229.046 112.472 226.338 112.702 223.861 112.702C222.903 112.702 221.516 112.434 220.724 113.047L220.823 114.235C221.054 114.312 221.285 114.389 221.516 114.389C222.573 114.465 230.862 114.657 231.259 114.389C231.457 114.274 231.589 114.044 231.754 113.852L231.49 112.817Z" fill="#B7B3B4"/>
<path d="M314.646 109.942L314.448 109.903C313.523 109.903 313.424 110.248 312.83 111.015C313.259 112.51 314.679 113.315 315.736 114.273C314.58 115.308 312.995 116.305 312.797 118.03C313.49 118.758 313.655 118.873 314.547 119.103L318.015 116.382L320.756 119.103L321.548 119.448C322.407 118.835 322.473 118.797 322.869 117.685C322.572 116.458 320.921 115.385 320.062 114.618L322.836 112.127C322.704 110.977 322.638 110.977 321.878 110.248C320.524 110.402 318.972 111.973 317.849 112.817C316.793 111.667 315.802 110.785 314.646 109.942Z" fill="#FF0548"/>
<path d="M396.348 136.469C394.267 134.59 392.385 132.175 390.502 130.029C384.393 123.014 378.987 115.128 373.472 107.5C370.632 110.183 367.907 113.123 364.869 115.5C358.66 120.368 351.254 122.382 343.791 121.5C342.503 121.347 341.174 121.498 339.919 121L340.008 139.459C340.008 141.912 339.711 145.055 340.074 147.394L340.041 175.837C340.041 179.134 340.536 183.695 339.909 186.839L340.14 188.41L340.008 299.615L375.047 299.577C372.603 295.859 368.343 290.837 367.947 286.122C367.749 283.784 368.079 281.522 369.069 279.452C370.357 276.73 372.207 274.239 373.858 271.824L381.586 260.707L414.214 214.745L419.993 171.659C418.936 168.055 419.63 162.229 419.729 158.357C420.29 149.54 422.206 142.41 425.904 134.667C426.829 132.75 428.15 131.025 428.91 129.032L428.976 128.802C423.196 125.505 418.045 121.404 412.893 116.957C411.374 119.525 409.755 121.902 407.939 124.24C406.783 125.735 405.132 127.422 404.207 129.109L403.91 129.185C401.797 131.907 398.956 134.437 396.348 136.469Z" fill="#BAA991"/>
<path d="M412.86 116.995C411.341 119.563 409.722 121.94 407.906 124.278C406.75 125.773 405.099 127.46 404.174 129.147L403.877 129.223C401.797 131.945 398.989 134.475 396.381 136.507L410.119 150.537L419.729 158.395C420.29 149.578 422.206 142.448 425.904 134.705C426.829 132.788 428.15 131.063 428.91 129.07L428.976 128.84C423.196 125.543 418.012 121.403 412.86 116.995Z" fill="#0C773F"/>
<path d="M412.86 116.995C411.341 119.563 409.722 121.94 407.906 124.278C406.75 125.773 405.099 127.46 404.174 129.147L418.441 140.263C421.743 135.855 424.748 132.098 428.976 128.878C423.196 125.543 418.012 121.403 412.86 116.995Z" fill="#4BAC55"/>
<path d="M333.172 154.6V126.923C333.172 122.247 333.668 117.033 333.007 112.472L332.941 125.965H212.534L212.567 186.877L212.534 234.563L281.72 234.525L332.842 234.602L332.974 211.333C333.205 210.298 333.007 208.612 333.007 207.5L333.04 198.645L333.172 154.6Z" fill="#9DE4EC"/>
<path d="M315.273 200.255C314.844 200.102 314.019 199.719 313.622 199.719C312.797 199.757 311.41 200.754 310.65 201.175L301.139 206.772L298.233 208.765L300.28 209.685C301.238 208.804 302.625 208.19 303.682 207.462L315.273 200.255Z" fill="#FF0548"/>
<path d="M315.372 213.94L299.586 213.25C298.727 213.403 297.902 213.557 297.043 213.518L295.92 214.362C298.199 214.707 299.982 216.355 302.129 217.083C303.087 217.428 304.408 217.275 305.398 217.237C306.356 216.355 306.29 215.358 307.116 214.362C310.055 214.515 313.225 214.362 316.131 214.975C316.528 215.052 316.561 214.937 316.924 214.707L316.726 214.285L315.372 213.94Z" fill="#570D11"/>
<path d="M315.273 200.255L303.682 207.462C302.625 208.19 301.238 208.842 300.28 209.685L305.861 211.563C306.555 211.793 307.413 211.947 307.975 212.483C303.682 212.215 299.091 211.333 294.798 211.525L294.369 212.483C296.02 212.675 297.968 212.675 299.554 213.212L315.339 213.902C313.16 213.25 310.947 212.445 308.668 212.483C308.569 212.292 308.338 211.832 308.437 211.602C308.767 210.835 309.659 209.838 310.154 209.148L314.58 203.053C315.075 202.363 316.033 201.367 316.132 200.485L315.273 200.255Z" fill="#981924"/>
<path d="M274.29 212.866L274.125 212.828C271.813 212.368 269.766 211.678 267.553 210.72C265.968 210.03 264.086 208.496 262.401 208.458C264.383 210.566 266.364 213.25 268.94 214.246C267.091 214.285 262.831 213.48 261.411 215.051C261.774 216.201 262.93 216.7 263.887 217.236L268.214 219.613C270.096 220.61 272.044 220.418 274.059 220.418L282.051 220.341L277.989 218.041C277.13 217.543 275.743 217.006 275.314 216.048C275.248 214.591 274.851 214.055 274.29 212.866Z" fill="#550624"/>
<path d="M294.368 212.522C289.678 212.56 284.89 212.713 280.267 211.87C272.605 210.452 264.877 207.04 257.414 204.51L232.051 195.962C229.079 194.773 226.305 193.01 223.333 191.898C227.989 196.997 234.528 199.143 240.571 201.137L252.658 205.2C255.862 206.235 259.23 207.078 262.334 208.458C264.052 208.458 265.901 209.992 267.486 210.72C269.699 211.678 271.746 212.368 274.058 212.828L274.223 212.867C276.105 212.368 278.88 214.055 280.894 214.323C282.677 214.553 294.632 214.975 295.887 214.362L297.01 213.518C297.869 213.557 298.694 213.403 299.553 213.25C298.001 212.675 296.052 212.675 294.368 212.522Z" fill="url(#paint9_linear_127_18489)"/>
<path d="M295.491 139.42C293.51 137.925 292.024 135.817 289.547 136.392L289.316 136.43C287.731 134.82 287.433 134.437 285.287 134.629L284.825 134.667C283.338 133.057 282.843 131.255 280.498 131.37C279.012 131.447 277.922 132.635 276.932 133.824C275.644 133.67 274.884 133.479 273.761 134.475C273.332 134.859 272.936 135.434 272.573 135.932C271.384 135.932 270.657 135.779 269.732 136.852L268.544 138.5C266.562 138.615 265.703 139.267 263.887 140.034C262.401 140.685 260.816 140.992 259.363 141.797H271.483L297.935 141.682L298.232 141.03C297.605 140.072 296.581 140.302 295.723 139.65L295.491 139.42Z" fill="#FFEFD5"/>
<path d="M299.85 186.609L299.949 185.842L296.614 184.615L274.785 199.757L287.4 205.239L289.613 206.235L299.85 186.609Z" fill="#FF0548"/>
<path d="M274.818 199.795C271.351 198.99 267.685 197.074 264.317 195.732L243.181 187.452C240.341 186.34 236.973 184.539 234 184.27C230.929 184.002 224.555 185.382 222.178 187.797L221.55 188.832C221.946 190.135 222.541 190.902 223.366 191.899C226.339 193.01 229.113 194.774 232.085 195.962L257.448 204.51C264.911 207.04 272.606 210.49 280.3 211.87C284.924 212.714 289.745 212.56 294.402 212.522L294.831 211.564C299.124 211.372 303.682 212.254 308.008 212.522C307.446 211.985 306.588 211.832 305.894 211.602L300.313 209.724L298.266 208.804C296.482 209.685 291.496 207.079 289.712 206.312L287.5 205.315L274.818 199.795Z" fill="#ED4E5B"/>
<path d="M222.177 187.797L221.549 188.832C221.945 190.135 222.54 190.902 223.365 191.899C226.338 193.01 229.112 194.774 232.084 195.962L257.447 204.51C264.91 207.04 272.605 210.49 280.299 211.87C284.923 212.714 289.744 212.56 294.401 212.522L294.83 211.564C292.056 211.564 289.183 210.49 286.508 209.647L269.897 204.089L262.103 201.444C261.178 201.099 260.518 201.29 259.626 200.677C259.626 200.217 259.626 199.872 259.494 199.412C258.933 199.144 258.338 198.837 257.744 198.722C256.984 198.569 256.819 198.914 256.192 199.412L255.432 199.144L255.399 197.994L253.979 196.92C253.385 197.189 253.054 197.84 252.493 198.339L251.733 197.649C251.766 196.997 251.766 196.69 251.502 196.115C250.71 195.77 249.95 195.349 249.091 195.425C248.86 195.732 248.629 196 248.431 196.345L248.299 196.575L247.539 196.384C247.374 195.54 247.704 195.042 247.638 194.084C246.582 193.777 246.086 193.432 245.062 193.854C244.831 194.659 244.699 195.234 244.138 195.809C243.51 195.272 243.51 195.272 243.378 194.39C243.675 193.777 243.708 193.547 243.675 192.895C243.048 192.205 242.42 191.745 241.661 191.285C241 191.745 240.934 191.899 240.736 192.78C240.571 193.509 240.406 193.815 239.977 194.352L239.151 193.892C239.217 193.394 239.25 192.819 239.448 192.359C239.712 191.745 239.712 191.4 239.679 190.71L238.557 190.327C237.929 190.174 237.698 190.212 237.203 190.595C237.038 191.362 236.872 191.975 236.476 192.627L236.377 192.78L235.254 192.359L235.188 191.4L233.702 191.745C231.721 192.282 228.319 191.132 226.371 190.442C224.62 189.829 223.894 188.985 222.408 187.874L222.177 187.797Z" fill="#FF0548"/>
<path d="M333.139 307.703L333.007 211.295L332.875 234.563L281.753 234.487L212.567 234.525L212.6 248.172L212.534 307.282V310.272L212.501 343.622C212.501 348.107 212.006 353.435 212.633 357.843C212.964 360.105 213.921 362.443 215.308 364.092C216.959 366.047 219.139 367.388 221.484 367.695C224.72 368.155 228.386 367.772 231.655 367.772L253.782 367.733L323.034 367.695C323.133 367.695 323.199 367.695 323.298 367.695L324.817 367.733C327.228 367.772 329.077 367.082 330.794 365.05C331.917 363.708 332.677 361.945 332.974 360.143C333.568 356.617 333.106 352.093 333.106 348.49L333.073 322.998L333.139 307.703Z" fill="#FFEFD5"/>
<path d="M292.057 346.037C290.24 345.462 287.433 345.883 285.518 345.883L270.459 345.96L270.294 346.65C271.681 347.493 288.622 346.918 291.792 346.918L292.057 346.037Z" fill="#0D3338"/>
<path d="M324.058 346.343C323.661 341.59 324.025 336.415 323.992 331.623C323.992 329.822 324.157 327.713 323.793 325.95C323.661 325.375 322.902 324.493 322.439 324.225C321.317 323.573 302.856 323.573 301.337 324.225C301.601 324.225 302.394 324.11 302.592 324.187C303.12 324.455 304.078 325.797 304.54 326.295L310.187 332.39L324.058 346.343Z" fill="#50C5AB"/>
<path d="M323.727 278.647L299.52 276.5C299.52 278.953 298.859 286.007 300.28 287.617C300.742 288.153 301.534 288.575 302.162 288.652C305.134 289.073 308.569 288.69 311.574 288.69C314.81 288.69 318.212 288.958 321.448 288.69C322.043 288.652 322.505 288.307 322.967 287.885C324.255 285.623 323.76 281.407 323.727 278.647Z" fill="#FF0548"/>
<path d="M323.727 278.646L323.859 268.066C323.859 267.031 323.694 266.226 323.067 265.498C322.638 265 322.274 264.655 321.68 264.501C320.227 264.118 318.113 264.386 316.594 264.425L306.456 264.348C304.87 264.348 301.667 263.811 300.478 265.191C298.926 267.031 299.553 273.855 299.52 276.5L323.727 278.646Z" fill="#ED4E5B"/>
<path d="M324.058 346.344L310.22 332.429L304.573 326.334C304.111 325.835 303.153 324.494 302.625 324.225C302.427 324.11 301.634 324.264 301.37 324.264C300.379 324.877 300.214 325.069 299.62 326.142L299.521 341.475C299.521 343.545 299.124 347.264 300.181 348.912C300.478 349.142 300.908 349.64 301.205 349.794C302.625 350.522 305.729 350.1 307.281 350.139L316.726 350.177C318.278 350.177 320.062 350.369 321.581 350.139C322.572 349.985 323.1 349.295 323.661 348.375C323.959 347.915 323.992 346.919 324.058 346.344Z" fill="#29B996"/>
<path d="M333.139 307.703L333.007 211.295L332.874 234.563L281.753 234.487C285.551 235.867 289.414 238.818 292.948 241.003C296.581 243.227 300.907 245.335 304.209 248.057L287.928 248.018C285.386 248.018 282.578 247.75 280.036 248.095L280.003 248.402L332.941 248.248L332.907 307.55L333.139 307.703Z" fill="#84DEDD"/>
<path d="M281.753 234.486L212.567 234.525L212.6 248.171L280.102 248.133C282.611 247.788 285.418 248.056 287.994 248.056L304.275 248.095C300.973 245.373 296.614 243.226 293.014 241.041C289.381 238.818 285.551 235.866 281.753 234.486Z" fill="#29B996"/>
<rect width="121.307" height="266" rx="11" transform="matrix(-1 0 0 1 333.896 102)" fill="#D9D9D9"/>
<path d="M119.202 163.534C117.452 160.161 114.612 157.669 111.31 156.711C109.89 156.289 108.238 156.251 106.785 156.404C106.257 156.442 104.804 156.941 104.441 156.787C103.945 156.596 102.822 155.331 102.327 154.909C99.0575 152.264 95.0616 151.497 91.1647 152.034C89.5465 148.009 86.9046 144.482 83.1728 142.987C79.5402 141.492 75.6103 141.684 72.1097 143.639C68.6752 145.594 66.1983 148.891 64.9434 153.107C64.349 155.139 64.1839 156.979 64.1508 159.087C60.1879 160.084 56.9515 162.116 54.7059 166.141L54.5408 166.409C49.9504 164.109 45.6242 163.304 40.6705 164.339C38.8872 164.761 36.8397 165.412 35.2215 166.447C34.0327 167.214 32.9098 168.211 31.9191 169.284L49.389 169.131C51.3374 169.131 53.9793 168.747 55.8287 169.284L56.3241 169.207C60.287 169.897 64.9764 169.322 69.0384 169.361L105.035 169.399C107.611 169.399 118.872 170.089 120.556 169.131C120.589 166.907 120.259 165.412 119.202 163.534Z" fill="#DECFBA"/>
</g>
<defs>
<linearGradient id="paint0_linear_127_18489" x1="143.446" y1="305.099" x2="111.358" y2="289.511" gradientUnits="userSpaceOnUse">
<stop stop-color="#4B7238"/>
<stop offset="1" stop-color="#FFE55A"/>
</linearGradient>
<linearGradient id="paint1_linear_127_18489" x1="145.047" y1="278.245" x2="104.748" y2="237.315" gradientUnits="userSpaceOnUse">
<stop stop-color="#3E6D3A"/>
<stop offset="1" stop-color="#E5CB51"/>
</linearGradient>
<linearGradient id="paint2_linear_127_18489" x1="156.802" y1="288.912" x2="200.322" y2="260.073" gradientUnits="userSpaceOnUse">
<stop stop-color="#136434"/>
<stop offset="1" stop-color="#FFE25F"/>
</linearGradient>
<linearGradient id="paint3_linear_127_18489" x1="140.18" y1="231.812" x2="184.8" y2="222.289" gradientUnits="userSpaceOnUse">
<stop stop-color="#887E3F"/>
<stop offset="1" stop-color="#FFEA5D"/>
</linearGradient>
<linearGradient id="paint4_linear_127_18489" x1="145.954" y1="247.531" x2="157.13" y2="211.678" gradientUnits="userSpaceOnUse">
<stop stop-color="#597C45"/>
<stop offset="1" stop-color="#A9BC53"/>
</linearGradient>
<linearGradient id="paint5_linear_127_18489" x1="440.272" y1="388.094" x2="443.809" y2="378.005" gradientUnits="userSpaceOnUse">
<stop stop-color="#AB031E"/>
<stop offset="1" stop-color="#D50C28"/>
</linearGradient>
<linearGradient id="paint6_linear_127_18489" x1="524.179" y1="338.851" x2="572.891" y2="332.176" gradientUnits="userSpaceOnUse">
<stop stop-color="#EE9526"/>
<stop offset="1" stop-color="#F6AF31"/>
</linearGradient>
<linearGradient id="paint7_linear_127_18489" x1="413.516" y1="289.799" x2="460.878" y2="295.263" gradientUnits="userSpaceOnUse">
<stop stop-color="#12111B"/>
<stop offset="1" stop-color="#011521"/>
</linearGradient>
<linearGradient id="paint8_linear_127_18489" x1="200.84" y1="234.827" x2="345.343" y2="241.672" gradientUnits="userSpaceOnUse">
<stop stop-color="#67425D"/>
<stop offset="1" stop-color="#4F4F68"/>
</linearGradient>
<linearGradient id="paint9_linear_127_18489" x1="262.848" y1="198.298" x2="258.529" y2="208.366" gradientUnits="userSpaceOnUse">
<stop stop-color="#770717"/>
<stop offset="1" stop-color="#881634"/>
</linearGradient>
<clipPath id="clip0_127_18489">
<rect width="616" height="414" fill="white" transform="matrix(-1 0 0 1 640 12)"/>
</clipPath>
</defs>
</svg>
