<svg width="48" height="48" viewBox="0 0 48 48" fill="none" xmlns="http://www.w3.org/2000/svg">
<path fill-rule="evenodd" clip-rule="evenodd" d="M28.934 22.4671C28.8236 22.8823 28.5596 23.2267 28.1888 23.4403C27.9452 23.5783 27.6764 23.6491 27.404 23.6491C27.26 23.6491 27.116 23.6299 26.9744 23.5915C26.5676 23.4859 26.2232 23.2255 26.0096 22.8583C25.7936 22.4899 25.736 22.0567 25.8476 21.6415C26.072 20.792 26.9516 20.2808 27.8036 20.5028L27.8096 20.504C28.6568 20.7416 29.1608 21.6211 28.934 22.4671ZM27.5024 27.8083C27.3116 28.5223 26.66 28.9965 25.9496 28.9965C25.8164 28.9965 25.682 28.9807 25.5476 28.9449C24.6944 28.7073 24.188 27.8277 24.4148 26.9817C24.5276 26.5665 24.7964 26.2207 25.1696 26.0083C25.538 25.7983 25.9652 25.7431 26.3732 25.8573C26.7824 25.9639 27.1268 26.2267 27.3416 26.5951C27.5576 26.9683 27.6128 27.3979 27.5024 27.8083ZM23.588 21.0403C23.4752 21.4543 23.2076 21.7999 22.8332 22.0123C22.5908 22.1503 22.322 22.2211 22.052 22.2211C21.9092 22.2211 21.7676 22.2019 21.6284 22.1635C21.2216 22.0569 20.8773 21.7939 20.6625 21.4255C20.4477 21.0535 20.39 20.6228 20.5016 20.2112C20.726 19.3616 21.5984 18.8552 22.4576 19.076L22.4612 19.0772C23.3096 19.3136 23.8148 20.1932 23.588 21.0403ZM22.1564 26.3791C21.9656 27.0931 21.3141 27.5683 20.6061 27.5683C20.4717 27.5683 20.3372 27.5515 20.2016 27.5167C19.3484 27.2803 18.842 26.3983 19.0688 25.5523C19.1804 25.1383 19.4457 24.7915 19.8165 24.5803C20.1849 24.3679 20.6121 24.3151 21.0273 24.4291C21.4377 24.5359 21.7808 24.7963 21.9956 25.1623C22.2092 25.5331 22.2668 25.9639 22.1564 26.3791ZM26.2592 15.5936C24.0092 14.9924 21.6596 15.2984 19.6424 16.4624C17.6252 17.6264 16.1841 19.5056 15.5817 21.7555C14.9793 24.0079 15.2889 26.3599 16.4565 28.3771C17.6205 30.3907 19.5009 31.8285 21.746 32.4261C22.4996 32.6289 23.2628 32.7297 24.0224 32.7297C25.5308 32.7297 27.02 32.3337 28.3616 31.5595C30.3776 30.3955 31.82 28.5165 32.4236 26.2653C33.026 24.0129 32.7152 21.6607 31.5488 19.6424C30.3836 17.63 28.5056 16.1924 26.2592 15.5936Z" fill="#82A0BF"/>
<path fill-rule="evenodd" clip-rule="evenodd" d="M31.8215 31.3596C31.3343 31.2288 30.8471 31.518 30.7187 31.9957C30.3515 33.3661 28.9331 34.1808 27.5603 33.8196C27.0815 33.6888 26.5883 33.9793 26.4599 34.4581C26.3327 34.938 26.6183 35.4312 27.0983 35.5585C27.4739 35.6581 27.8507 35.706 28.2227 35.706C30.1583 35.706 31.9355 34.4136 32.4575 32.4625C32.5871 31.9825 32.3003 31.488 31.8215 31.3596Z" fill="#82A0BF"/>
<path fill-rule="evenodd" clip-rule="evenodd" d="M16.0087 30.7254C15.3451 30.5502 14.7907 30.1242 14.4463 29.5302C14.1007 28.9326 14.0083 28.2366 14.1871 27.5682C14.3167 27.0882 14.0311 26.595 13.5511 26.4654C13.0627 26.3394 12.5779 26.6238 12.4483 27.1014C12.1447 28.2354 12.3007 29.4186 12.8887 30.4326C13.4743 31.4442 14.4187 32.1654 15.5467 32.4642C15.6247 32.4858 15.7015 32.4954 15.7783 32.4954C16.1767 32.4954 16.5403 32.229 16.6471 31.8258C16.7755 31.3458 16.4887 30.8514 16.0087 30.7254Z" fill="#82A0BF"/>
<path fill-rule="evenodd" clip-rule="evenodd" d="M35.1078 17.5872C34.5234 16.5768 33.579 15.8568 32.451 15.558C31.971 15.4296 31.479 15.7164 31.3506 16.1964C31.2234 16.6764 31.509 17.1696 31.989 17.2968C32.6526 17.472 33.207 17.8968 33.5502 18.4896C33.897 19.0872 33.9894 19.7856 33.8106 20.4552C33.6834 20.9352 33.9678 21.4272 34.4478 21.5568C34.5258 21.5772 34.6038 21.5868 34.6806 21.5868C35.079 21.5868 35.4414 21.3216 35.5494 20.9184C35.853 19.7844 35.6958 18.6024 35.1078 17.5872Z" fill="#82A0BF"/>
<path fill-rule="evenodd" clip-rule="evenodd" d="M16.1836 16.6605C16.2604 16.6821 16.3396 16.6905 16.4152 16.6905C16.8136 16.6905 17.1772 16.4265 17.2852 16.0233C17.6524 14.6529 19.0756 13.8405 20.4424 14.2005C20.9176 14.3349 21.4144 14.0445 21.5428 13.5621C21.67 13.0821 21.3844 12.5889 20.9044 12.4617C18.5656 11.8425 16.1668 13.2333 15.5464 15.5589C15.418 16.0389 15.7036 16.5321 16.1836 16.6605Z" fill="#82A0BF"/>
</svg>
