<svg width="90" height="90" viewBox="0 0 90 90" fill="none" xmlns="http://www.w3.org/2000/svg">
<rect x="1" y="1" width="88" height="88" rx="44" fill="#ED272A"/>
<path fill-rule="evenodd" clip-rule="evenodd" d="M57.7334 60.0893L69.4924 50.1323L67.0776 48.967C65.9837 48.5767 66.2956 47.8776 66.6869 46.3984L68.4774 39.5557L61.6271 41.1113C60.9272 41.1898 60.5332 40.7209 60.3786 40.3333L59.5212 37.1434L54.1493 43.4445C53.3705 44.4553 51.8164 44.4553 52.2828 42.1218L54.616 29.2885L51.5013 30.9998C50.6471 31.4659 49.2473 30.688 49.2473 30.688L44.962 22.3669L40.6811 30.688C40.2114 31.5448 39.3553 31.4659 38.4995 30.9998L35.3848 29.2885L37.7223 42.1218C38.189 44.4553 36.6301 44.4553 35.8529 43.4445L30.4794 37.1434L29.5446 40.3333C29.4673 40.7207 29.0009 41.1898 28.3751 41.1113L21.5245 39.5557L23.3167 46.3984C23.7061 47.8776 24.0166 48.5767 22.9273 48.967L20.5125 50.1323L32.2715 60.0893C32.7382 60.4767 32.9714 61.1758 32.8152 61.799L31.8035 65.2974C35.8529 64.8313 39.4326 64.3657 43.4836 63.8995C43.8728 63.8995 44.4954 64.211 44.4954 64.6772L44.4167 77.1974C35.6967 77.0433 27.9084 73.466 22.1471 67.7885C16.3069 61.9534 12.7255 53.8671 12.7255 45.0003C12.7255 36.0559 16.3066 28.0433 22.1471 22.2115C27.987 16.3763 36.0861 12.7221 44.962 12.7221C53.9164 12.7221 62.0152 16.3763 67.8537 22.2115C73.6953 28.0431 77.2766 36.0557 77.2766 45.0003C77.2766 53.8669 73.6953 61.9534 67.8537 67.7885C62.4027 73.2331 55.007 76.7315 46.8323 77.1974L46.9077 79.9215C55.7853 79.4553 63.8054 75.6419 69.7259 69.7314C76.1098 63.3548 80 54.6451 80 45.0003C80 35.3552 76.1098 26.5663 69.7259 20.2656C63.4147 13.8887 54.6976 10 44.9618 10C35.307 10 26.5856 13.889 20.2017 20.2656C13.8918 26.5666 10 35.3552 10 45.0003C10 54.6448 13.8918 63.3548 20.2017 69.7314C26.431 75.9569 34.9968 79.8426 44.4164 80H44.5724H45.8176L45.5847 64.6774C45.5847 64.2871 46.1316 63.8998 46.5207 63.8998C50.568 64.366 54.1493 64.8316 58.2001 65.2977L57.1851 61.7993C57.0302 61.1758 57.264 60.4767 57.7334 60.0893Z" fill="white"/>
</svg>
