<svg width="90" height="90" viewBox="0 0 90 90" fill="none" xmlns="http://www.w3.org/2000/svg">
<rect x="1" y="1" width="88" height="88" rx="44" fill="#CB1D23"/>
<path d="M13.1276 50.1299L15.0491 44.1719L10 40.4662L16.2587 40.4543L18.2127 34.5084L20.1581 40.4543L26.4195 40.478L21.3613 44.1719L23.2739 50.1299L18.2065 46.4478L13.1276 50.1299Z" fill="#F7DE29"/>
<path d="M30.5852 53.3466L32.7035 54.2048L34.1718 52.4532L34.0141 54.7292L36.1289 55.5868L33.9156 56.1469L33.7518 58.3989L32.5397 56.4807L30.332 57.0169L31.789 55.2772L30.5852 53.3466Z" fill="#F7DE29"/>
<path d="M42.0269 41.8959L39.7808 41.5026L38.7054 43.5166L38.3897 41.2644L36.1406 40.8474L38.1872 39.8584L37.8771 37.5946L39.4653 39.2267L41.5117 38.2377L40.4422 40.2518L42.0269 41.8959Z" fill="#F7DE29"/>
<path d="M37.265 52.0957L37.9588 49.9269L36.1211 48.5806H38.4027L39.1059 46.4121L39.8148 48.5806H42.0968L40.2586 49.9269L40.9497 52.0957L39.1059 50.7612L37.265 52.0957Z" fill="#F7DE29"/>
<path d="M30.6998 32.3039L32.7641 33.2692L34.322 31.601L34.051 33.8648L36.1095 34.8419L33.8781 35.271L33.5951 37.5348L32.4843 35.5451L30.25 35.9619L31.799 34.2939L30.6998 32.3039Z" fill="#F7DE29"/>
</svg>
