<svg width="48" height="48" viewBox="0 0 48 48" fill="none" xmlns="http://www.w3.org/2000/svg">
<path d="M27.8401 24C27.8401 24.1211 27.8151 24.2422 27.7651 24.3633C27.7151 24.4844 27.6501 24.5752 27.5701 24.6357L23.1001 29.1768C22.9201 29.3584 22.6901 29.4492 22.4101 29.4492C22.1301 29.4492 21.8901 29.3584 21.6901 29.1768C21.5101 28.9749 21.4201 28.7327 21.4201 28.4502C21.4201 28.1676 21.5101 27.9355 21.6901 27.7539L25.5301 23.8789L21.6901 20.0039C21.5101 19.8021 21.4201 19.5599 21.4201 19.2773C21.4201 18.9948 21.5101 18.7627 21.6901 18.5811C21.8901 18.3792 22.1301 18.2783 22.4101 18.2783C22.6901 18.2783 22.9201 18.3792 23.1001 18.5811L27.5701 23.0918C27.6501 23.2936 27.7151 23.4652 27.7651 23.6064C27.8151 23.7477 27.8401 23.8789 27.8401 24Z" fill="#ABABAB"/>
</svg>
