<svg width="48" height="48" viewBox="0 0 48 48" fill="none" xmlns="http://www.w3.org/2000/svg">
<path fill-rule="evenodd" clip-rule="evenodd" d="M10.9724 20.0934C10.9724 19.4894 11.4621 18.9997 12.0662 18.9997H35.4599C36.064 18.9997 36.5537 19.4894 36.5537 20.0934C36.5537 20.6975 36.064 21.1873 35.4599 21.1873H12.0662C11.4621 21.1873 10.9724 20.6975 10.9724 20.0934Z" fill="#A39583"/>
<path fill-rule="evenodd" clip-rule="evenodd" d="M29.0627 9.28125C29.6668 9.28125 30.1565 9.77094 30.1565 10.375V14.6942C30.1565 15.2983 29.6668 15.788 29.0627 15.788C28.4586 15.788 27.969 15.2983 27.969 14.6942V10.375C27.969 9.77094 28.4586 9.28125 29.0627 9.28125Z" fill="#A39583"/>
<path fill-rule="evenodd" clip-rule="evenodd" d="M18.46 9.28125C19.064 9.28125 19.5537 9.77094 19.5537 10.375V14.6942C19.5537 15.2983 19.064 15.788 18.46 15.788C17.8559 15.788 17.3662 15.2983 17.3662 14.6942V10.375C17.3662 9.77094 17.8559 9.28125 18.46 9.28125Z" fill="#A39583"/>
<path fill-rule="evenodd" clip-rule="evenodd" d="M12.8759 13.2225C14.2162 11.9485 16.0815 11.3548 18.2061 11.3548H29.3191C31.4484 11.3548 33.3148 11.948 34.6531 13.2234C35.9996 14.5068 36.6693 16.3454 36.6631 18.5436C36.6631 18.5432 36.6631 18.5439 36.6631 18.5436V30.52C36.6631 32.7184 35.9904 34.5587 34.6438 35.8442C33.3049 37.1223 31.4387 37.7193 29.3077 37.7193H18.2061C16.0749 37.7193 14.2072 37.1094 12.8683 35.8117C11.5239 34.5086 10.8506 32.6461 10.8506 30.4206V18.5414C10.8506 16.342 11.5272 14.5045 12.8759 13.2225ZM14.383 14.808C13.5647 15.5858 13.0381 16.7948 13.0381 18.5414V30.4206C13.0381 32.2037 13.5681 33.4436 14.3907 34.2409C15.2188 35.0436 16.4819 35.5318 18.2061 35.5318H29.3077C31.0433 35.5318 32.308 35.0497 33.1332 34.2619C33.9508 33.4815 34.4756 32.2689 34.4756 30.52V18.5414V18.5383C34.4807 16.7908 33.9585 15.5833 33.1439 14.807C32.3208 14.0225 31.0563 13.5423 29.3191 13.5423H18.2061C16.4754 13.5423 15.2099 14.022 14.383 14.808Z" fill="#A39583"/>
<path fill-rule="evenodd" clip-rule="evenodd" d="M22.6697 25.5067C22.6697 24.9026 23.1594 24.4129 23.7634 24.4129C24.3676 24.4129 24.8581 24.9026 24.8581 25.5067C24.8581 26.1107 24.3685 26.6004 23.7643 26.6004C23.1603 26.6004 22.6697 26.1107 22.6697 25.5067Z" fill="#A39583"/>
<path fill-rule="evenodd" clip-rule="evenodd" d="M22.6697 30.5765C22.6697 29.9725 23.1594 29.4828 23.7634 29.4828C24.3676 29.4828 24.8581 29.9725 24.8581 30.5765C24.8581 31.1807 24.3685 31.6703 23.7643 31.6703C23.1603 31.6703 22.6697 31.1807 22.6697 30.5765Z" fill="#A39583"/>
<path fill-rule="evenodd" clip-rule="evenodd" d="M16.8079 25.5067C16.8079 24.9026 17.2976 24.4129 17.9016 24.4129C18.5057 24.4129 18.9964 24.9026 18.9964 25.5067C18.9964 26.1107 18.5067 26.6004 17.9026 26.6004C17.2985 26.6004 16.8079 26.1107 16.8079 25.5067Z" fill="#A39583"/>
<path fill-rule="evenodd" clip-rule="evenodd" d="M16.8079 30.5765C16.8079 29.9725 17.2976 29.4828 17.9016 29.4828C18.5057 29.4828 18.9964 29.9725 18.9964 30.5765C18.9964 31.1807 18.5067 31.6703 17.9026 31.6703C17.2985 31.6703 16.8079 31.1807 16.8079 30.5765Z" fill="#A39583"/>
<path fill-rule="evenodd" clip-rule="evenodd" d="M28.5173 25.5067C28.5173 24.9026 29.007 24.4129 29.6111 24.4129C30.2151 24.4129 30.7059 24.9026 30.7059 25.5067C30.7059 26.1107 30.2161 26.6004 29.6121 26.6004C29.0081 26.6004 28.5173 26.1107 28.5173 25.5067Z" fill="#A39583"/>
<path fill-rule="evenodd" clip-rule="evenodd" d="M28.5173 30.5765C28.5173 29.9725 29.007 29.4828 29.6111 29.4828C30.2151 29.4828 30.7059 29.9725 30.7059 30.5765C30.7059 31.1807 30.2161 31.6703 29.6121 31.6703C29.0081 31.6703 28.5173 31.1807 28.5173 30.5765Z" fill="#A39583"/>
</svg>
