<svg width="48" height="48" viewBox="0 0 48 48" fill="none" xmlns="http://www.w3.org/2000/svg">
<path d="M30.0603 13.375C31.5689 13.375 33.0202 13.9712 34.0878 15.0411C35.1565 16.1087 35.7539 17.5488 35.7539 19.0563V27.9437C35.7539 31.0825 33.2002 33.625 30.0603 33.625H18.9464C15.8065 33.625 13.2539 31.0825 13.2539 27.9437V19.0563C13.2539 15.9175 15.7953 13.375 18.9464 13.375H30.0603ZM31.3327 19.225C31.0964 19.2126 30.8714 19.2925 30.7015 19.45L25.6289 23.5C24.9764 24.0411 24.0415 24.0411 23.3789 23.5L18.3164 19.45C17.9665 19.1913 17.4828 19.225 17.1914 19.5287C16.8877 19.8325 16.8539 20.3162 17.1115 20.6537L17.2589 20.8L22.3777 24.7937C23.0077 25.2887 23.7715 25.5588 24.5714 25.5588C25.369 25.5588 26.1464 25.2887 26.7753 24.7937L31.8502 20.7325L31.9402 20.6425C32.209 20.3162 32.209 19.8438 31.9278 19.5175C31.7714 19.3499 31.5565 19.2475 31.3327 19.225Z" fill="#445E87"/>
</svg>
