<svg width="90" height="90" viewBox="0 0 90 90" fill="none" xmlns="http://www.w3.org/2000/svg">
<path d="M86.496 59.6667C80.4559 76.7561 64.1577 89 44.9998 89C25.842 89 9.54375 76.7561 3.50366 59.6667H86.496Z" fill="#138808"/>
<path d="M89 45C89 50.1427 88.1178 55.0793 86.4962 59.6667H3.50383C1.88222 55.0793 1 50.1427 1 45C1 39.8573 1.88222 34.9207 3.50383 30.3333H86.4962C88.1178 34.9207 89 39.8573 89 45Z" fill="white"/>
<path d="M48.014 33.7535L45.9035 40.0294L45.4893 43.1762L46.7039 40.2438L48.014 33.7535Z" fill="#000080"/>
<path d="M41.9873 56.2462L43.2975 49.756L44.5121 46.8236L44.0978 49.9704L41.9873 56.2462Z" fill="#000080"/>
<path d="M50.8223 34.9167L47.1594 40.4325L45.9448 43.3648L47.877 40.8468L50.8223 34.9167Z" fill="#000080"/>
<path d="M39.1792 55.0831L42.1245 49.1531L44.0567 46.635L42.8421 49.5673L39.1792 55.0831Z" fill="#000080"/>
<path d="M53.2335 36.767L48.2679 41.1467L46.3357 43.6648L48.8537 41.7326L53.2335 36.767Z" fill="#000080"/>
<path d="M36.7678 53.2328L41.1476 48.2672L43.6657 46.335L41.7335 48.853L36.7678 53.2328Z" fill="#000080"/>
<path d="M55.0838 39.1783L49.1538 42.1237L46.6357 44.0558L49.5681 42.8412L55.0838 39.1783Z" fill="#000080"/>
<path d="M34.9175 50.8215L40.4333 47.1586L43.3656 45.944L40.8475 47.8761L34.9175 50.8215Z" fill="#000080"/>
<path d="M56.2471 41.9865L49.7568 43.2966L46.8245 44.5112L49.9712 44.097L56.2471 41.9865Z" fill="#000080"/>
<path d="M33.7544 48.0133L40.0302 45.9028L43.177 45.4885L40.2447 46.7032L33.7544 48.0133Z" fill="#000080"/>
<path d="M56.6439 44.9999L50.0357 44.5856L46.8889 44.9999L50.0357 45.4141L56.6439 44.9999Z" fill="#000080"/>
<path d="M33.3577 44.9999L39.9659 44.5856L43.1127 44.9999L39.9659 45.4141L33.3577 44.9999Z" fill="#000080"/>
<path d="M56.2471 48.0133L49.9712 45.9028L46.8245 45.4885L49.7568 46.7032L56.2471 48.0133Z" fill="#000080"/>
<path d="M33.7544 41.9865L40.2447 43.2966L43.177 44.5112L40.0302 44.097L33.7544 41.9865Z" fill="#000080"/>
<path d="M55.0838 50.8215L49.5681 47.1586L46.6357 45.944L49.1538 47.8761L55.0838 50.8215Z" fill="#000080"/>
<path d="M34.9175 39.1783L40.8475 42.1237L43.3656 44.0558L40.4333 42.8412L34.9175 39.1783Z" fill="#000080"/>
<path d="M53.2335 53.2328L48.8537 48.2672L46.3357 46.335L48.2679 48.853L53.2335 53.2328Z" fill="#000080"/>
<path d="M36.7678 36.767L41.7335 41.1467L43.6657 43.6648L41.1476 41.7326L36.7678 36.767Z" fill="#000080"/>
<path d="M50.8223 55.0831L47.877 49.1531L45.9448 46.635L47.1594 49.5673L50.8223 55.0831Z" fill="#000080"/>
<path d="M39.1792 34.9167L42.8421 40.4325L44.0567 43.3648L42.1245 40.8468L39.1792 34.9167Z" fill="#000080"/>
<path d="M48.014 56.2462L46.7039 49.756L45.4893 46.8236L45.9035 49.9704L48.014 56.2462Z" fill="#000080"/>
<path d="M41.9873 33.7535L44.0978 40.0294L44.5121 43.1762L43.2975 40.2438L41.9873 33.7535Z" fill="#000080"/>
<path d="M45.0007 56.643L45.415 50.0347L45.0007 46.8879L44.5864 50.0347L45.0007 56.643Z" fill="#000080"/>
<path d="M45.0007 33.3568L45.415 39.9651L45.0007 43.1118L44.5864 39.9651L45.0007 33.3568Z" fill="#000080"/>
<path d="M44.9992 47.7076C46.4946 47.7076 47.7069 46.4954 47.7069 44.9999C47.7069 43.5045 46.4946 42.2922 44.9992 42.2922C43.5038 42.2922 42.2915 43.5045 42.2915 44.9999C42.2915 46.4954 43.5038 47.7076 44.9992 47.7076Z" fill="#000080"/>
<path d="M46.502 34.1999C46.8385 34.1999 47.1113 33.9271 47.1113 33.5907C47.1113 33.2542 46.8385 32.9814 46.502 32.9814C46.1656 32.9814 45.8928 33.2542 45.8928 33.5907C45.8928 33.9271 46.1656 34.1999 46.502 34.1999Z" fill="#000080"/>
<path d="M43.4981 57.0184C43.8346 57.0184 44.1074 56.7456 44.1074 56.4091C44.1074 56.0727 43.8346 55.7999 43.4981 55.7999C43.1617 55.7999 42.8889 56.0727 42.8889 56.4091C42.8889 56.7456 43.1617 57.0184 43.4981 57.0184Z" fill="#000080"/>
<path d="M49.4039 34.9773C49.7404 34.9773 50.0131 34.7046 50.0131 34.3681C50.0131 34.0317 49.7404 33.7589 49.4039 33.7589C49.0674 33.7589 48.7947 34.0317 48.7947 34.3681C48.7947 34.7046 49.0674 34.9773 49.4039 34.9773Z" fill="#000080"/>
<path d="M40.5963 56.2408C40.9327 56.2408 41.2055 55.968 41.2055 55.6316C41.2055 55.2951 40.9327 55.0223 40.5963 55.0223C40.2598 55.0223 39.9871 55.2951 39.9871 55.6316C39.9871 55.968 40.2598 56.2408 40.5963 56.2408Z" fill="#000080"/>
<path d="M52.0057 36.4794C52.3422 36.4794 52.6149 36.2067 52.6149 35.8702C52.6149 35.5337 52.3422 35.261 52.0057 35.261C51.6692 35.261 51.3965 35.5337 51.3965 35.8702C51.3965 36.2067 51.6692 36.4794 52.0057 36.4794Z" fill="#000080"/>
<path d="M37.9947 54.7388C38.3312 54.7388 38.6039 54.4661 38.6039 54.1296C38.6039 53.7931 38.3312 53.5204 37.9947 53.5204C37.6583 53.5204 37.3855 53.7931 37.3855 54.1296C37.3855 54.4661 37.6583 54.7388 37.9947 54.7388Z" fill="#000080"/>
<path d="M54.1297 38.6037C54.4662 38.6037 54.7389 38.3309 54.7389 37.9945C54.7389 37.658 54.4662 37.3853 54.1297 37.3853C53.7933 37.3853 53.5205 37.658 53.5205 37.9945C53.5205 38.3309 53.7933 38.6037 54.1297 38.6037Z" fill="#000080"/>
<path d="M35.8705 52.6146C36.2069 52.6146 36.4797 52.3418 36.4797 52.0053C36.4797 51.6689 36.2069 51.3961 35.8705 51.3961C35.534 51.3961 35.2612 51.6689 35.2612 52.0053C35.2612 52.3418 35.534 52.6146 35.8705 52.6146Z" fill="#000080"/>
<path d="M55.6319 41.2053C55.9684 41.2053 56.2411 40.9325 56.2411 40.596C56.2411 40.2596 55.9684 39.9868 55.6319 39.9868C55.2955 39.9868 55.0227 40.2596 55.0227 40.596C55.0227 40.9325 55.2955 41.2053 55.6319 41.2053Z" fill="#000080"/>
<path d="M34.3685 50.0129C34.705 50.0129 34.9777 49.7401 34.9777 49.4037C34.9777 49.0672 34.705 48.7944 34.3685 48.7944C34.032 48.7944 33.7593 49.0672 33.7593 49.4037C33.7593 49.7401 34.032 50.0129 34.3685 50.0129Z" fill="#000080"/>
<path d="M56.4095 44.1071C56.746 44.1071 57.0187 43.8344 57.0187 43.4979C57.0187 43.1614 56.746 42.8887 56.4095 42.8887C56.073 42.8887 55.8003 43.1614 55.8003 43.4979C55.8003 43.8344 56.073 44.1071 56.4095 44.1071Z" fill="#000080"/>
<path d="M33.5909 47.1111C33.9274 47.1111 34.2001 46.8384 34.2001 46.5019C34.2001 46.1655 33.9274 45.8927 33.5909 45.8927C33.2544 45.8927 32.9817 46.1655 32.9817 46.5019C32.9817 46.8384 33.2544 47.1111 33.5909 47.1111Z" fill="#000080"/>
<path d="M56.4095 47.1111C56.746 47.1111 57.0187 46.8384 57.0187 46.5019C57.0187 46.1655 56.746 45.8927 56.4095 45.8927C56.073 45.8927 55.8003 46.1655 55.8003 46.5019C55.8003 46.8384 56.073 47.1111 56.4095 47.1111Z" fill="#000080"/>
<path d="M33.5909 44.1071C33.9274 44.1071 34.2001 43.8344 34.2001 43.4979C34.2001 43.1614 33.9274 42.8887 33.5909 42.8887C33.2544 42.8887 32.9817 43.1614 32.9817 43.4979C32.9817 43.8344 33.2544 44.1071 33.5909 44.1071Z" fill="#000080"/>
<path d="M55.6319 50.0129C55.9684 50.0129 56.2411 49.7401 56.2411 49.4037C56.2411 49.0672 55.9684 48.7944 55.6319 48.7944C55.2955 48.7944 55.0227 49.0672 55.0227 49.4037C55.0227 49.7401 55.2955 50.0129 55.6319 50.0129Z" fill="#000080"/>
<path d="M34.3685 41.2053C34.705 41.2053 34.9777 40.9325 34.9777 40.596C34.9777 40.2596 34.705 39.9868 34.3685 39.9868C34.032 39.9868 33.7593 40.2596 33.7593 40.596C33.7593 40.9325 34.032 41.2053 34.3685 41.2053Z" fill="#000080"/>
<path d="M54.1297 52.6146C54.4662 52.6146 54.7389 52.3418 54.7389 52.0053C54.7389 51.6689 54.4662 51.3961 54.1297 51.3961C53.7933 51.3961 53.5205 51.6689 53.5205 52.0053C53.5205 52.3418 53.7933 52.6146 54.1297 52.6146Z" fill="#000080"/>
<path d="M35.8705 38.6037C36.2069 38.6037 36.4797 38.3309 36.4797 37.9945C36.4797 37.658 36.2069 37.3853 35.8705 37.3853C35.534 37.3853 35.2612 37.658 35.2612 37.9945C35.2612 38.3309 35.534 38.6037 35.8705 38.6037Z" fill="#000080"/>
<path d="M52.0057 54.7388C52.3422 54.7388 52.6149 54.4661 52.6149 54.1296C52.6149 53.7931 52.3422 53.5204 52.0057 53.5204C51.6692 53.5204 51.3965 53.7931 51.3965 54.1296C51.3965 54.4661 51.6692 54.7388 52.0057 54.7388Z" fill="#000080"/>
<path d="M37.9947 36.4794C38.3312 36.4794 38.6039 36.2067 38.6039 35.8702C38.6039 35.5337 38.3312 35.261 37.9947 35.261C37.6583 35.261 37.3855 35.5337 37.3855 35.8702C37.3855 36.2067 37.6583 36.4794 37.9947 36.4794Z" fill="#000080"/>
<path d="M49.4039 56.2408C49.7404 56.2408 50.0131 55.968 50.0131 55.6316C50.0131 55.2951 49.7404 55.0223 49.4039 55.0223C49.0674 55.0223 48.7947 55.2951 48.7947 55.6316C48.7947 55.968 49.0674 56.2408 49.4039 56.2408Z" fill="#000080"/>
<path d="M40.5963 34.9773C40.9327 34.9773 41.2055 34.7046 41.2055 34.3681C41.2055 34.0317 40.9327 33.7589 40.5963 33.7589C40.2598 33.7589 39.9871 34.0317 39.9871 34.3681C39.9871 34.7046 40.2598 34.9773 40.5963 34.9773Z" fill="#000080"/>
<path d="M46.502 57.0184C46.8385 57.0184 47.1113 56.7456 47.1113 56.4091C47.1113 56.0727 46.8385 55.7999 46.502 55.7999C46.1656 55.7999 45.8928 56.0727 45.8928 56.4091C45.8928 56.7456 46.1656 57.0184 46.502 57.0184Z" fill="#000080"/>
<path d="M43.4981 34.1999C43.8346 34.1999 44.1074 33.9271 44.1074 33.5907C44.1074 33.2542 43.8346 32.9814 43.4981 32.9814C43.1617 32.9814 42.8889 33.2542 42.8889 33.5907C42.8889 33.9271 43.1617 34.1999 43.4981 34.1999Z" fill="#000080"/>
<path d="M44.9993 31.7999C37.7091 31.7999 31.7993 37.7097 31.7993 44.9999C31.7993 52.2901 37.7091 58.1999 44.9993 58.1999C52.2895 58.1999 58.1993 52.2901 58.1993 44.9999C58.1993 37.7097 52.2895 31.7999 44.9993 31.7999ZM44.9993 56.5076C38.6438 56.5076 33.4916 51.3554 33.4916 44.9999C33.4916 38.6444 38.6438 33.4922 44.9993 33.4922C51.3548 33.4922 56.507 38.6444 56.507 44.9999C56.507 51.3554 51.3548 56.5076 44.9993 56.5076Z" fill="#000080"/>
<path d="M86.496 30.3333H3.50366C9.54375 13.2439 25.842 1 44.9998 1C64.1577 1 80.4559 13.2439 86.496 30.3333Z" fill="#FF9933"/>
</svg>
