<svg width="45" height="45" viewBox="0 0 45 45" fill="none" xmlns="http://www.w3.org/2000/svg">
<path d="M19.4722 12.9496H20.7704V17.3385H19.4722V12.9496Z" fill="url(#paint0_linear_110_8260)"/>
<path d="M19.4722 12.9496H20.7704V17.3385H19.4722V12.9496Z" fill="url(#paint1_linear_110_8260)"/>
<path d="M24.2295 12.9496H25.5277V17.3385H24.2295V12.9496Z" fill="url(#paint2_linear_110_8260)"/>
<path d="M24.2295 12.9496H25.5277V17.3385H24.2295V12.9496Z" fill="url(#paint3_linear_110_8260)"/>
<path d="M18.2413 34H18.2727C18.978 34 19.5395 33.7933 19.5126 33.5508C19.4587 33.0611 19.288 32.54 18.978 32.1312C18.9151 32.0459 18.7354 31.9875 18.5333 31.9875H17.9897C17.7921 31.9875 17.6079 32.0459 17.545 32.1312C17.235 32.54 17.0643 33.0656 17.0104 33.5508C16.9745 33.7933 17.536 34 18.2413 34Z" fill="url(#paint4_linear_110_8260)"/>
<path d="M26.727 34H26.7584C27.4637 34 28.0252 33.7933 27.9983 33.5508C27.9444 33.0611 27.7737 32.54 27.4637 32.1312C27.4008 32.0459 27.2211 31.9875 27.019 31.9875H26.4754C26.2778 31.9875 26.0936 32.0459 26.0307 32.1312C25.7208 32.54 25.55 33.0656 25.4961 33.5508C25.4647 33.7933 26.0217 34 26.727 34Z" fill="url(#paint5_linear_110_8260)"/>
<path d="M17.0554 15.9549H27.9444C28.8069 15.9549 29.5032 16.6512 29.5032 17.5137V31.682C29.5032 32.5445 28.8069 33.2408 27.9444 33.2408H17.0554C16.1929 33.2408 15.4966 32.5445 15.4966 31.682V17.5137C15.4966 16.6512 16.1929 15.9549 17.0554 15.9549Z" fill="url(#paint6_linear_110_8260)"/>
<path d="M18.1155 20.3213C18.9421 20.3213 19.6114 20.9906 19.6114 21.8172V30.0379C19.6114 30.8645 18.9421 31.5338 18.1155 31.5338C17.289 31.5338 16.6196 30.8645 16.6196 30.0379V21.8172C16.6196 20.9906 17.289 20.3213 18.1155 20.3213Z" fill="url(#paint7_linear_110_8260)"/>
<path d="M22.4998 20.3213C23.3264 20.3213 23.9957 20.9906 23.9957 21.8172V30.0379C23.9957 30.8645 23.3264 31.5338 22.4998 31.5338C21.6732 31.5338 21.0039 30.8645 21.0039 30.0379V21.8172C21.0039 20.9906 21.6732 20.3213 22.4998 20.3213Z" fill="url(#paint8_linear_110_8260)"/>
<path d="M26.8843 20.3213C27.7109 20.3213 28.3802 20.9906 28.3802 21.8172V30.0379C28.3802 30.8645 27.7109 31.5338 26.8843 31.5338C26.0578 31.5338 25.3884 30.8645 25.3884 30.0379V21.8172C25.3884 20.9906 26.0578 20.3213 26.8843 20.3213Z" fill="url(#paint9_linear_110_8260)"/>
<path d="M18.6006 16.6557C18.6006 17.8551 19.5709 18.8254 20.7703 18.8254H24.2293C25.4287 18.8254 26.399 17.8551 26.399 16.6557C26.399 16.2693 26.0846 15.9549 25.6982 15.9549H19.3014C18.915 15.9549 18.6006 16.2693 18.6006 16.6557Z" fill="url(#paint10_linear_110_8260)"/>
<path d="M27.9444 15.9549H21.8665V33.2453H27.9489C28.8114 33.2453 29.5077 32.549 29.5077 31.6865V17.5137C29.5032 16.6512 28.8069 15.9549 27.9444 15.9549Z" fill="url(#paint11_linear_110_8260)"/>
<path d="M15.4966 27.118V31.6865C15.4966 32.549 16.1929 33.2453 17.0554 33.2453H27.9444C28.8069 33.2453 29.5032 32.549 29.5032 31.6865V27.118H15.4966Z" fill="url(#paint12_linear_110_8260)"/>
<path d="M20.0742 11H24.9257C25.6265 11 26.1925 11.566 26.1925 12.2668C26.1925 12.9676 25.6265 13.5336 24.9257 13.5336H20.0742C19.3734 13.5336 18.8074 12.9676 18.8074 12.2668C18.8119 11.566 19.3779 11 20.0742 11Z" fill="url(#paint13_linear_110_8260)"/>
<path d="M24.9258 13.4662V12.9855C24.9258 12.4195 24.4676 11.9613 23.9016 11.9613H21.1075C20.5415 11.9613 20.0833 12.4195 20.0833 12.9855V13.4662C20.0833 13.4886 20.0833 13.5111 20.0877 13.5336H24.9303C24.9213 13.5111 24.9258 13.4886 24.9258 13.4662Z" fill="url(#paint14_linear_110_8260)"/>
<path d="M18.8118 12.2668C18.8118 12.9676 19.3778 13.5336 20.0786 13.5336H24.9256C25.6264 13.5336 26.1924 12.9676 26.1924 12.2668C26.1924 12.0511 26.1385 11.849 26.0442 11.6693H18.96C18.8657 11.8445 18.8118 12.0511 18.8118 12.2668Z" fill="url(#paint15_linear_110_8260)"/>
<path d="M24.2833 31.682C24.0992 31.682 23.924 31.5877 23.8251 31.4349L23.4972 30.9318C23.3849 30.9767 23.2726 31.0037 23.1603 31.0037C22.9716 31.0037 22.7964 30.9363 22.6706 30.8105L22.6617 30.8015C22.455 30.5949 22.4101 30.276 22.5359 29.975L22.0328 29.6471C21.7902 29.4898 21.7138 29.1664 21.8576 28.9148L21.9384 28.7756C22.0373 28.6049 22.2169 28.5015 22.4101 28.5015C22.473 28.5015 22.5314 28.5105 22.5898 28.533L23.322 28.789C23.5017 28.551 23.6949 28.3039 23.9015 28.0478L22.5898 27.1898C22.3472 27.0326 22.2664 26.7092 22.4146 26.4576C22.6033 26.1297 22.9537 25.9275 23.331 25.9275C23.4478 25.9275 23.5691 25.9455 23.6814 25.9859L25.2357 26.5295C25.2851 26.4756 25.3345 26.4217 25.3884 26.3678C25.7164 26.0219 26.1611 25.8107 26.5789 25.8107C26.8753 25.8107 27.1494 25.9185 27.3425 26.1117L27.3605 26.1297C27.5582 26.3273 27.666 26.6103 27.6615 26.9158C27.6525 27.3336 27.4503 27.7603 27.1044 28.0838C27.0505 28.1332 26.9966 28.1826 26.9427 28.2365L27.4863 29.7908C27.6525 30.2715 27.4548 30.8015 27.0191 31.0531C26.9337 31.1025 26.8394 31.125 26.7451 31.125C26.5609 31.125 26.3857 31.0307 26.2869 30.8779L25.4199 29.5617C25.1638 29.7683 24.9167 29.966 24.6787 30.1412L24.9347 30.8734C25.0201 31.1205 24.9212 31.399 24.6921 31.5293L24.5529 31.6101C24.472 31.6596 24.3777 31.682 24.2833 31.682Z" fill="url(#paint16_linear_110_8260)"/>
<path d="M25.0965 28.4387L22.7651 26.9203C22.6618 26.853 22.6303 26.7182 22.6932 26.6149C22.8684 26.3094 23.2413 26.1701 23.5737 26.2869L25.8737 27.0955L25.0965 28.4387Z" fill="url(#paint17_linear_110_8260)"/>
<path d="M24.9168 28.3219L22.765 26.9203C22.6797 26.8619 22.6437 26.7586 22.6707 26.6643C22.783 26.6418 22.9357 26.6733 23.0929 26.7676L25.0605 27.9086L24.9168 28.3219Z" fill="url(#paint18_linear_110_8260)"/>
<path d="M25.0291 28.3713L26.5474 30.7028C26.6148 30.8061 26.7496 30.8375 26.8529 30.7746C27.1583 30.5995 27.2976 30.2266 27.1808 29.8942L26.3722 27.5942L25.0291 28.3713Z" fill="url(#paint19_linear_110_8260)"/>
<path d="M26.8036 30.7971C26.7093 30.824 26.606 30.7881 26.5476 30.7027L25.146 28.551L25.5638 28.4072L26.7048 30.3748C26.7901 30.532 26.8261 30.6848 26.8036 30.7971Z" fill="url(#paint20_linear_110_8260)"/>
<path d="M27.0056 29.4L26.3722 27.5942L25.0291 28.3713L26.2105 30.1907L27.0056 29.4Z" fill="url(#paint21_linear_110_8260)"/>
<path d="M23.3041 30.0873L22.208 29.3731C22.1046 29.3057 22.0732 29.1754 22.1361 29.0676L22.217 28.9283C22.2709 28.834 22.3877 28.7936 22.491 28.8295L23.7712 29.2787L23.3041 30.0873Z" fill="url(#paint22_linear_110_8260)"/>
<path d="M23.3804 30.1637L24.0946 31.2598C24.162 31.3631 24.2923 31.3946 24.4001 31.3317L24.5394 31.2508C24.6337 31.1969 24.6741 31.0801 24.6382 30.9768L24.189 29.6965L23.3804 30.1637Z" fill="url(#paint23_linear_110_8260)"/>
<path d="M23.3804 30.1637L24.0946 31.2598C24.162 31.3631 24.2923 31.3946 24.4001 31.3317L24.5394 31.2508C24.6337 31.1969 24.6741 31.0801 24.6382 30.9768L24.189 29.6965L23.3804 30.1637Z" fill="url(#paint24_linear_110_8260)"/>
<path d="M27.1269 26.3588C27.1224 26.3543 27.1179 26.3498 27.109 26.3408C26.7541 25.9859 26.0713 26.1027 25.6131 26.5879C24.5664 27.6975 23.5107 28.9688 22.8818 30.002C22.756 30.2086 22.756 30.4422 22.8908 30.5725L22.8953 30.577C23.0256 30.7072 23.2592 30.7117 23.4658 30.5859C24.4945 29.957 25.7658 28.9014 26.8799 27.8547C27.365 27.392 27.4818 26.7137 27.1269 26.3588Z" fill="url(#paint25_linear_110_8260)"/>
<path d="M23.6724 28.861C23.3715 29.2608 23.1019 29.6471 22.8818 30.002C22.756 30.2086 22.756 30.4422 22.8908 30.5725L22.8953 30.577C23.0256 30.7073 23.2592 30.7117 23.4658 30.586C23.8207 30.3658 24.207 30.0963 24.6068 29.7953L23.6724 28.861Z" fill="url(#paint26_linear_110_8260)"/>
<path d="M27.4817 29.7908C27.6479 30.2715 27.4503 30.8015 27.0146 31.0531C26.9337 31.1025 26.8349 31.125 26.7405 31.125C26.6462 31.125 26.5563 31.1025 26.48 31.0576C26.3991 31.0127 26.3317 30.9543 26.2823 30.8734L25.4198 29.5617C25.1638 29.7683 24.9167 29.966 24.6786 30.1412L24.9347 30.8734C25.02 31.1205 24.9212 31.3945 24.6921 31.5293L24.5528 31.6101C24.472 31.6596 24.3731 31.682 24.2788 31.682C24.0946 31.682 23.9194 31.5877 23.8206 31.4349L23.5825 31.0711C23.8386 30.8015 23.9958 30.4377 23.9958 30.0379V26.0982L25.2312 26.5295C25.2806 26.4756 25.33 26.4217 25.3839 26.3678C25.7118 26.0219 26.1565 25.8107 26.5743 25.8107C26.8708 25.8107 27.1448 25.9185 27.338 26.1117L27.356 26.1297C27.5536 26.3273 27.6614 26.6058 27.6569 26.9158C27.6524 27.3336 27.4458 27.7603 27.1044 28.0838C27.0505 28.1332 26.9966 28.1826 26.9427 28.2365L27.4817 29.7908Z" fill="url(#paint27_linear_110_8260)"/>
<path d="M27.6523 26.9158C27.6568 26.6103 27.5535 26.3318 27.3514 26.1297L27.3334 26.1117C27.1402 25.9185 26.8662 25.8107 26.5697 25.8107C26.152 25.8107 25.7117 26.0174 25.3838 26.3588V29.5842C25.3973 29.5752 25.4062 29.5662 25.4152 29.5572L26.2732 30.8734C26.3766 31.0307 26.5473 31.1205 26.7314 31.1205C26.8258 31.1205 26.9201 31.0935 27.0055 31.0486C27.4457 30.7971 27.6434 30.2625 27.4727 29.7863L26.9291 28.232C26.983 28.1826 27.0369 28.1332 27.0908 28.0793C27.4412 27.7603 27.6434 27.3336 27.6523 26.9158Z" fill="url(#paint28_linear_110_8260)"/>
<path d="M20.8647 21.0805C20.694 21.1569 20.6267 21.3635 20.7165 21.5297C20.8513 21.7678 20.6446 22.0553 20.3751 21.9969C20.1909 21.9565 20.0157 22.0867 19.9933 22.2754C19.9663 22.5494 19.6249 22.6572 19.4407 22.4551C19.3149 22.3158 19.0948 22.3158 18.969 22.4551C18.7849 22.6572 18.4479 22.5494 18.4165 22.2754C18.3985 22.0867 18.2188 21.961 18.0347 21.9969C17.7651 22.0553 17.5585 21.7678 17.6933 21.5297C17.7876 21.368 17.7202 21.1613 17.5495 21.0805C17.2979 20.9682 17.2979 20.6133 17.5495 20.501C17.7202 20.4246 17.7876 20.218 17.6933 20.0518C17.5585 19.8137 17.7651 19.5262 18.0347 19.5846C18.2188 19.625 18.394 19.4947 18.4165 19.3061C18.4435 19.032 18.7849 18.9242 18.969 19.1264C19.0948 19.2656 19.3149 19.2656 19.4407 19.1264C19.6249 18.9242 19.9618 19.032 19.9933 19.3061C20.0112 19.4947 20.1909 19.6205 20.3751 19.5846C20.6446 19.5262 20.8513 19.8137 20.7165 20.0518C20.6222 20.2135 20.6896 20.4201 20.8603 20.501C21.1163 20.6133 21.1163 20.9682 20.8647 21.0805Z" fill="url(#paint29_linear_110_8260)"/>
<path d="M18.1156 20.3213C17.9718 20.3213 17.8281 20.3438 17.6978 20.3797C17.6664 20.4336 17.6169 20.474 17.5585 20.501C17.307 20.6133 17.307 20.9682 17.5585 21.0805C17.7292 21.1568 17.7966 21.3635 17.7023 21.5297C17.5675 21.7678 17.7742 22.0553 18.0437 21.9969C18.2279 21.9564 18.4031 22.0867 18.4255 22.2754C18.4525 22.5494 18.7939 22.6572 18.9781 22.4551C19.1039 22.3158 19.324 22.3158 19.4498 22.4551C19.4992 22.509 19.5576 22.5404 19.616 22.5539V21.8217C19.6115 20.9906 18.9421 20.3213 18.1156 20.3213Z" fill="url(#paint30_linear_110_8260)"/>
<defs>
<linearGradient id="paint0_linear_110_8260" x1="19.5897" y1="15.143" x2="20.6153" y2="15.143" gradientUnits="userSpaceOnUse">
<stop stop-color="#EAF6FF"/>
<stop offset="0.2651" stop-color="#E5F3FE"/>
<stop offset="0.5398" stop-color="#D9EDFE"/>
<stop offset="0.8179" stop-color="#C4E3FE"/>
<stop offset="1" stop-color="#B3DAFE"/>
</linearGradient>
<linearGradient id="paint1_linear_110_8260" x1="20.1207" y1="15.7515" x2="20.1207" y2="13.3679" gradientUnits="userSpaceOnUse">
<stop stop-color="#8AC9FE" stop-opacity="0"/>
<stop offset="0.1291" stop-color="#89C8FD" stop-opacity="0.019"/>
<stop offset="0.2629" stop-color="#88C6FB" stop-opacity="0.075"/>
<stop offset="0.3989" stop-color="#87C4F8" stop-opacity="0.168"/>
<stop offset="0.5365" stop-color="#85C0F4" stop-opacity="0.298"/>
<stop offset="0.6753" stop-color="#83BBEF" stop-opacity="0.466"/>
<stop offset="0.8151" stop-color="#7FB5E9" stop-opacity="0.672"/>
<stop offset="0.9532" stop-color="#7CAEE1" stop-opacity="0.911"/>
<stop offset="1" stop-color="#7BACDF"/>
</linearGradient>
<linearGradient id="paint2_linear_110_8260" x1="24.3481" y1="15.143" x2="25.3737" y2="15.143" gradientUnits="userSpaceOnUse">
<stop stop-color="#EAF6FF"/>
<stop offset="0.2651" stop-color="#E5F3FE"/>
<stop offset="0.5398" stop-color="#D9EDFE"/>
<stop offset="0.8179" stop-color="#C4E3FE"/>
<stop offset="1" stop-color="#B3DAFE"/>
</linearGradient>
<linearGradient id="paint3_linear_110_8260" x1="24.8792" y1="15.7515" x2="24.8792" y2="13.3679" gradientUnits="userSpaceOnUse">
<stop stop-color="#8AC9FE" stop-opacity="0"/>
<stop offset="0.1291" stop-color="#89C8FD" stop-opacity="0.019"/>
<stop offset="0.2629" stop-color="#88C6FB" stop-opacity="0.075"/>
<stop offset="0.3989" stop-color="#87C4F8" stop-opacity="0.168"/>
<stop offset="0.5365" stop-color="#85C0F4" stop-opacity="0.298"/>
<stop offset="0.6753" stop-color="#83BBEF" stop-opacity="0.466"/>
<stop offset="0.8151" stop-color="#7FB5E9" stop-opacity="0.672"/>
<stop offset="0.9532" stop-color="#7CAEE1" stop-opacity="0.911"/>
<stop offset="1" stop-color="#7BACDF"/>
</linearGradient>
<linearGradient id="paint4_linear_110_8260" x1="17.9097" y1="32.9937" x2="18.9592" y2="32.9937" gradientUnits="userSpaceOnUse">
<stop stop-color="#465A61"/>
<stop offset="0.3978" stop-color="#44565C"/>
<stop offset="0.8093" stop-color="#404C50"/>
<stop offset="1" stop-color="#3E4648"/>
</linearGradient>
<linearGradient id="paint5_linear_110_8260" x1="26.3989" y1="32.9937" x2="27.4484" y2="32.9937" gradientUnits="userSpaceOnUse">
<stop stop-color="#465A61"/>
<stop offset="0.3978" stop-color="#44565C"/>
<stop offset="0.8093" stop-color="#404C50"/>
<stop offset="1" stop-color="#3E4648"/>
</linearGradient>
<linearGradient id="paint6_linear_110_8260" x1="16.5609" y1="20.8691" x2="26.9285" y2="27.3814" gradientUnits="userSpaceOnUse">
<stop stop-color="#FEF0AE"/>
<stop offset="0.1466" stop-color="#FDEEA9"/>
<stop offset="0.2986" stop-color="#FDEB9D"/>
<stop offset="0.4531" stop-color="#FDE688"/>
<stop offset="0.6093" stop-color="#FCDF6B"/>
<stop offset="0.7669" stop-color="#FBD646"/>
<stop offset="0.9233" stop-color="#FACC18"/>
<stop offset="1" stop-color="#FAC600"/>
</linearGradient>
<linearGradient id="paint7_linear_110_8260" x1="19.4688" y1="25.9269" x2="16.3167" y2="25.9269" gradientUnits="userSpaceOnUse">
<stop stop-color="#FEF0AE"/>
<stop offset="0.1466" stop-color="#FDEEA9"/>
<stop offset="0.2986" stop-color="#FDEB9D"/>
<stop offset="0.4531" stop-color="#FDE688"/>
<stop offset="0.6093" stop-color="#FCDF6B"/>
<stop offset="0.7669" stop-color="#FBD646"/>
<stop offset="0.9233" stop-color="#FACC18"/>
<stop offset="1" stop-color="#FAC600"/>
</linearGradient>
<linearGradient id="paint8_linear_110_8260" x1="23.8527" y1="25.9269" x2="20.7006" y2="25.9269" gradientUnits="userSpaceOnUse">
<stop stop-color="#FEF0AE"/>
<stop offset="0.1466" stop-color="#FDEEA9"/>
<stop offset="0.2986" stop-color="#FDEB9D"/>
<stop offset="0.4531" stop-color="#FDE688"/>
<stop offset="0.6093" stop-color="#FCDF6B"/>
<stop offset="0.7669" stop-color="#FBD646"/>
<stop offset="0.9233" stop-color="#FACC18"/>
<stop offset="1" stop-color="#FAC600"/>
</linearGradient>
<linearGradient id="paint9_linear_110_8260" x1="28.2368" y1="25.9269" x2="25.0847" y2="25.9269" gradientUnits="userSpaceOnUse">
<stop stop-color="#FEF0AE"/>
<stop offset="0.1466" stop-color="#FDEEA9"/>
<stop offset="0.2986" stop-color="#FDEB9D"/>
<stop offset="0.4531" stop-color="#FDE688"/>
<stop offset="0.6093" stop-color="#FCDF6B"/>
<stop offset="0.7669" stop-color="#FBD646"/>
<stop offset="0.9233" stop-color="#FACC18"/>
<stop offset="1" stop-color="#FAC600"/>
</linearGradient>
<linearGradient id="paint10_linear_110_8260" x1="22.4998" y1="18.8227" x2="22.4998" y2="15.5532" gradientUnits="userSpaceOnUse">
<stop stop-color="#FEF0AE"/>
<stop offset="0.1466" stop-color="#FDEEA9"/>
<stop offset="0.2986" stop-color="#FDEB9D"/>
<stop offset="0.4531" stop-color="#FDE688"/>
<stop offset="0.6093" stop-color="#FCDF6B"/>
<stop offset="0.7669" stop-color="#FBD646"/>
<stop offset="0.9233" stop-color="#FACC18"/>
<stop offset="1" stop-color="#FAC600"/>
</linearGradient>
<linearGradient id="paint11_linear_110_8260" x1="26.982" y1="24.5997" x2="29.6503" y2="24.5997" gradientUnits="userSpaceOnUse">
<stop stop-color="#FE9738" stop-opacity="0"/>
<stop offset="0.1207" stop-color="#FE9738" stop-opacity="0.016"/>
<stop offset="0.2459" stop-color="#FE9738" stop-opacity="0.065"/>
<stop offset="0.3731" stop-color="#FE9738" stop-opacity="0.147"/>
<stop offset="0.5018" stop-color="#FE9738" stop-opacity="0.262"/>
<stop offset="0.6317" stop-color="#FE9738" stop-opacity="0.41"/>
<stop offset="0.7625" stop-color="#FE9738" stop-opacity="0.59"/>
<stop offset="0.8916" stop-color="#FE9738" stop-opacity="0.8"/>
<stop offset="1" stop-color="#FE9738"/>
</linearGradient>
<linearGradient id="paint12_linear_110_8260" x1="22.4999" y1="31.8209" x2="22.4999" y2="33.075" gradientUnits="userSpaceOnUse">
<stop stop-color="#FE9738" stop-opacity="0"/>
<stop offset="0.1207" stop-color="#FE9738" stop-opacity="0.016"/>
<stop offset="0.2459" stop-color="#FE9738" stop-opacity="0.065"/>
<stop offset="0.3731" stop-color="#FE9738" stop-opacity="0.147"/>
<stop offset="0.5018" stop-color="#FE9738" stop-opacity="0.262"/>
<stop offset="0.6317" stop-color="#FE9738" stop-opacity="0.41"/>
<stop offset="0.7625" stop-color="#FE9738" stop-opacity="0.59"/>
<stop offset="0.8916" stop-color="#FE9738" stop-opacity="0.8"/>
<stop offset="1" stop-color="#FE9738"/>
</linearGradient>
<linearGradient id="paint13_linear_110_8260" x1="22.5" y1="11.4123" x2="22.5" y2="12.9494" gradientUnits="userSpaceOnUse">
<stop stop-color="#465A61"/>
<stop offset="0.3978" stop-color="#44565C"/>
<stop offset="0.8093" stop-color="#404C50"/>
<stop offset="1" stop-color="#3E4648"/>
</linearGradient>
<linearGradient id="paint14_linear_110_8260" x1="22.5" y1="13.6219" x2="22.5" y2="11.94" gradientUnits="userSpaceOnUse">
<stop stop-color="#465A61"/>
<stop offset="0.3978" stop-color="#44565C"/>
<stop offset="0.8093" stop-color="#404C50"/>
<stop offset="1" stop-color="#3E4648"/>
</linearGradient>
<linearGradient id="paint15_linear_110_8260" x1="22.4999" y1="12.405" x2="22.4999" y2="13.5103" gradientUnits="userSpaceOnUse">
<stop stop-color="#444444" stop-opacity="0"/>
<stop offset="1"/>
</linearGradient>
<linearGradient id="paint16_linear_110_8260" x1="22.8091" y1="26.8386" x2="28.2166" y2="30.8315" gradientUnits="userSpaceOnUse">
<stop stop-color="#EAF6FF"/>
<stop offset="0.2651" stop-color="#E5F3FE"/>
<stop offset="0.5398" stop-color="#D9EDFE"/>
<stop offset="0.8179" stop-color="#C4E3FE"/>
<stop offset="1" stop-color="#B3DAFE"/>
</linearGradient>
<linearGradient id="paint17_linear_110_8260" x1="24.4683" y1="26.6132" x2="23.7899" y2="27.6754" gradientUnits="userSpaceOnUse">
<stop stop-color="#26A6FE"/>
<stop offset="0.2729" stop-color="#23A1FD"/>
<stop offset="0.5557" stop-color="#1A95FD"/>
<stop offset="0.8419" stop-color="#0B80FB"/>
<stop offset="1" stop-color="#0172FB"/>
</linearGradient>
<linearGradient id="paint18_linear_110_8260" x1="23.7052" y1="27.6164" x2="23.9519" y2="27.2327" gradientUnits="userSpaceOnUse">
<stop stop-color="#26A6FE"/>
<stop offset="0.2729" stop-color="#23A1FD"/>
<stop offset="0.5557" stop-color="#1A95FD"/>
<stop offset="0.8419" stop-color="#0B80FB"/>
<stop offset="1" stop-color="#0172FB"/>
</linearGradient>
<linearGradient id="paint19_linear_110_8260" x1="26.8201" y1="29.0034" x2="25.7923" y2="29.6612" gradientUnits="userSpaceOnUse">
<stop stop-color="#26A6FE"/>
<stop offset="0.2729" stop-color="#23A1FD"/>
<stop offset="0.5557" stop-color="#1A95FD"/>
<stop offset="0.8419" stop-color="#0B80FB"/>
<stop offset="1" stop-color="#0172FB"/>
</linearGradient>
<linearGradient id="paint20_linear_110_8260" x1="25.8301" y1="29.7578" x2="26.1659" y2="29.5454" gradientUnits="userSpaceOnUse">
<stop stop-color="#26A6FE"/>
<stop offset="0.2729" stop-color="#23A1FD"/>
<stop offset="0.5557" stop-color="#1A95FD"/>
<stop offset="0.8419" stop-color="#0B80FB"/>
<stop offset="1" stop-color="#0172FB"/>
</linearGradient>
<linearGradient id="paint21_linear_110_8260" x1="26.4461" y1="29.0567" x2="25.9386" y2="28.5492" gradientUnits="userSpaceOnUse">
<stop stop-color="#0182FC" stop-opacity="0"/>
<stop offset="0.192" stop-color="#017FF5" stop-opacity="0.04"/>
<stop offset="0.391" stop-color="#0179E3" stop-opacity="0.161"/>
<stop offset="0.5932" stop-color="#016EC6" stop-opacity="0.362"/>
<stop offset="0.7966" stop-color="#015F9C" stop-opacity="0.643"/>
<stop offset="1" stop-color="#024C67"/>
</linearGradient>
<linearGradient id="paint22_linear_110_8260" x1="23.0139" y1="29.0841" x2="22.6096" y2="29.7351" gradientUnits="userSpaceOnUse">
<stop stop-color="#26A6FE"/>
<stop offset="0.2729" stop-color="#23A1FD"/>
<stop offset="0.5557" stop-color="#1A95FD"/>
<stop offset="0.8419" stop-color="#0B80FB"/>
<stop offset="1" stop-color="#0172FB"/>
</linearGradient>
<linearGradient id="paint23_linear_110_8260" x1="24.357" y1="30.4737" x2="23.7814" y2="30.7889" gradientUnits="userSpaceOnUse">
<stop stop-color="#26A6FE"/>
<stop offset="0.2729" stop-color="#23A1FD"/>
<stop offset="0.5557" stop-color="#1A95FD"/>
<stop offset="0.8419" stop-color="#0B80FB"/>
<stop offset="1" stop-color="#0172FB"/>
</linearGradient>
<linearGradient id="paint24_linear_110_8260" x1="24.3183" y1="30.7301" x2="23.8867" y2="30.1613" gradientUnits="userSpaceOnUse">
<stop stop-color="#0182FC" stop-opacity="0"/>
<stop offset="0.192" stop-color="#017FF5" stop-opacity="0.04"/>
<stop offset="0.391" stop-color="#0179E3" stop-opacity="0.161"/>
<stop offset="0.5932" stop-color="#016EC6" stop-opacity="0.362"/>
<stop offset="0.7966" stop-color="#015F9C" stop-opacity="0.643"/>
<stop offset="1" stop-color="#024C67"/>
</linearGradient>
<linearGradient id="paint25_linear_110_8260" x1="24.6131" y1="28.0802" x2="25.3426" y2="28.8098" gradientUnits="userSpaceOnUse">
<stop stop-color="#26A6FE"/>
<stop offset="0.2729" stop-color="#23A1FD"/>
<stop offset="0.5557" stop-color="#1A95FD"/>
<stop offset="0.8419" stop-color="#0B80FB"/>
<stop offset="1" stop-color="#0172FB"/>
</linearGradient>
<linearGradient id="paint26_linear_110_8260" x1="23.6179" y1="29.8394" x2="22.8279" y2="30.6294" gradientUnits="userSpaceOnUse">
<stop stop-color="#0182FC" stop-opacity="0"/>
<stop offset="0.192" stop-color="#017FF5" stop-opacity="0.04"/>
<stop offset="0.391" stop-color="#0179E3" stop-opacity="0.161"/>
<stop offset="0.5932" stop-color="#016EC6" stop-opacity="0.362"/>
<stop offset="0.7966" stop-color="#015F9C" stop-opacity="0.643"/>
<stop offset="1" stop-color="#024C67"/>
</linearGradient>
<linearGradient id="paint27_linear_110_8260" x1="25.185" y1="28.7493" x2="23.1352" y2="28.7493" gradientUnits="userSpaceOnUse">
<stop stop-color="#0182FC" stop-opacity="0"/>
<stop offset="0.192" stop-color="#017FF5" stop-opacity="0.04"/>
<stop offset="0.391" stop-color="#0179E3" stop-opacity="0.161"/>
<stop offset="0.5932" stop-color="#016EC6" stop-opacity="0.362"/>
<stop offset="0.7966" stop-color="#015F9C" stop-opacity="0.643"/>
<stop offset="1" stop-color="#024C67"/>
</linearGradient>
<linearGradient id="paint28_linear_110_8260" x1="26.3698" y1="28.4715" x2="24.7233" y2="28.4715" gradientUnits="userSpaceOnUse">
<stop stop-color="#0182FC" stop-opacity="0"/>
<stop offset="0.192" stop-color="#017FF5" stop-opacity="0.04"/>
<stop offset="0.391" stop-color="#0179E3" stop-opacity="0.161"/>
<stop offset="0.5932" stop-color="#016EC6" stop-opacity="0.362"/>
<stop offset="0.7966" stop-color="#015F9C" stop-opacity="0.643"/>
<stop offset="1" stop-color="#024C67"/>
</linearGradient>
<linearGradient id="paint29_linear_110_8260" x1="18.0578" y1="19.6386" x2="20.4353" y2="22.0161" gradientUnits="userSpaceOnUse">
<stop stop-color="#FF4565"/>
<stop offset="0.2377" stop-color="#F53A60"/>
<stop offset="0.6488" stop-color="#DB1E54"/>
<stop offset="1" stop-color="#C00148"/>
</linearGradient>
<linearGradient id="paint30_linear_110_8260" x1="20.2214" y1="21.4387" x2="16.3715" y2="21.4387" gradientUnits="userSpaceOnUse">
<stop stop-color="#FF4565"/>
<stop offset="0.2377" stop-color="#F53A60"/>
<stop offset="0.6488" stop-color="#DB1E54"/>
<stop offset="1" stop-color="#C00148"/>
</linearGradient>
</defs>
</svg>
