<svg width="48" height="48" viewBox="0 0 48 48" fill="none" xmlns="http://www.w3.org/2000/svg">
<path d="M16.3161 30.5806C17.0577 30.5757 17.7917 30.4289 18.4782 30.1485C22.6136 28.4672 27.4973 26.4695 32.3206 24.4045C36.0575 22.8093 37.3687 19.5664 35.8274 15.7312L35.0977 13.9704C35.0493 13.8453 34.9764 13.731 34.8833 13.6343C34.7902 13.5377 34.6787 13.4605 34.5554 13.4075C34.4321 13.3544 34.2995 13.3264 34.1653 13.3252C34.0311 13.324 33.898 13.3495 33.7738 13.4004C33.6496 13.4512 33.5367 13.5263 33.4418 13.6213C33.347 13.7162 33.272 13.8291 33.2213 13.9534C33.1706 14.0777 33.1452 14.2108 33.1466 14.345C33.148 14.4792 33.176 14.6118 33.2292 14.7351L33.6479 15.746C32.9156 16.0449 32.0514 16.3935 31.1831 16.7435C30.3149 17.0935 29.417 17.457 28.6672 17.7626L25.8563 10.9968C25.8038 10.8704 25.7261 10.7561 25.628 10.6607C25.5299 10.5653 25.4133 10.4908 25.2856 10.4419C25.1578 10.3929 25.0213 10.3704 24.8845 10.3758C24.7478 10.3811 24.6136 10.4143 24.49 10.4731C24.2423 10.5916 23.9932 10.702 23.7496 10.811C23.1608 11.0582 22.5888 11.3437 22.0373 11.6658C21.5198 12.0103 21.0967 12.4786 20.8064 13.0283C20.516 13.578 20.3676 14.1915 20.3749 14.8131C20.2309 16.9804 20.0936 19.1491 20.0047 21.3164C18.4082 21.9895 17.0323 22.5374 15.6848 23.1701C14.3411 23.7397 13.2737 24.813 12.7111 26.1599C12.5726 26.597 12.5277 27.0583 12.5795 27.5138C12.6312 27.9694 12.7783 28.4089 13.0115 28.8037C13.3458 29.3749 13.8311 29.8429 14.4142 30.1565C14.9972 30.4698 15.6553 30.6167 16.3161 30.5806ZM34.3237 17.6576C34.8272 19.8989 33.8902 21.5439 31.5264 22.5535C26.7153 24.6118 21.8461 26.6054 17.7161 28.2841C16.8371 28.6422 15.3294 28.8131 14.7721 27.8224C14.6752 27.6696 14.6127 27.4973 14.5896 27.3177C14.5663 27.1381 14.5827 26.9557 14.6375 26.7831C15.0262 25.9705 15.7083 25.3351 16.5465 25.0049C17.8361 24.3991 19.1768 23.8701 20.6711 23.2912C21.069 23.164 21.4155 22.9121 21.6591 22.5726C21.9028 22.2333 22.0307 21.8243 22.024 21.4066C22.1128 19.2527 22.25 17.0989 22.3913 14.9518C22.4613 13.9112 22.8047 13.5706 23.0968 13.3916C23.5152 13.1474 23.9487 12.9298 24.3944 12.7401L27.1904 19.4708C27.241 19.5933 27.3153 19.7046 27.4088 19.7983C27.5025 19.8921 27.6137 19.9665 27.7361 20.0173C27.8585 20.068 27.9897 20.0941 28.1222 20.0942C28.2547 20.0942 28.3859 20.0681 28.5083 20.0174C29.3752 19.6593 30.6621 19.1397 31.9423 18.6227C32.7756 18.2795 33.6089 17.9429 34.3237 17.6522V17.6576Z" fill="#A39583"/>
<path d="M14.6 36.625H33.6159C33.8836 36.625 34.1404 36.5187 34.3298 36.3293C34.5191 36.14 34.6255 35.8831 34.6255 35.6154C34.6255 35.3476 34.5191 35.0908 34.3298 34.9015C34.1404 34.7121 33.8836 34.6058 33.6159 34.6058H14.6C14.3323 34.6058 14.0756 34.7121 13.8862 34.9015C13.6969 35.0908 13.5904 35.3476 13.5904 35.6154C13.5904 35.8831 13.6969 36.14 13.8862 36.3293C14.0756 36.5187 14.3323 36.625 14.6 36.625Z" fill="#A39583"/>
</svg>
