<svg width="48" height="48" viewBox="0 0 48 48" fill="none" xmlns="http://www.w3.org/2000/svg">
<path d="M33.6059 24.4074C34.0849 24.0444 34.1789 23.3619 33.8159 22.8829C33.4529 22.4039 32.7703 22.3099 32.2913 22.6729C31.8124 23.0359 31.7183 23.7184 32.0813 24.1974C32.4443 24.6764 33.1269 24.7704 33.6059 24.4074Z" fill="#423D9B"/>
<path d="M33.268 23.9616C33.5008 23.7852 33.5464 23.4535 33.3701 23.2208C33.1937 22.988 32.862 22.9423 32.6292 23.1187C32.3965 23.2951 32.3508 23.6268 32.5272 23.8596C32.7036 24.0923 33.0352 24.138 33.268 23.9616Z" fill="#211A67"/>
<path d="M25.5844 20.6004L22.0641 22.0939L21.3057 19.8619C21.2585 19.7223 21.241 19.5863 21.2501 19.456C21.2974 18.7132 22.1769 18.2035 22.8692 18.6906L25.5844 20.6004Z" fill="#F34B58"/>
<path d="M25.5844 20.6004L22.0641 22.0939L21.3057 19.8619C21.2585 19.7223 21.241 19.5862 21.2501 19.456C21.2501 19.456 22.3716 21.8969 25.5844 20.6004Z" fill="#E11226"/>
<path d="M20.9546 30.6088C20.9546 30.6088 23.2351 30.7509 24.7061 29.9779C25.3456 29.7736 24.7633 27.9504 24.1237 28.1547L20.9546 30.6088Z" fill="#423D9B"/>
<path d="M24.6273 29.7312C24.4512 29.7874 24.2586 29.4929 24.1515 29.1661C24.0412 28.8298 24.0213 28.4593 24.2025 28.4014C24.38 28.3447 24.5741 28.6441 24.6807 28.9738C24.7889 29.3081 24.8072 29.6737 24.6273 29.7312Z" fill="#211A67"/>
<path d="M18.2567 23.9329C20.4125 22.8244 31.8799 17.0903 34.0568 19.3944C34.5356 19.258 35.0076 19.2555 35.4197 19.4308C36.1171 19.7274 36.4064 20.6086 35.969 21.2274C34.3715 23.4873 25.3366 26.9282 15.5085 27.3253C15.1363 27.3404 14.7831 27.1599 14.572 26.8529L11.8878 22.9498C11.7467 22.7446 11.8436 22.4613 12.0808 22.3856L13.329 21.9869C13.6207 21.8937 13.9379 21.9247 14.2061 22.0726L17.559 23.9223C17.7755 24.0417 18.0369 24.0459 18.2567 23.9329Z" fill="#E9E7FC"/>
<path d="M35.9682 21.2276C34.37 23.4873 25.335 26.9285 15.5085 27.3261C15.1376 27.3414 14.7821 27.1617 14.5717 26.852L14.2314 26.3549C32.2097 25.6514 35.7082 19.6064 35.7082 19.6064C36.19 19.9888 36.3429 20.7037 35.9682 21.2276Z" fill="#CCCFF2"/>
<path d="M23.7756 27.9062C23.7756 27.9062 26.0561 28.0484 27.5271 27.2753C28.1667 27.071 27.5843 25.2478 26.9448 25.4521L23.7756 27.9062Z" fill="#423D9B"/>
<path d="M27.4505 27.0397C27.5986 26.9924 27.6237 26.6564 27.5066 26.2891C27.3894 25.9219 27.1744 25.6624 27.0262 25.7097C26.8781 25.7569 26.853 26.093 26.9702 26.4602C27.0873 26.8275 27.3024 27.0869 27.4505 27.0397Z" fill="#211A67"/>
<path d="M13.6383 28.3473C13.5947 28.3613 13.5499 28.3756 13.5031 28.3879C13.045 28.5239 12.4972 28.6234 12.2909 28.4658C11.864 28.1383 13.6732 26.6663 14.451 26.1762C15.031 25.8115 17.1628 25.089 17.5419 25.6333C17.873 26.1084 14.7031 28.0072 13.6383 28.3473Z" fill="#F34B58"/>
<path d="M21.8165 23.9485C21.9182 24.2452 21.7609 24.5687 21.4641 24.6703C21.1673 24.772 20.8447 24.613 20.7431 24.3163C20.6418 24.0207 20.7995 23.6985 21.0963 23.5969C21.3931 23.4952 21.7153 23.6529 21.8165 23.9485Z" fill="#57B3FE"/>
<path d="M23.8192 23.1739C23.9209 23.4707 23.7636 23.7941 23.4668 23.8958C23.17 23.9975 22.8474 23.8385 22.7457 23.5417C22.6445 23.2462 22.8022 22.924 23.099 22.8223C23.3958 22.7206 23.718 22.8784 23.8192 23.1739Z" fill="#57B3FE"/>
<path d="M25.8222 22.3993C25.9238 22.6961 25.7665 23.0195 25.4697 23.1212C25.1729 23.2229 24.8504 23.0639 24.7487 22.7671C24.6474 22.4716 24.8051 22.1494 25.1019 22.0477C25.3987 21.946 25.7209 22.1038 25.8222 22.3993Z" fill="#57B3FE"/>
<path d="M27.8248 21.6248C27.9265 21.9216 27.7692 22.245 27.4724 22.3467C27.1756 22.4484 26.853 22.2894 26.7514 21.9926C26.6501 21.6971 26.8078 21.3749 27.1046 21.2732C27.4014 21.1715 27.7236 21.3293 27.8248 21.6248Z" fill="#57B3FE"/>
<path d="M29.8275 20.8502C29.9292 21.147 29.7719 21.4704 29.4751 21.5721C29.1783 21.6738 28.8557 21.5148 28.754 21.218C28.6528 20.9225 28.8105 20.6003 29.1073 20.4986C29.4041 20.3969 29.7263 20.5547 29.8275 20.8502Z" fill="#57B3FE"/>
<path d="M34.0566 19.3939C33.9257 19.4967 33.7989 19.5918 33.6772 19.6788L33.676 19.6791C31.8281 20.9932 30.9223 20.5822 30.9907 20.0925C31.0127 19.9256 31.183 19.7386 31.4037 19.5629C31.8715 19.1886 32.5659 18.8603 32.5659 18.8603C32.5659 18.8603 32.5671 18.8599 32.5682 18.8596C33.2235 18.8932 33.7386 19.0575 34.0566 19.3939Z" fill="#57B3FE"/>
<path d="M27.8673 24.1752C28.2793 25.2534 21.3533 30.7145 19.1081 31.6474C19.0302 31.6801 18.9582 31.707 18.8922 31.7281C18.0007 32.0129 16.9432 32.1154 16.3818 31.6762C15.7546 31.1852 20.1774 27.0617 21.5549 25.955C22.5951 25.1152 27.34 22.7903 27.8673 24.1752Z" fill="#F34B58"/>
<path d="M19.1081 31.6474C19.0302 31.6801 18.9582 31.707 18.8922 31.7281C18.0007 32.0129 16.9432 32.1154 16.3818 31.6762C15.7546 31.1852 20.1774 27.0616 21.5549 25.955C21.6747 25.8582 21.8465 25.741 22.056 25.6117C22.056 25.6117 17.1744 30.8785 19.1081 31.6474Z" fill="#E11226"/>
<path d="M13.5031 28.3879C13.045 28.5239 12.4972 28.6235 12.2909 28.4659C11.864 28.1383 13.6732 26.6663 14.451 26.1762C14.451 26.1762 12.2818 27.9451 13.5031 28.3879Z" fill="#E11226"/>
<path d="M26.5799 24.7716C26.4825 25.065 26.3411 25.3388 26.1823 25.6006C25.7213 26.3566 25.0129 27.1197 24.2031 27.4788C24.9001 26.7298 24.3996 27.3366 25.9941 25.4668C26.185 25.2351 26.3763 25.0029 26.5799 24.7716Z" fill="white"/>
<path d="M33.676 19.6791C31.8281 20.9932 30.9223 20.5821 30.9907 20.0925C31.0127 19.9256 31.183 19.7386 31.4037 19.5629L33.676 19.6791Z" fill="#5094FF"/>
<path d="M14.2788 22.7394C15.0653 22.9749 16.2843 23.6599 16.8931 24.211C16.2639 24.0233 15.427 23.5727 14.8805 23.1995C14.6724 23.0594 14.469 22.9111 14.2788 22.7394Z" fill="white"/>
<path d="M22.7285 19.2176C23.0398 19.3265 23.3583 19.5258 23.6227 19.7079C23.8671 19.8798 24.1867 20.1457 24.3808 20.39C24.0869 20.2877 23.7306 20.0742 23.4867 19.8996C23.2273 19.7102 22.935 19.4766 22.7285 19.2176Z" fill="white"/>
<path d="M12.0437 17.3953C14.4127 18.4602 19.5488 18.12 20.1728 17.321C20.1728 17.321 20.4804 16.9789 20.0508 16.772C20.0508 16.772 20.8543 16.1355 20.1728 15.3982C19.5734 14.7457 19.0562 15.2046 19.0562 15.2046C19.0562 15.2046 19.1915 14.3054 18.4143 14.2126C17.4622 14.1012 16.4623 15.0401 16.4623 15.0401C16.4623 15.0401 15.4836 14.3373 14.436 15.6846C14.436 15.6846 13.4149 15.5069 13.2187 16.597C12.7413 16.6102 12.3222 16.7137 11.9562 16.9099C11.7307 17.0293 11.8102 17.2903 12.0437 17.3953Z" fill="#E9E7FC"/>
<path d="M25.5596 33.0922C28.0491 34.2113 33.4463 33.8538 34.1019 33.0142C34.1019 33.0142 34.4252 32.6547 33.9737 32.4373C33.9737 32.4373 34.8182 31.7684 34.1019 30.9936C33.4721 30.308 32.9286 30.7901 32.9286 30.7901C32.9286 30.7901 33.0707 29.8453 32.2541 29.7477C31.2536 29.6307 30.2028 30.6173 30.2028 30.6173C30.2028 30.6173 29.1744 29.8788 28.0735 31.2946C28.0735 31.2946 27.0005 31.1078 26.7943 32.2533C26.2926 32.2673 25.8522 32.376 25.4677 32.5822C25.2307 32.7076 25.3142 32.9819 25.5596 33.0922Z" fill="#E9E7FC"/>
</svg>
