<svg width="48" height="48" viewBox="0 0 48 48" fill="none" xmlns="http://www.w3.org/2000/svg">
<path d="M31.3054 29.0614C32.636 29.0348 33.9274 28.6062 35.0097 27.8318C36.092 27.0575 36.9146 25.9736 37.3692 24.7228C37.3809 24.6995 37.3925 24.6747 37.4027 24.6514V24.6412C37.429 24.5814 37.4567 24.5201 37.4815 24.4574C37.6186 24.1366 38.1436 22.8693 38.2734 22.5484C38.3279 22.4157 38.3558 22.2735 38.3555 22.13C38.3551 21.9865 38.3265 21.8445 38.2712 21.7121C38.216 21.5797 38.1352 21.4594 38.0335 21.3582C37.9317 21.2569 37.8111 21.1767 37.6784 21.1222C37.5457 21.0677 37.4035 21.0398 37.26 21.0401C37.1165 21.0404 36.9744 21.0691 36.842 21.1244C36.7096 21.1795 36.5893 21.2603 36.4881 21.3621C36.3869 21.4639 36.3067 21.5845 36.2521 21.7172C36.1777 21.8951 35.9838 22.3647 35.8044 22.8007L33.194 21.6953C32.2388 21.2884 31.2778 20.8801 30.4625 20.5374L33.4813 13.2239C33.5379 13.0868 33.566 12.9397 33.564 12.7915C33.562 12.6433 33.5299 12.497 33.4696 12.3615C33.4093 12.2261 33.3221 12.1044 33.2133 12.0036C33.1045 11.9029 32.9764 11.8254 32.8367 11.7757C32.5538 11.6751 32.2782 11.5687 32.0069 11.4651C31.3706 11.2045 30.7178 10.9862 30.0528 10.8118C29.393 10.6804 28.7109 10.7156 28.0682 10.9142C27.4255 11.1129 26.8424 11.4686 26.3719 11.9493C24.6074 13.4937 22.8442 15.0453 21.1219 16.6335C19.684 16.0632 18.0376 15.3385 16.4086 14.7493C14.9449 14.1567 13.3075 14.1608 11.8469 14.761C11.4064 14.989 11.019 15.3077 10.7105 15.696C10.4019 16.0843 10.1789 16.5335 10.0561 17.0141C9.38674 19.3941 11.2228 21.3803 13.2047 22.2189C17.6497 24.0928 22.904 26.2934 28.1729 28.4095C29.166 28.8247 30.2292 29.0459 31.3054 29.0614ZM34.8652 24.7753C33.5338 26.8695 31.5636 27.4091 28.9911 26.3795C23.7411 24.2707 18.4911 22.0745 14.0592 20.2049C13.1157 19.8068 11.8353 18.786 12.1634 17.6062C12.2054 17.4152 12.2888 17.2358 12.4078 17.0806C12.5267 16.9254 12.6782 16.7981 12.8517 16.7078C13.7695 16.3852 14.7753 16.4211 15.6678 16.8085C17.113 17.3305 18.4838 17.9255 20.1259 18.6489C20.5275 18.8578 20.986 18.9312 21.4327 18.8581C21.8795 18.785 22.2908 18.5694 22.6051 18.2435C24.3172 16.6685 26.0657 15.1299 27.8171 13.5957C28.6629 12.8549 29.1806 12.8564 29.5467 12.941C30.0521 13.0733 30.5485 13.2379 31.0327 13.4339L28.0286 20.7109C27.918 20.9784 27.918 21.2788 28.0288 21.5463C28.1395 21.8137 28.3519 22.0262 28.6192 22.1372C29.5642 22.5295 30.9525 23.1216 32.3423 23.7093C33.226 24.0899 34.1054 24.4559 34.8652 24.7753Z" fill="#A39583"/>
<path d="M13.8698 36.2661H34.4163C34.7064 36.2661 34.9845 36.1509 35.1896 35.9457C35.3947 35.7407 35.51 35.4624 35.51 35.1724C35.51 34.8823 35.3947 34.6041 35.1896 34.399C34.9845 34.1938 34.7064 34.0786 34.4163 34.0786H13.8698C13.5797 34.0786 13.3015 34.1938 13.0964 34.399C12.8913 34.6041 12.7761 34.8823 12.7761 35.1724C12.7761 35.4624 12.8913 35.7407 13.0964 35.9457C13.3015 36.1509 13.5797 36.2661 13.8698 36.2661Z" fill="#A39583"/>
</svg>
