<svg width="48" height="48" viewBox="0 0 48 48" fill="none" xmlns="http://www.w3.org/2000/svg">
<path d="M15.0857 25.1666H32.9143C33.0513 25.1666 33.1847 25.1819 33.3133 25.2101V19.5612C33.3133 18.6351 32.5625 17.8843 31.6363 17.8843H16.3638C15.4376 17.8843 14.6868 18.6351 14.6868 19.5612V25.2101C14.8154 25.1819 14.9488 25.1666 15.0857 25.1666Z" fill="#F6A96C"/>
<path d="M31.6363 17.8843H29.6824C30.6085 17.8843 31.3594 18.6351 31.3594 19.5612V25.1666H32.9143C33.0513 25.1666 33.1846 25.1819 33.3133 25.2101V19.5612C33.3133 18.6351 32.5625 17.8843 31.6363 17.8843Z" fill="#EA9B58"/>
<path d="M13.1758 31.7762H15.3583V34.1308H13.1758V31.7762Z" fill="#E2DEE2"/>
<path d="M13.1758 31.7764H15.3583V33.8263H13.1758V31.7764Z" fill="#E2DEE2"/>
<path d="M14.3777 31.7762H15.3582V33.8262H14.3777V31.7762Z" fill="#CBC4CC"/>
<path d="M32.6416 31.7762H34.8241V33.8262H32.6416V31.7762Z" fill="#E2DEE2"/>
<path d="M33.8438 31.7762H34.8242V33.8262H33.8438V31.7762Z" fill="#CBC4CC"/>
<path d="M35.6484 34.4824H12.3516C12.1574 34.4824 12 34.325 12 34.1308C12 33.9366 12.1574 33.7792 12.3516 33.7792H35.6484C35.8426 33.7792 36 33.9366 36 34.1308C36 34.325 35.8426 34.4824 35.6484 34.4824Z" fill="#FFE5C2"/>
<path d="M31.6411 25.1666C31.7091 25.0256 31.7473 24.8678 31.7473 24.7015V22.246C31.7473 21.6534 31.2624 21.1685 30.6697 21.1685H25.988C25.3953 21.1685 24.9104 21.6534 24.9104 22.246V24.7015C24.9104 24.8678 24.9486 25.0256 25.0166 25.1666H31.6411Z" fill="white"/>
<path d="M30.6697 21.1685H29.2036C29.7963 21.1685 30.2812 21.6534 30.2812 22.246V24.7015C30.2812 24.8678 30.243 25.0256 30.175 25.1666H31.641C31.709 25.0256 31.7472 24.8678 31.7472 24.7015V22.246C31.7472 21.6534 31.2623 21.1685 30.6697 21.1685Z" fill="#F3F0F3"/>
<path d="M22.9834 25.1666C23.0514 25.0256 23.0896 24.8678 23.0896 24.7015V22.246C23.0896 21.6534 22.6047 21.1685 22.012 21.1685H17.3302C16.7376 21.1685 16.2527 21.6534 16.2527 22.246V24.7015C16.2527 24.8678 16.2909 25.0256 16.3589 25.1666H22.9834Z" fill="white"/>
<path d="M22.012 21.1685H20.5459C21.1385 21.1685 21.6235 21.6534 21.6235 22.246V24.7015C21.6235 24.8678 21.5853 25.0256 21.5172 25.1666H22.9833C23.0513 25.0256 23.0895 24.8678 23.0895 24.7015V22.246C23.0895 21.6534 22.6046 21.1685 22.012 21.1685Z" fill="#F3F0F3"/>
<path d="M34.8243 28.0787V27.0297C34.8243 25.9749 33.9692 25.1198 32.9143 25.1198H15.0858C14.0309 25.1198 13.1758 25.9748 13.1758 27.0297V28.0787H34.8243Z" fill="#FFE5C2"/>
<path d="M32.9143 25.1198H30.7542C31.809 25.1198 32.6641 25.9748 32.6641 27.0297V28.0787H34.8243V27.0297C34.8242 25.9749 33.9691 25.1198 32.9143 25.1198Z" fill="#FED2A4"/>
<path d="M34.9453 31.8231H13.0547C12.6664 31.8231 12.3516 31.5083 12.3516 31.12V28.735C12.3516 28.3467 12.6664 28.0319 13.0547 28.0319H34.9453C35.3336 28.0319 35.6484 28.3467 35.6484 28.735V31.12C35.6484 31.5083 35.3336 31.8231 34.9453 31.8231Z" fill="#F6A96C"/>
<path d="M34.9453 28.0319H32.5781C32.9664 28.0319 33.2812 28.3467 33.2812 28.735V31.12C33.2812 31.5083 32.9664 31.8231 32.5781 31.8231H34.9453C35.3336 31.8231 35.6484 31.5083 35.6484 31.12V28.735C35.6484 28.3467 35.3336 28.0319 34.9453 28.0319Z" fill="#EA9B58"/>
<path d="M12.3516 31.12C12.3516 31.5083 12.6664 31.8231 13.0547 31.8231H34.9453C35.3336 31.8231 35.6484 31.5083 35.6484 31.12V30.0353H12.3516V31.12Z" fill="#B5ADB6"/>
<path d="M35.6484 31.12V30.0353H33.2812V31.12C33.2812 31.5083 32.9664 31.8231 32.5781 31.8231H34.9453C35.3336 31.8231 35.6484 31.5083 35.6484 31.12Z" fill="#A79BA7"/>
<path d="M19.4058 15.5794L19.9129 16.5064C19.928 16.5341 19.9508 16.5568 19.9784 16.572L20.9055 17.079C21.0198 17.1416 21.0198 17.3058 20.9055 17.3682L19.9784 17.8753C19.9508 17.8904 19.928 17.9132 19.9129 17.9408L19.4058 18.8679C19.3433 18.9822 19.1791 18.9822 19.1166 18.8679L18.6096 17.9408C18.5944 17.9132 18.5717 17.8904 18.544 17.8753L17.617 17.3682C17.5027 17.3057 17.5027 17.1415 17.617 17.079L18.544 16.572C18.5717 16.5568 18.5944 16.5341 18.6096 16.5064L19.1166 15.5794C19.1792 15.4651 19.3433 15.4651 19.4058 15.5794Z" fill="#FFE177"/>
<path d="M20.9054 17.0789L20.2329 16.7111L19.3075 17.2172C19.2798 17.2324 19.2571 17.2551 19.242 17.2828L18.7458 18.1899L19.1166 18.8678C19.1791 18.9822 19.3433 18.9822 19.4058 18.8678L19.9128 17.9408C19.928 17.9131 19.9507 17.8904 19.9784 17.8753L20.9054 17.3682C21.0198 17.3057 21.0198 17.1415 20.9054 17.0789Z" fill="#FFD15B"/>
<path d="M23.0624 14.256H22.6756V13.8692C22.6756 13.675 22.5183 13.5176 22.3241 13.5176C22.1299 13.5176 21.9725 13.675 21.9725 13.8692V14.256H21.5857C21.3915 14.256 21.2341 14.4134 21.2341 14.6076C21.2341 14.8017 21.3915 14.9591 21.5857 14.9591H21.9725V15.346C21.9725 15.5401 22.1299 15.6975 22.3241 15.6975C22.5183 15.6975 22.6756 15.5401 22.6756 15.346V14.9591H23.0624C23.2566 14.9591 23.414 14.8017 23.414 14.6076C23.414 14.4134 23.2566 14.256 23.0624 14.256Z" fill="#FFD15B"/>
<path d="M25.8281 15.8498H25.6756V15.6973C25.6756 15.5032 25.5183 15.3458 25.3241 15.3458C25.1299 15.3458 24.9725 15.5032 24.9725 15.6973V15.8498H24.8201C24.6259 15.8498 24.4685 16.0072 24.4685 16.2013C24.4685 16.3955 24.6259 16.5529 24.8201 16.5529H24.9725V16.7053C24.9725 16.8995 25.1299 17.0569 25.3241 17.0569C25.5183 17.0569 25.6756 16.8995 25.6756 16.7053V16.5529H25.8281C26.0223 16.5529 26.1796 16.3955 26.1796 16.2013C26.1796 16.0072 26.0223 15.8498 25.8281 15.8498Z" fill="#FFD15B"/>
<path d="M28.9762 13.7492L29.37 14.4692C29.3852 14.4969 29.4079 14.5196 29.4355 14.5348L30.1556 14.9286C30.2699 14.9911 30.2699 15.1553 30.1556 15.2178L29.4355 15.6116C29.4079 15.6267 29.3852 15.6495 29.37 15.6771L28.9762 16.3972C28.9137 16.5115 28.7495 16.5115 28.687 16.3972L28.2932 15.6771C28.2781 15.6495 28.2553 15.6267 28.2277 15.6116L27.5076 15.2178C27.3933 15.1553 27.3933 14.9911 27.5076 14.9286L28.2277 14.5348C28.2553 14.5196 28.2781 14.4969 28.2932 14.4692L28.687 13.7492C28.7495 13.6349 28.9137 13.6349 28.9762 13.7492Z" fill="#FFE177"/>
<path d="M30.1558 14.9286L29.6524 14.6533C29.6421 14.663 29.6305 14.6718 29.6171 14.6792L28.8971 15.073C28.8694 15.0881 28.8467 15.1109 28.8315 15.1385L28.4377 15.8586C28.4304 15.8719 28.4216 15.8836 28.4119 15.8939L28.6872 16.3972C28.7497 16.5115 28.9139 16.5115 28.9764 16.3972L29.3702 15.6771C29.3854 15.6495 29.4081 15.6268 29.4358 15.6116L30.1558 15.2178C30.2701 15.1553 30.2701 14.9911 30.1558 14.9286Z" fill="#FFD15B"/>
</svg>
