<svg width="48" height="48" viewBox="0 0 48 48" fill="none" xmlns="http://www.w3.org/2000/svg">
<path fill-rule="evenodd" clip-rule="evenodd" d="M24.4989 21.975C23.1714 21.975 22.0914 20.895 22.0914 19.5675C22.0914 18.24 23.1714 17.16 24.4989 17.16C25.8264 17.16 26.9064 18.24 26.9064 19.5675C26.9064 20.895 25.8264 21.975 24.4989 21.975ZM24.4989 12.6713C20.6626 12.6713 17.5464 15.7875 17.5464 19.6238C17.5464 24.3825 22.9801 29.0738 24.4989 29.0738C26.0064 29.0738 31.4401 24.3825 31.4401 19.6238C31.4401 15.7875 28.3239 12.6713 24.4989 12.6713Z" fill="#445E87"/>
<path fill-rule="evenodd" clip-rule="evenodd" d="M32.1639 26.6454C31.7578 26.4159 31.2425 26.5622 31.0153 26.9683C30.7869 27.3744 30.9309 27.8886 31.3381 28.1169C32.21 28.6063 32.6904 29.1531 32.6904 29.6582C32.6904 30.3366 31.8433 30.9137 31.3213 31.2073C30.9781 31.4098 30.5945 31.5876 30.1456 31.7518C27.0451 32.9004 21.9635 32.9027 18.8517 31.7496C18.4366 31.5988 18.035 31.4132 17.6559 31.1972C17.1496 30.9148 16.3025 30.3377 16.3025 29.6582C16.3025 28.9764 17.1496 28.4004 17.6559 28.1169C18.062 27.8886 18.206 27.3744 17.9787 26.9683C17.7504 26.5622 17.2374 26.4182 16.829 26.6454C14.9997 27.6714 14.615 28.8493 14.615 29.6582C14.615 30.4648 14.9997 31.6427 16.8256 32.6676C17.2835 32.9274 17.7717 33.1524 18.2701 33.3336C20.0037 33.9759 22.2166 34.3303 24.5004 34.3303C26.7864 34.3303 28.9993 33.9759 30.7284 33.3347C31.2718 33.1378 31.7465 32.9162 32.1639 32.6687C33.9931 31.6416 34.3779 30.4648 34.3779 29.6582C34.3779 28.8504 33.9931 27.6726 32.1639 26.6454Z" fill="#445E87"/>
</svg>
