<svg width="48" height="48" viewBox="0 0 48 48" fill="none" xmlns="http://www.w3.org/2000/svg">
<path fill-rule="evenodd" clip-rule="evenodd" d="M21.4062 12.8125H27.5937C30.1373 12.8125 32.2062 14.8814 32.2062 17.4239V29.575C32.2062 32.1186 30.1373 34.1875 27.5937 34.1875H21.4062C18.8626 34.1875 16.7937 32.1186 16.7937 29.575V17.4239C16.7937 14.8814 18.8626 12.8125 21.4062 12.8125ZM22.9249 18.3812H26.0749C26.5407 18.3812 26.9187 18.0032 26.9187 17.5375C26.9187 17.0717 26.5407 16.6937 26.0749 16.6937H22.9249C22.4592 16.6937 22.0812 17.0717 22.0812 17.5375C22.0812 18.0032 22.4592 18.3812 22.9249 18.3812ZM23.4312 29.35C23.4312 29.9496 23.9003 30.4187 24.4999 30.4187C25.0051 30.4187 25.5687 29.962 25.5687 29.35C25.5687 28.738 25.0051 28.2812 24.4999 28.2812C23.9959 28.2812 23.4312 28.738 23.4312 29.35Z" fill="#445E87"/>
</svg>
