<svg width="48" height="48" viewBox="0 0 48 48" fill="none" xmlns="http://www.w3.org/2000/svg">
<path fill-rule="evenodd" clip-rule="evenodd" d="M7 24C7 14.6262 14.6262 7 24 7C33.3738 7 41 14.6262 41 24C41 33.3738 33.3738 41 24 41C14.6262 41 7 33.3738 7 24ZM9.55 24C9.55 31.9679 16.0321 38.45 24 38.45C31.9679 38.45 38.45 31.9679 38.45 24C38.45 16.0321 31.9679 9.55 24 9.55C16.0321 9.55 9.55 16.0321 9.55 24ZM20.644 17.1983C21.1404 16.7002 21.9479 16.6985 22.4477 17.1949L28.3739 23.0973C28.5671 23.2877 28.6916 23.5347 28.7337 23.7991L28.7496 24C28.7496 24.3383 28.6153 24.6647 28.3739 24.9027L22.4477 30.8034C21.9479 31.3015 21.1404 31.2981 20.644 30.8C20.1476 30.3002 20.1476 29.4927 20.6474 28.9963L25.6692 24L20.6474 19.002C20.1476 18.5056 20.1476 17.6981 20.644 17.1983Z" fill="#A1C2E2"/>
</svg>
