<svg width="48" height="48" viewBox="0 0 48 48" fill="none" xmlns="http://www.w3.org/2000/svg">
<path fill-rule="evenodd" clip-rule="evenodd" d="M41 24C41 33.3738 33.3738 41 24 41C14.6262 41 7 33.3738 7 24C7 14.6262 14.6262 7 24 7C33.3738 7 41 14.6262 41 24ZM38.45 24C38.45 16.0321 31.9679 9.55 24 9.55C16.0321 9.55 9.55 16.0321 9.55 24C9.55 31.9679 16.0321 38.45 24 38.45C31.9679 38.45 38.45 31.9679 38.45 24ZM27.356 30.8017C26.8596 31.2998 26.0521 31.3015 25.5523 30.8051L19.6261 24.9027C19.4329 24.7123 19.3084 24.4653 19.2663 24.2009L19.2504 24C19.2504 23.6617 19.3847 23.3353 19.6261 23.0973L25.5523 17.1966C26.0521 16.6985 26.8596 16.7019 27.356 17.2C27.8524 17.6998 27.8524 18.5073 27.3526 19.0037L22.3308 24L27.3526 28.998C27.8524 29.4944 27.8524 30.3019 27.356 30.8017Z" fill="#A1C2E2"/>
</svg>
