<svg width="48" height="48" viewBox="0 0 48 48" fill="none" xmlns="http://www.w3.org/2000/svg">
<path fill-rule="evenodd" clip-rule="evenodd" d="M24 41C14.6262 41 7 33.3738 7 24C7 14.6262 14.6262 7 24 7C33.3738 7 41 14.6262 41 24C41 33.3738 33.3738 41 24 41ZM24 38.45C31.9679 38.45 38.45 31.9679 38.45 24C38.45 16.0321 31.9679 9.55 24 9.55C16.0321 9.55 9.55 16.0321 9.55 24C9.55 31.9679 16.0321 38.45 24 38.45ZM17.1983 27.356C16.7002 26.8596 16.6985 26.0521 17.1949 25.5523L23.0973 19.6261C23.2877 19.4329 23.5347 19.3084 23.7991 19.2663L24 19.2504C24.3383 19.2504 24.6647 19.3847 24.9027 19.6261L30.8034 25.5523C31.3015 26.0521 31.2981 26.8596 30.8 27.356C30.3002 27.8524 29.4927 27.8524 28.9963 27.3526L24 22.3308L19.002 27.3526C18.5056 27.8524 17.6981 27.8524 17.1983 27.356Z" fill="#A1C2E2"/>
</svg>
