<svg width="48" height="48" viewBox="0 0 48 48" fill="none" xmlns="http://www.w3.org/2000/svg">
<path fill-rule="evenodd" clip-rule="evenodd" d="M24 7C33.3738 7 41 14.6262 41 24C41 33.3738 33.3738 41 24 41C14.6262 41 7 33.3738 7 24C7 14.6262 14.6262 7 24 7ZM24 9.55C16.0321 9.55 9.55 16.0321 9.55 24C9.55 31.9679 16.0321 38.45 24 38.45C31.9679 38.45 38.45 31.9679 38.45 24C38.45 16.0321 31.9679 9.55 24 9.55ZM30.8017 20.644C31.2998 21.1404 31.3015 21.9479 30.8051 22.4477L24.9027 28.3739C24.7123 28.5671 24.4653 28.6916 24.2009 28.7337L24 28.7496C23.6617 28.7496 23.3353 28.6153 23.0973 28.3739L17.1966 22.4477C16.6985 21.9479 16.7019 21.1404 17.2 20.644C17.6998 20.1476 18.5073 20.1476 19.0037 20.6474L24 25.6692L28.998 20.6474C29.4944 20.1476 30.3019 20.1476 30.8017 20.644Z" fill="#A1C2E2"/>
</svg>
