<svg width="55" height="72" viewBox="0 0 55 72" fill="none" xmlns="http://www.w3.org/2000/svg">
<rect width="55" height="72" rx="12" fill="#EBE6DB"/>
<path d="M36 29.5C36.2761 29.5 36.5 29.2761 36.5 29C36.5 28.7239 36.2761 28.5 36 28.5L36 29.5ZM17.6464 28.6464C17.4512 28.8417 17.4512 29.1583 17.6464 29.3536L20.8284 32.5355C21.0237 32.7308 21.3403 32.7308 21.5355 32.5355C21.7308 32.3403 21.7308 32.0237 21.5355 31.8284L18.7071 29L21.5355 26.1716C21.7308 25.9763 21.7308 25.6597 21.5355 25.4645C21.3403 25.2692 21.0237 25.2692 20.8284 25.4645L17.6464 28.6464ZM36 28.5L18 28.5L18 29.5L36 29.5L36 28.5Z" fill="#445E87"/>
<path d="M18 42.5C17.7239 42.5 17.5 42.7239 17.5 43C17.5 43.2761 17.7239 43.5 18 43.5V42.5ZM36.3536 43.3536C36.5488 43.1583 36.5488 42.8417 36.3536 42.6464L33.1716 39.4645C32.9763 39.2692 32.6597 39.2692 32.4645 39.4645C32.2692 39.6597 32.2692 39.9763 32.4645 40.1716L35.2929 43L32.4645 45.8284C32.2692 46.0237 32.2692 46.3403 32.4645 46.5355C32.6597 46.7308 32.9763 46.7308 33.1716 46.5355L36.3536 43.3536ZM18 43.5H36V42.5H18V43.5Z" fill="#445E87"/>
</svg>
