<svg width="48" height="48" viewBox="0 0 48 48" fill="none" xmlns="http://www.w3.org/2000/svg">
<rect x="0.5" y="0.5" width="47" height="47" rx="11.5" fill="#EBE6DB"/>
<rect x="0.5" y="0.5" width="47" height="47" rx="11.5" stroke="#7C6D56"/>
<path d="M32.5 17.5C32.7761 17.5 33 17.2761 33 17C33 16.7239 32.7761 16.5 32.5 16.5L32.5 17.5ZM14.1464 16.6464C13.9512 16.8417 13.9512 17.1583 14.1464 17.3536L17.3284 20.5355C17.5237 20.7308 17.8403 20.7308 18.0355 20.5355C18.2308 20.3403 18.2308 20.0237 18.0355 19.8284L15.2071 17L18.0355 14.1716C18.2308 13.9763 18.2308 13.6597 18.0355 13.4645C17.8403 13.2692 17.5237 13.2692 17.3284 13.4645L14.1464 16.6464ZM32.5 16.5L14.5 16.5L14.5 17.5L32.5 17.5L32.5 16.5Z" fill="#445E87"/>
<path d="M14.5 30.5C14.2239 30.5 14 30.7239 14 31C14 31.2761 14.2239 31.5 14.5 31.5V30.5ZM32.8536 31.3536C33.0488 31.1583 33.0488 30.8417 32.8536 30.6464L29.6716 27.4645C29.4763 27.2692 29.1597 27.2692 28.9645 27.4645C28.7692 27.6597 28.7692 27.9763 28.9645 28.1716L31.7929 31L28.9645 33.8284C28.7692 34.0237 28.7692 34.3403 28.9645 34.5355C29.1597 34.7308 29.4763 34.7308 29.6716 34.5355L32.8536 31.3536ZM14.5 31.5H32.5V30.5H14.5V31.5Z" fill="#445E87"/>
</svg>

