<svg width="42" height="42" viewBox="0 0 42 42" fill="none" xmlns="http://www.w3.org/2000/svg">
<path d="M23.7155 30.1107C23.4336 30.1107 23.1794 29.9159 23.1153 29.6293L20.1825 16.648C20.1082 16.3162 20.317 15.987 20.6488 15.9128C20.6941 15.9026 20.7393 15.8978 20.7839 15.8978C21.0658 15.8978 21.32 16.0926 21.3841 16.3791L24.3169 29.3604C24.3912 29.6922 24.1824 30.0214 23.8506 30.0957C23.8053 30.1058 23.7601 30.1107 23.7155 30.1107Z" fill="#C5D3DD"/>
<path d="M19.6148 11.2788C23.9896 10.3001 28.3397 11.9663 30.9936 15.2174L11 19.6899C12.0149 15.6182 15.24 12.2574 19.6148 11.2788Z" fill="#FE646F"/>
<path d="M29.3824 15.5777L30.9935 15.2173C28.3397 11.9663 23.9896 10.3 19.6147 11.2787C19.6147 11.2787 24.7827 9.99395 29.3824 15.5777Z" fill="#FD4755"/>
<path d="M19.6148 11.2787C22.5005 10.6332 25.5614 12.5878 27.5908 15.9785L14.4028 18.9287C14.7933 14.9966 16.7291 11.9242 19.6148 11.2787Z" fill="#F5F8F9"/>
<path d="M19.6149 11.2787C20.628 11.052 22.0677 13.3694 23.312 16.9357L18.6818 17.9715C18.2871 14.2151 18.6017 11.5053 19.6149 11.2787Z" fill="#FE646F"/>
<path d="M11 19.6899C11.5632 21.3986 14.5667 20.8956 14.4028 18.9286C13.2685 19.1824 12.1343 19.4361 11 19.6899Z" fill="#E8EDF2"/>
<path d="M27.5908 15.9779C28.154 17.6867 31.1575 17.1837 30.9936 15.2167C29.8593 15.4705 28.7251 15.7242 27.5908 15.9779Z" fill="#F5F8F9"/>
<path d="M30.9936 15.2167C29.8593 15.4705 28.7251 15.7242 27.5908 15.9779C27.5909 15.9782 27.591 15.9785 27.5911 15.9788C28.1887 15.8451 28.7863 15.7114 29.3839 15.5777C29.4356 16.1983 29.1719 16.673 28.7691 16.9787C29.8122 17.1844 31.1025 16.5242 30.9936 15.2167Z" fill="#E8EDF2"/>
<path d="M14.4028 18.9287C15.3852 20.6763 18.7143 20.1201 18.6817 17.9715C17.2554 18.2906 15.8291 18.6096 14.4028 18.9287Z" fill="#FE646F"/>
<path d="M23.3101 16.9362C24.2924 18.6838 27.6215 18.1276 27.589 15.979C26.1626 16.2981 24.7363 16.6171 23.3101 16.9362Z" fill="#FE646F"/>
<path d="M18.6816 17.9715C18.6816 17.9715 19.4262 19.5278 21.3789 19.075C23.3316 18.6222 23.3118 16.9357 23.3118 16.9357L18.6816 17.9715Z" fill="#E8EDF2"/>
<path d="M28.4684 28.8208C27.4065 27.9067 25.9456 27.6107 24.6117 28.0395L21.8309 28.9333L18.1204 27.1351C16.4348 26.3181 14.4084 26.7723 13.2327 28.2306L11 31H31L28.4684 28.8208Z" fill="#FDD79B"/>
<path d="M28.4683 28.8208C27.5189 28.0035 26.2505 27.6808 25.0391 27.928C25.7013 28.0633 26.3295 28.3653 26.8587 28.8208L29.3902 31H30.9999L28.4683 28.8208Z" fill="#FCCD7F"/>
<path d="M16.5107 27.135L20.8357 29.226L21.8309 28.9334L18.1204 27.1351C17.3026 26.7387 16.4047 26.6424 15.5625 26.814C15.8851 26.88 16.2036 26.9862 16.5107 27.135Z" fill="#FCCD7F"/>
<path d="M15.8492 28.645C15.685 28.645 15.5474 28.5072 15.5474 28.3432C15.5472 28.1786 15.6849 28.0417 15.8491 28.0413C16.0134 28.0409 16.1511 28.1792 16.151 28.3432C16.1508 28.5071 16.0133 28.645 15.8492 28.645Z" fill="#E9B665"/>
<path d="M14.4041 29.9489C14.2397 29.9489 14.1021 29.8116 14.1023 29.6471C14.1025 29.4864 14.2335 29.3511 14.3942 29.3456C14.555 29.3402 14.6955 29.4684 14.7053 29.6288C14.7158 29.7996 14.5751 29.9489 14.4041 29.9489Z" fill="#E9B665"/>
<path d="M26.5534 29.9489C26.3854 29.9489 26.2467 29.8058 26.2518 29.638C26.2568 29.478 26.3926 29.3447 26.5534 29.3453C26.7106 29.3458 26.8449 29.4717 26.8546 29.6288C26.8651 29.7998 26.7246 29.9489 26.5534 29.9489Z" fill="#E9B665"/>
</svg>
