<svg width="48" height="48" viewBox="0 0 48 48" fill="none" xmlns="http://www.w3.org/2000/svg">
<path d="M23.6355 25.5198C27.4149 25.5198 30.4787 22.456 30.4787 18.6766C30.4787 14.8972 27.4149 11.8333 23.6355 11.8333C19.8561 11.8333 16.7922 14.8972 16.7922 18.6766C16.7922 22.456 19.8561 25.5198 23.6355 25.5198Z" stroke="#A39583" stroke-width="2" stroke-linecap="round" stroke-linejoin="round"/>
<path d="M26.8371 25.9325H20.6014C17.0648 25.9325 14.1977 28.7994 14.1977 32.3362C14.1977 32.4632 14.1965 32.5907 14.1948 32.7186C14.1758 34.1366 15.328 35.1665 16.7462 35.1665H30.6922C32.1106 35.1665 33.2627 34.1366 33.2437 32.7186C33.242 32.5907 33.2408 32.4632 33.2408 32.3362C33.2408 28.7994 30.3737 25.9325 26.8371 25.9325Z" stroke="#A39583" stroke-width="2" stroke-linecap="round" stroke-linejoin="round"/>
</svg>
