<svg width="48" height="48" viewBox="0 0 48 48" fill="none" xmlns="http://www.w3.org/2000/svg">
<path fill-rule="evenodd" clip-rule="evenodd" d="M27.3186 25.046L22.9122 27.554C22.7286 27.6536 22.5318 27.7028 22.3374 27.7028C22.1298 27.7028 21.9246 27.6464 21.7398 27.536C21.3845 27.3248 21.1721 26.954 21.1721 26.5412V21.524C21.1721 21.104 21.3905 20.7248 21.7554 20.5148C22.1178 20.3048 22.5498 20.3024 22.9146 20.5124L27.3186 23.0204C27.681 23.2244 27.9066 23.6144 27.9066 24.032C27.9066 24.452 27.681 24.8396 27.3186 25.046ZM34.8762 17.8676C34.5654 16.5836 33.5958 15.5564 32.3466 15.1808C30.2262 14.4812 17.6009 14.5208 15.6665 15.2228C14.4125 15.5804 13.4369 16.6124 13.1357 17.8628C12.4253 19.94 12.4253 28.1516 13.1249 30.206C13.4729 31.46 14.4473 32.4524 15.6269 32.78C16.6649 33.1568 20.3717 33.3428 24.057 33.3428C27.7182 33.3428 31.3602 33.1592 32.337 32.792C33.591 32.42 34.5642 31.3892 34.8606 30.158C35.5686 28.1204 35.571 19.9304 34.8762 17.8676Z" fill="#82A0BF"/>
</svg>
